<svg width="24" height="21" viewBox="0 0 24 21" fill="none" xmlns="http://www.w3.org/2000/svg">
<path d="M23.827 9.19071L23.8583 8.80825V8.80045C22.6819 7.69601 21.9447 6.13106 21.9447 4.39049C21.9447 3.10262 22.3486 1.91232 23.0349 0.932766H23.0309C21.831 0.932766 20.7448 1.40889 19.9488 2.1816C20.2821 1.63134 20.7409 1.15522 21.2977 0.792272L22.1839 0.214684L21.1291 0.101508C20.8115 0.0663845 20.4899 0.050774 20.1644 0.050774C18.1646 0.050774 16.2863 0.733733 14.7883 1.88891C13.8746 1.54548 12.9178 1.36986 11.9336 1.36986C10.9493 1.36986 9.98861 1.54548 9.07886 1.88891C7.57307 0.725927 5.69476 0.0429688 3.69488 0.0429688C3.37333 0.0429688 3.04786 0.0585792 2.73023 0.0937028L1.6754 0.206879L2.56162 0.784467C3.12237 1.14741 3.57724 1.62743 3.91055 2.1738C3.11452 1.40108 2.02832 0.924961 0.828391 0.924961H0.82447C1.5107 1.90452 1.9146 3.09872 1.9146 4.38268C1.9146 6.12325 1.17739 7.6882 -0.00292969 8.79264H0.000991637L0.0323622 9.18291C0.228428 11.6338 1.69893 13.7958 3.85958 14.9041C3.39294 14.8534 2.93806 14.7402 2.49888 14.5685L1.62442 14.2212L2.01263 15.0759C2.90277 17.0272 4.77324 18.3463 6.88684 18.5609C6.63587 18.6858 6.37707 18.7951 6.10649 18.8848L5.50261 19.0839L5.96533 19.517C6.78096 20.282 7.84756 20.6995 8.96906 20.6995C10.0906 20.6995 11.1219 20.2859 11.9257 19.56C12.7296 20.2898 13.7884 20.6995 14.8824 20.6995C15.9765 20.6995 17.0705 20.2781 17.8862 19.517L18.3489 19.0839L17.745 18.8848C17.4783 18.7951 17.2156 18.6858 16.9686 18.5609C19.0822 18.3463 20.9526 17.0272 21.8428 15.0759L22.231 14.2212L21.3565 14.5685C20.9173 14.7402 20.4625 14.8534 19.9958 14.9041C22.1565 13.7919 23.6309 11.6338 23.823 9.18291L23.827 9.19071ZM4.36543 7.3838C5.17714 7.40331 5.96533 7.58673 6.69469 7.91846C6.60842 8.137 6.55745 8.37506 6.55745 8.62093C6.55745 9.66293 7.40837 10.5098 8.45537 10.5098C8.72594 10.5098 8.98475 10.4513 9.22003 10.3498C9.34943 10.7049 9.42001 11.0835 9.42001 11.4698C9.42001 12.3674 9.05533 13.1831 8.47105 13.7763C6.15747 12.6758 4.41248 10.5059 3.96153 7.88333C4.10662 7.72333 4.24387 7.55942 4.36935 7.3838H4.36543ZM14.4393 11.4698C14.4393 11.0835 14.5099 10.7049 14.6393 10.3498C14.8746 10.4513 15.1334 10.5098 15.404 10.5098C16.4509 10.5098 17.3019 9.66293 17.3019 8.62093C17.3019 8.37116 17.2509 8.1331 17.1646 7.91846C17.894 7.58673 18.6783 7.40331 19.4939 7.3838C19.6194 7.55942 19.7566 7.72723 19.9017 7.88333C19.4468 10.5059 17.7058 12.6758 15.3922 13.7763C14.804 13.1792 14.4432 12.3674 14.4432 11.4698H14.4393ZM11.9297 2.12307C12.6786 2.12307 13.4119 2.23624 14.1178 2.45479C13.161 3.35629 12.4041 4.47244 11.9297 5.73299C11.4552 4.47244 10.6984 3.35629 9.74156 2.45479C10.4474 2.23624 11.1807 2.12307 11.9297 2.12307ZM11.5571 7.17306L11.9297 8.97607L12.3022 7.17306C13.059 3.5124 16.3215 0.843006 20.0743 0.80398C19.1057 1.75622 18.5528 3.05189 18.5528 4.43732C18.5528 5.22955 18.7332 5.98276 19.0586 6.65401C17.8783 6.75157 16.7568 7.15745 15.7804 7.8404C15.4353 8.08237 15.1099 8.35945 14.8158 8.65995C14.0825 9.41706 13.6786 10.4161 13.6786 11.4737C13.6786 11.8835 13.7413 12.2738 13.855 12.6445C13.2355 12.7889 12.5924 12.867 11.9257 12.867C11.2591 12.867 10.616 12.7889 9.99645 12.6484C10.1102 12.2777 10.1729 11.8835 10.1729 11.4776C10.1729 10.42 9.76901 9.42097 9.03572 8.65995C8.74162 8.35945 8.41615 8.08237 8.07108 7.8404C7.09467 7.15745 5.97317 6.75157 4.79285 6.65401C5.11832 5.98276 5.2987 5.22955 5.2987 4.43732C5.2987 3.05579 4.74187 1.75622 3.77723 0.80398C7.53386 0.846908 10.7925 3.5124 11.5493 7.17306H11.5571ZM0.832312 9.50292C1.75775 9.38584 2.60475 9.0229 3.30275 8.48434C3.88702 11.0171 5.58104 13.1167 7.80835 14.2953C7.31034 14.5958 6.72606 14.7715 6.09865 14.7715C5.70652 14.7715 5.32223 14.7012 4.9497 14.5685C2.73415 13.7685 1.14994 11.8055 0.828391 9.50292H0.832312ZM14.8863 19.9541C13.8707 19.9541 12.8943 19.5248 12.2081 18.7794L11.9257 18.475L11.6434 18.7794C10.9572 19.5248 9.98076 19.9541 8.96906 19.9541C8.25538 19.9541 7.56523 19.7473 6.98095 19.3648C7.46327 19.1502 7.91815 18.8731 8.33773 18.5453C9.71803 18.3541 10.9807 17.6984 11.9257 16.6681C12.8747 17.6984 14.1374 18.3541 15.5138 18.5453C15.9333 18.8731 16.3882 19.1463 16.8705 19.3648C16.2823 19.7473 15.5961 19.9541 14.8824 19.9541H14.8863ZM20.7056 15.5637C19.737 16.9725 18.1136 17.8467 16.3647 17.8467C14.7413 17.8467 13.2355 17.1169 12.2316 15.8486L11.9336 15.47L11.6356 15.8486C10.6317 17.1208 9.12591 17.8467 7.50249 17.8467C5.74965 17.8467 4.13015 16.9725 3.16158 15.5637C4.05956 15.7588 5.02029 15.7432 5.91827 15.5208C5.98101 15.5208 6.04375 15.5286 6.11042 15.5286C7.05545 15.5286 7.92599 15.2046 8.61614 14.6661C9.64745 15.0876 10.7689 15.3217 11.9336 15.3217C13.0982 15.3217 14.2197 15.0876 15.251 14.6661C15.9451 15.2046 16.8117 15.5286 17.7567 15.5286C17.8195 15.5286 17.8822 15.5247 17.9489 15.5208C18.8469 15.7432 19.8076 15.7588 20.7056 15.5637ZM18.9018 14.5685C18.5332 14.7051 18.1489 14.7715 17.7567 14.7715C17.1333 14.7715 16.549 14.5958 16.0471 14.2953C18.2783 13.1167 19.9684 11.0171 20.5527 8.48434C21.2546 9.0229 22.0977 9.38194 23.027 9.50292C22.7055 11.8055 21.1212 13.7685 18.9018 14.5685Z" fill="#D8997E"/>
</svg>
