<svg width="30" height="30" viewBox="0 0 30 30" fill="none" xmlns="http://www.w3.org/2000/svg">
<g clipPath="url(#clip0_88_170)">
<path d="M16.0191 22.6155V16.034H18.2899C18.3885 16.0336 18.4837 15.9974 18.5576 15.932C18.6315 15.8666 18.6791 15.7765 18.6914 15.6786L18.9406 13.5601C18.9485 13.5027 18.9441 13.4443 18.9275 13.3888C18.911 13.3332 18.8827 13.2819 18.8447 13.2382C18.8067 13.1945 18.7597 13.1594 18.707 13.1353C18.6543 13.1112 18.597 13.0987 18.5391 13.0986H16.0191V11.3355C16.0191 10.5278 16.2406 9.97861 17.4037 9.97861H18.4606C18.5671 9.97861 18.6693 9.93631 18.7446 9.861C18.8199 9.7857 18.8622 9.68357 18.8622 9.57707V7.7863C18.8622 7.67981 18.8199 7.57768 18.7446 7.50237C18.6693 7.42707 18.5671 7.38477 18.4606 7.38477H16.7252C14.6022 7.38477 13.1483 8.68169 13.1483 11.0771V13.1078H11.4452C11.3917 13.1072 11.3386 13.1173 11.2891 13.1375C11.2395 13.1577 11.1945 13.1876 11.1567 13.2254C11.1188 13.2633 11.0889 13.3083 11.0687 13.3578C11.0486 13.4074 11.0385 13.4605 11.0391 13.514V15.6325C11.0391 15.739 11.0814 15.8411 11.1567 15.9164C11.232 15.9917 11.3341 16.034 11.4406 16.034H13.1529V22.6155H16.0191Z" fill="#D8997E"/>
<path d="M15 30C12.0333 30 9.13319 29.1203 6.66645 27.472C4.19972 25.8238 2.27713 23.4811 1.14181 20.7403C0.00649914 17.9994 -0.290551 14.9834 0.288228 12.0737C0.867006 9.16394 2.29562 6.49119 4.3934 4.3934C6.49119 2.29562 9.16394 0.867006 12.0737 0.288228C14.9834 -0.290551 17.9994 0.00649914 20.7403 1.14181C23.4811 2.27713 25.8238 4.19972 27.472 6.66645C29.1203 9.13319 30 12.0333 30 15C29.9951 18.9768 28.4132 22.7892 25.6012 25.6012C22.7892 28.4132 18.9768 29.9951 15 30ZM15 0.461545C12.1246 0.461545 9.31371 1.31421 6.92287 2.91172C4.53203 4.50922 2.6686 6.77982 1.56822 9.43638C0.467838 12.0929 0.179928 15.0161 0.740898 17.8363C1.30187 20.6565 2.68652 23.247 4.71976 25.2803C6.753 27.3135 9.34351 28.6981 12.1637 29.2591C14.9839 29.8201 17.9071 29.5322 20.5636 28.4318C23.2202 27.3314 25.4908 25.468 27.0883 23.0771C28.6858 20.6863 29.5385 17.8754 29.5385 15C29.5348 11.1453 28.0019 7.44951 25.2762 4.72381C22.5505 1.99811 18.8547 0.465211 15 0.461545Z" fill="#D8997E"/>
</g>
<defs>
<clipPath id="clip0_88_170">
<rect width="30" height="30" fill="white"/>
</clipPath>
</defs>
</svg>
