<svg
  width="50"
  height="50"
  viewBox="0 0 50 50"
  fill="none"
  xmlns="http://www.w3.org/2000/svg"
>
  <g clip-path="url(#clip0_450_8930)">
    <path
      d="M18.7563 17.1875C18.7563 18.4307 18.2625 19.623 17.3834 20.5021C16.5043 21.3811 15.312 21.875 14.0688 21.875C12.8256 21.875 11.6334 21.3811 10.7543 20.5021C9.87521 19.623 9.38135 18.4307 9.38135 17.1875C9.38135 15.9443 9.87521 14.752 10.7543 13.8729C11.6334 12.9939 12.8256 12.5 14.0688 12.5C15.312 12.5 16.5043 12.9939 17.3834 13.8729C18.2625 14.752 18.7563 15.9443 18.7563 17.1875Z"
      fill="#D8997E"
    />
    <path
      d="M4.6875 6.25C3.4443 6.25 2.25201 6.74386 1.37294 7.62294C0.49386 8.50201 0 9.6943 0 10.9375L0 39.0625C0 40.3057 0.49386 41.498 1.37294 42.3771C2.25201 43.2561 3.4443 43.75 4.6875 43.75H45.3125C46.5557 43.75 47.748 43.2561 48.6271 42.3771C49.5061 41.498 50 40.3057 50 39.0625V10.9375C50 9.6943 49.5061 8.50201 48.6271 7.62294C47.748 6.74386 46.5557 6.25 45.3125 6.25H4.6875ZM45.3125 9.375C45.7269 9.375 46.1243 9.53962 46.4174 9.83265C46.7104 10.1257 46.875 10.5231 46.875 10.9375V29.6875L35.0781 23.6031C34.7851 23.4563 34.4533 23.4054 34.1297 23.4576C33.8061 23.5097 33.5071 23.6623 33.275 23.8937L21.6813 35.4875L13.3687 29.95C13.0686 29.7502 12.7086 29.6603 12.3498 29.6956C11.991 29.7309 11.6554 29.8893 11.4 30.1437L3.13125 37.5V39.1875C3.12751 39.1459 3.12543 39.1042 3.125 39.0625V10.9375C3.125 10.5231 3.28962 10.1257 3.58265 9.83265C3.87567 9.53962 4.2731 9.375 4.6875 9.375H45.3125Z"
      fill="#D8997E"
    />
  </g>
  <defs>
    <clipPath id="clip0_450_8930">
      <rect width="50" height="50" fill="white" />
    </clipPath>
  </defs>
</svg>
