<svg width="30" height="30" viewBox="0 0 30 30" fill="none" xmlns="http://www.w3.org/2000/svg">
<g clipPath="url(#clip0_88_175)">
<path d="M19.2374 9.85536C19.0011 9.87368 18.7805 9.98047 18.6195 10.1544C18.4586 10.3283 18.3691 10.5566 18.3691 10.7936C18.3691 11.0305 18.4586 11.2588 18.6195 11.4327C18.7805 11.6066 19.0011 11.7134 19.2374 11.7318C19.3667 11.7418 19.4967 11.725 19.6192 11.6824C19.7417 11.6398 19.8541 11.5723 19.9493 11.4842C20.0445 11.3961 20.1205 11.2893 20.1724 11.1704C20.2244 11.0516 20.2512 10.9233 20.2512 10.7936C20.2512 10.6639 20.2244 10.5355 20.1724 10.4167C20.1205 10.2978 20.0445 10.191 19.9493 10.1029C19.8541 10.0148 19.7417 9.94734 19.6192 9.90474C19.4967 9.86214 19.3667 9.84533 19.2374 9.85536Z" fill="#D8997E"/>
<path d="M15.0675 11.0557C14.2873 11.0557 13.5247 11.287 12.8761 11.7204C12.2274 12.1538 11.7218 12.7699 11.4233 13.4906C11.1248 14.2114 11.0466 15.0044 11.1988 15.7696C11.351 16.5347 11.7267 17.2375 12.2783 17.7892C12.83 18.3408 13.5328 18.7165 14.2979 18.8687C15.0631 19.0209 15.8562 18.9428 16.5769 18.6442C17.2977 18.3457 17.9137 17.8401 18.3471 17.1915C18.7805 16.5428 19.0119 15.7802 19.0119 15.0001C19.0119 13.9539 18.5963 12.9507 17.8566 12.211C17.1168 11.4712 16.1136 11.0557 15.0675 11.0557ZM15.0675 17.5245C14.5682 17.5245 14.0801 17.3764 13.665 17.099C13.2498 16.8217 12.9263 16.4274 12.7352 15.9661C12.5441 15.5048 12.4941 14.9973 12.5915 14.5076C12.6889 14.0179 12.9294 13.5681 13.2824 13.215C13.6355 12.862 14.0853 12.6216 14.575 12.5242C15.0647 12.4267 15.5722 12.4767 16.0335 12.6678C16.4948 12.8589 16.889 13.1824 17.1664 13.5976C17.4438 14.0127 17.5919 14.5008 17.5919 15.0001C17.5904 15.6691 17.3239 16.3104 16.8508 16.7835C16.3777 17.2566 15.7365 17.523 15.0675 17.5245Z" fill="#D8997E"/>
<path d="M18.1955 23.0018H11.8337C10.5584 23.0018 9.33528 22.4956 8.43298 21.5943C7.53068 20.6931 7.02303 19.4706 7.02154 18.1953V11.8335C7.01857 11.1994 7.14081 10.571 7.38125 9.98419C7.62168 9.39744 7.97558 8.86391 8.42266 8.41422C8.86973 7.96453 9.40118 7.60752 9.98652 7.36366C10.5719 7.11981 11.1996 6.9939 11.8337 6.99316H18.1955C18.8293 6.9939 19.4568 7.11984 20.0418 7.36377C20.6268 7.60769 21.1579 7.96479 21.6045 8.41456C22.0512 8.86433 22.4045 9.39789 22.6444 9.98462C22.8842 10.5713 23.0057 11.1997 23.002 11.8335V18.1953C23.002 19.47 22.4956 20.6926 21.5942 21.594C20.6928 22.4954 19.4702 23.0018 18.1955 23.0018ZM11.8337 8.50331C11.3955 8.50031 10.9612 8.5844 10.5558 8.7507C10.1504 8.917 9.78206 9.16219 9.47222 9.47202C9.16238 9.78186 8.9172 10.1502 8.7509 10.5556C8.5846 10.961 8.50051 11.3953 8.50351 11.8335V18.1953C8.50424 18.6311 8.59108 19.0624 8.75905 19.4646C8.92701 19.8667 9.17279 20.2317 9.48225 20.5385C9.79171 20.8453 10.1588 21.088 10.5623 21.2525C10.9658 21.4171 11.3979 21.5003 11.8337 21.4973H18.1955C19.0708 21.4958 19.9098 21.1474 20.5287 20.5285C21.1476 19.9096 21.496 19.0706 21.4975 18.1953V11.8335C21.496 10.9582 21.1476 10.1192 20.5287 9.50027C19.9098 8.88134 19.0708 8.53297 18.1955 8.53148L11.8337 8.50331Z" fill="#D8997E"/>
<path d="M15 30C12.0333 30 9.13319 29.1203 6.66645 27.472C4.19972 25.8238 2.27713 23.4811 1.14181 20.7403C0.00649923 17.9994 -0.290551 14.9834 0.288227 12.0737C0.867006 9.16393 2.29562 6.49119 4.3934 4.3934C6.49119 2.29562 9.16393 0.867006 12.0737 0.288227C14.9834 -0.290551 17.9994 0.00649923 20.7403 1.14181C23.4811 2.27713 25.8238 4.19972 27.472 6.66645C29.1203 9.13319 30 12.0333 30 15C29.9955 18.9769 28.4137 22.7896 25.6017 25.6017C22.7896 28.4137 18.9769 29.9955 15 30ZM15 0.563493C12.1447 0.563493 9.35358 1.41018 6.97951 2.99648C4.60544 4.58279 2.75507 6.83746 1.66241 9.47539C0.569741 12.1133 0.28385 15.016 0.840886 17.8164C1.39792 20.6168 2.77287 23.1892 4.79185 25.2082C6.81083 27.2271 9.38317 28.6021 12.1836 29.1591C14.984 29.7162 17.8867 29.4303 20.5246 28.3376C23.1625 27.2449 25.4172 25.3946 27.0035 23.0205C28.5898 20.6464 29.4365 17.8553 29.4365 15C29.432 11.1726 27.9096 7.50319 25.2032 4.79679C22.4968 2.09039 18.8274 0.567967 15 0.563493Z" fill="#D8997E"/>
</g>
<defs>
<clipPath id="clip0_88_175">
<rect width="30" height="30" fill="white"/>
</clipPath>
</defs>
</svg>
