<svg width="20" height="20" viewBox="0 0 20 20" fill="none" xmlns="http://www.w3.org/2000/svg">
<g id="stack_FILL1_wght400_GRAD0_opsz24 1">
<path id="Vector" d="M4.99935 11.6665V13.3332H3.33268C2.87435 13.3332 2.48199 13.17 2.1556 12.8436C1.82921 12.5172 1.66602 12.1248 1.66602 11.6665V3.33317C1.66602 2.87484 1.82921 2.48248 2.1556 2.15609C2.48199 1.8297 2.87435 1.6665 3.33268 1.6665H11.666C12.1243 1.6665 12.5167 1.8297 12.8431 2.15609C13.1695 2.48248 13.3327 2.87484 13.3327 3.33317V4.99984H11.666V3.33317H3.33268V11.6665H4.99935ZM8.33268 18.3332C7.87435 18.3332 7.48199 18.17 7.1556 17.8436C6.82921 17.5172 6.66602 17.1248 6.66602 16.6665V8.33317C6.66602 7.87484 6.82921 7.48248 7.1556 7.15609C7.48199 6.8297 7.87435 6.6665 8.33268 6.6665H16.666C17.1243 6.6665 17.5167 6.8297 17.8431 7.15609C18.1695 7.48248 18.3327 7.87484 18.3327 8.33317V16.6665C18.3327 17.1248 18.1695 17.5172 17.8431 17.8436C17.5167 18.17 17.1243 18.3332 16.666 18.3332H8.33268Z" fill="white"/>
</g>
</svg>
