<svg width="24" height="24" viewBox="0 0 24 24" fill="none" xmlns="http://www.w3.org/2000/svg">
<g clipPath="url(#clip0_88_184)">
<path d="M11.9992 23.3002L8.64922 20.0002H3.99922V15.3502L0.699219 12.0002L3.99922 8.6502V4.0002H8.64922L11.9992 0.700195L15.3492 4.0002H19.9992V8.6502L23.2992 12.0002L19.9992 15.3502V20.0002H15.3492L11.9992 23.3002ZM11.9992 18.0002C13.6659 18.0002 15.0826 17.4169 16.2492 16.2502C17.4159 15.0835 17.9992 13.6669 17.9992 12.0002C17.9992 10.3335 17.4159 8.91686 16.2492 7.7502C15.0826 6.58353 13.6659 6.0002 11.9992 6.0002C10.3326 6.0002 8.91589 6.58353 7.74922 7.7502C6.58255 8.91686 5.99922 10.3335 5.99922 12.0002C5.99922 13.6669 6.58255 15.0835 7.74922 16.2502C8.91589 17.4169 10.3326 18.0002 11.9992 18.0002ZM11.9992 16.0002C10.8992 16.0002 9.95755 15.6085 9.17422 14.8252C8.39089 14.0419 7.99922 13.1002 7.99922 12.0002C7.99922 10.9002 8.39089 9.95853 9.17422 9.1752C9.95755 8.39186 10.8992 8.0002 11.9992 8.0002C13.0992 8.0002 14.0409 8.39186 14.8242 9.1752C15.6076 9.95853 15.9992 10.9002 15.9992 12.0002C15.9992 13.1002 15.6076 14.0419 14.8242 14.8252C14.0409 15.6085 13.0992 16.0002 11.9992 16.0002Z" fill="#D8997E"/>
</g>
<defs>
<clipPath id="clip0_88_184">
<rect width="24" height="24" fill="white"/>
</clipPath>
</defs>
</svg>
