<svg width="30" height="30" viewBox="0 0 30 30" fill="none" xmlns="http://www.w3.org/2000/svg">
<g clipPath="url(#clip0_88_191)">
<path d="M22.0291 10.3664C21.7068 10.5104 21.3714 10.6232 21.0276 10.7033C21.4071 10.3423 21.6897 9.89153 21.8491 9.39257C21.8603 9.36079 21.8612 9.32633 21.8518 9.294C21.8424 9.26166 21.8232 9.23307 21.7967 9.21222C21.7703 9.19137 21.738 9.17931 21.7043 9.17772C21.6707 9.17612 21.6374 9.18508 21.6091 9.20333C21.1321 9.48473 20.6178 9.69758 20.0814 9.83564C20.0493 9.84019 20.0167 9.84019 19.9845 9.83564C19.886 9.83499 19.791 9.79896 19.7168 9.7341C19.144 9.2306 18.4072 8.95328 17.6445 8.9541C17.3095 8.95465 16.9765 9.006 16.6568 9.10641C16.1564 9.26252 15.705 9.5457 15.3466 9.92831C14.9883 10.3109 14.7352 10.7799 14.6122 11.2895C14.5169 11.6726 14.4919 12.0698 14.5384 12.4618C14.5396 12.4779 14.5376 12.4942 14.5324 12.5095C14.5272 12.5248 14.519 12.539 14.5082 12.551C14.4975 12.5631 14.4843 12.5729 14.4697 12.5797C14.455 12.5866 14.4391 12.5905 14.423 12.591C13.3258 12.4929 12.2596 12.1746 11.2882 11.6552C10.3168 11.1358 9.46005 10.4259 8.76913 9.56795C8.75433 9.54606 8.7344 9.52813 8.71106 9.51573C8.68772 9.50334 8.6617 9.49685 8.63528 9.49685C8.60886 9.49685 8.58284 9.50334 8.5595 9.51573C8.53617 9.52813 8.51623 9.54606 8.50144 9.56795C8.15142 10.1709 8.01179 10.8731 8.10454 11.5641C8.19728 12.255 8.51712 12.8956 9.01374 13.3849C8.76309 13.3278 8.52209 13.2345 8.29836 13.1079C8.2733 13.0945 8.2452 13.0877 8.21677 13.0883C8.18834 13.0888 8.16052 13.0966 8.13597 13.111C8.11143 13.1253 8.09098 13.1457 8.07658 13.1703C8.06218 13.1948 8.05432 13.2226 8.05374 13.251C8.04926 13.8595 8.22125 14.4563 8.54891 14.9691C8.87656 15.4818 9.34583 15.8887 9.8999 16.1403H9.83528C9.65871 16.1396 9.48257 16.1226 9.30913 16.0895C9.28128 16.0832 9.25225 16.0844 9.22501 16.0929C9.19777 16.1015 9.17328 16.1171 9.15405 16.1382C9.13482 16.1594 9.12152 16.1852 9.11552 16.2131C9.10952 16.241 9.11103 16.27 9.1199 16.2972C9.29121 16.8493 9.61149 17.3435 10.0455 17.7254C10.4795 18.1073 11.0104 18.3621 11.5799 18.4618C10.6241 19.1017 9.49935 19.4424 8.34913 19.4403H7.98451C7.93017 19.4398 7.8773 19.4579 7.83454 19.4914C7.79178 19.5249 7.76167 19.572 7.74913 19.6249C7.7364 19.6771 7.74127 19.7321 7.76296 19.7814C7.78465 19.8306 7.82197 19.8713 7.86913 19.8972C9.17967 20.6591 10.6686 21.0604 12.1845 21.0603C13.4573 21.0713 14.7172 20.8051 15.8768 20.2803C16.9083 19.8006 17.828 19.1104 18.5768 18.2541C19.2922 17.4398 19.8523 16.5012 20.2291 15.4849C20.5897 14.5083 20.7726 13.4751 20.7691 12.4341V12.3879C20.7689 12.3083 20.7866 12.2295 20.821 12.1576C20.8553 12.0857 20.9054 12.0225 20.9676 11.9726C21.4505 11.578 21.8693 11.1109 22.2091 10.5879C22.2294 10.559 22.2396 10.5242 22.2382 10.4888C22.2368 10.4535 22.2238 10.4196 22.2013 10.3924C22.1787 10.3652 22.1479 10.3461 22.1135 10.338C22.079 10.33 22.0429 10.3335 22.0107 10.3479L22.0291 10.3664Z" fill="#D8997E"/>
<path d="M15 30C12.0333 30 9.13319 29.1203 6.66645 27.472C4.19972 25.8238 2.27713 23.4811 1.14181 20.7403C0.00649914 17.9994 -0.290551 14.9834 0.288228 12.0737C0.867006 9.16394 2.29562 6.49119 4.3934 4.3934C6.49119 2.29562 9.16394 0.867006 12.0737 0.288228C14.9834 -0.290551 17.9994 0.00649914 20.7403 1.14181C23.4811 2.27713 25.8238 4.19972 27.472 6.66645C29.1203 9.13319 30 12.0333 30 15C29.9951 18.9768 28.4132 22.7892 25.6012 25.6012C22.7892 28.4132 18.9768 29.9951 15 30ZM15 0.461545C12.1246 0.461545 9.31371 1.31421 6.92287 2.91172C4.53203 4.50922 2.6686 6.77982 1.56822 9.43638C0.467838 12.0929 0.179928 15.0161 0.740898 17.8363C1.30187 20.6565 2.68652 23.247 4.71976 25.2803C6.753 27.3135 9.34351 28.6981 12.1637 29.2591C14.9839 29.8201 17.9071 29.5322 20.5636 28.4318C23.2202 27.3314 25.4908 25.468 27.0883 23.0771C28.6858 20.6863 29.5385 17.8754 29.5385 15C29.5348 11.1453 28.0019 7.44951 25.2762 4.72381C22.5505 1.99811 18.8547 0.465211 15 0.461545Z" fill="#D8997E"/>
</g>
<defs>
<clipPath id="clip0_88_191">
<rect width="30" height="30" fill="white"/>
</clipPath>
</defs>
</svg>
