<svg width="130" height="130" viewBox="0 0 130 130" fill="none" xmlns="http://www.w3.org/2000/svg">
<path d="M34.9389 98.6461C34.9638 98.8257 34.9749 99.0025 34.9749 99.1794C34.9749 100.163 34.5521 101.227 33.7093 102.365C33.0323 103.28 32.2034 104.098 31.2169 104.822C30.3134 105.474 29.7027 105.778 29.3822 105.731C29.0257 105.684 28.3957 105.419 27.4949 104.938C26.5913 104.457 26.105 104.125 26.0359 103.949C26.0111 103.902 26 103.849 26 103.788C26 103.717 26.0221 103.625 26.0636 103.512C26.105 103.399 26.1271 103.313 26.1271 103.255V91.716C26.1271 91.5253 26.3868 91.4313 26.9091 91.4313C27.1467 91.4313 27.354 91.4562 27.5336 91.5032C28.0917 91.1467 28.7936 90.829 29.6447 90.5499C30.493 90.2708 31.2197 90.1299 31.8248 90.1299C32.1813 90.1299 32.4576 90.1796 32.651 90.2819C32.8472 90.3813 33.0268 90.5582 33.1954 90.8069C33.4081 91.1523 33.5573 91.365 33.6402 91.4479C33.6651 91.4728 33.8585 91.6331 34.2288 91.9287C34.4416 92.1056 34.5797 92.2962 34.6378 92.4979C34.6847 92.6416 34.7096 92.7964 34.7096 92.9622C34.7096 93.8989 34.0851 94.9213 32.8389 96.0238C34.1072 96.9854 34.8091 97.8585 34.9389 98.6405V98.6461ZM31.8248 92.8599C31.8 92.8129 31.7364 92.7881 31.6286 92.7881C31.3551 92.7881 30.9295 92.929 30.3465 93.2136C29.7635 93.4982 29.3711 93.7718 29.1722 94.0315V95.8829C29.932 95.2777 30.5869 94.6615 31.1395 94.0315C31.6922 93.4015 31.9188 93.0119 31.8248 92.8572V92.8599ZM32.4659 98.1321C32.1564 98.1432 31.6342 98.2924 30.8992 98.577C30.1033 98.8975 29.5286 99.2125 29.1722 99.5192V102.832C29.9431 102.62 30.703 101.965 31.4518 100.873C32.2006 99.7817 32.5377 98.8671 32.4659 98.1321Z" fill="black"/>
<path d="M46.8663 104.325C46.8553 104.433 46.8304 104.687 46.7945 105.09C46.7807 105.303 46.7337 105.464 46.6508 105.571C46.5928 105.607 46.4905 105.624 46.3468 105.624C45.9545 105.624 45.4681 105.524 44.8879 105.32C44.2579 105.129 43.8323 104.905 43.6057 104.643C43.5118 104.535 43.4151 104.179 43.3211 103.574C43.1913 102.778 43.0421 102.12 42.8763 101.598C42.4259 101.659 41.7655 101.822 40.9006 102.087C40.0329 102.352 39.4692 102.576 39.2095 102.753C39.0299 103.264 38.7923 103.894 38.4966 104.64C38.4607 104.806 38.422 104.963 38.3805 105.113C38.3391 105.262 38.2368 105.383 38.0683 105.477C38.0324 105.502 37.9799 105.513 37.908 105.513C37.6234 105.513 37.1454 105.364 36.4739 105.068C35.8025 104.773 35.4543 104.577 35.4322 104.48C35.3852 104.314 35.4985 103.905 35.7721 103.253C36.1506 102.302 36.3717 101.722 36.4297 101.507C36.181 101.258 36.0567 101.009 36.0567 100.758C36.0567 100.697 36.0622 100.633 36.076 100.562C36.1009 100.418 36.4601 100.164 37.162 99.7962L39.4582 91.9432C39.4941 91.8023 39.4996 91.5398 39.4775 91.1612C39.4527 90.8407 39.4886 90.639 39.5853 90.5561C39.6433 90.4953 39.787 90.4676 40.0108 90.4676C40.569 90.4676 41.3648 90.6086 42.3955 90.8959C43.4289 91.1806 44.0451 91.4348 44.2468 91.6613C44.3186 92.9794 44.5839 94.9551 45.0481 97.5912C45.6422 100.843 46.2474 103.087 46.8636 104.322L46.8663 104.325ZM41.5085 89.8487C41.141 89.8487 40.8757 89.8155 40.7154 89.7492C40.5552 89.6857 40.475 89.5751 40.475 89.4204C40.475 89.2905 40.5137 89.1966 40.5911 89.1441C40.6685 89.0916 40.7652 89.0474 40.884 89.0114C41.1797 88.9175 41.4201 88.8153 41.6052 88.7075C41.7903 88.5997 41.9257 88.4947 42.0141 88.387C42.1026 88.2792 42.1606 88.1742 42.191 88.0664C42.2214 87.9587 42.2352 87.8537 42.2352 87.7459C42.2352 87.5442 42.1661 87.4005 42.0307 87.3176C41.8953 87.2347 41.7074 87.1933 41.4698 87.1933C41.3399 87.1933 41.2322 87.2071 41.1493 87.2375C41.0664 87.2679 40.9945 87.301 40.9365 87.3342C40.8757 87.3812 40.8287 87.4226 40.7956 87.4585C40.7956 87.5414 40.7762 87.6077 40.7431 87.6547C40.7182 87.7017 40.6795 87.7431 40.627 87.7791C40.5745 87.815 40.5054 87.8316 40.4225 87.8316C40.1131 87.8316 39.9031 87.7404 39.7898 87.5552C39.6765 87.3701 39.6212 87.196 39.6212 87.0302C39.6212 86.8644 39.6461 86.7456 39.6931 86.6738C39.74 86.6019 39.8008 86.5522 39.8727 86.5218C39.9445 86.4914 40.0163 86.4721 40.0965 86.4582C40.1739 86.4472 40.2402 86.4168 40.301 86.3698C40.4198 86.3339 40.5441 86.298 40.674 86.2621C40.7928 86.2372 40.9254 86.2151 41.0747 86.1902C41.2239 86.1654 41.3869 86.1543 41.5637 86.1543C41.8235 86.1543 42.0832 86.1764 42.3374 86.2178C42.5917 86.2593 42.8182 86.3311 43.0144 86.4306C43.2106 86.5301 43.3709 86.671 43.4952 86.8479C43.6196 87.0275 43.6831 87.2568 43.6831 87.5442C43.6831 87.7818 43.614 87.9891 43.4786 88.1659C43.3405 88.3455 43.1913 88.4975 43.0255 88.6301C42.8348 88.7738 42.622 88.9037 42.3844 89.0225C42.4093 89.0474 42.4369 89.0805 42.4728 89.1303C42.5447 89.2242 42.5806 89.3016 42.5806 89.3624C42.5806 89.6829 42.2241 89.8432 41.5112 89.8432L41.5085 89.8487ZM42.2214 98.912C42.0666 98.1632 41.9727 97.6713 41.9368 97.4337C41.8069 96.6379 41.7185 95.8144 41.6715 94.9578C41.4339 95.5409 41.1548 96.3477 40.8343 97.3784C40.4889 98.4588 40.3065 99.1358 40.2816 99.4094C40.5082 99.3154 41.1548 99.1496 42.2214 98.912Z" fill="black"/>
<path d="M58.4933 91.916C58.5651 92.5322 58.4214 92.9246 58.065 93.0904C57.8633 93.1843 57.7693 93.2313 57.7804 93.2313C57.0923 94.2868 56.1832 96.1464 55.0559 98.8046C54.0003 101.322 53.4477 102.836 53.4007 103.345C53.3896 103.439 53.4118 103.604 53.4725 103.842C53.5306 104.08 53.5554 104.276 53.5444 104.431C53.4725 105.237 53.2708 105.671 52.9392 105.729C52.7735 105.754 52.359 105.663 51.7013 105.461C51.0437 105.259 50.6016 105.088 50.375 104.944C49.9716 104.66 49.7699 104.375 49.7699 104.091C49.7699 103.95 49.8113 103.787 49.8942 103.61C50.06 103.146 50.4109 102.198 50.9442 100.761C49.9605 98.73 49.2946 97.3291 48.952 96.5582C48.2639 95.0163 47.7776 93.7508 47.4902 92.7671C47.4654 92.709 47.399 92.6178 47.2857 92.499C47.1725 92.3802 47.1172 92.2752 47.1172 92.1785C47.1172 91.9989 47.3493 91.7336 47.8108 91.3772C48.7944 90.6173 49.4714 90.2608 49.8417 90.3078C50.0324 90.3327 50.2037 90.457 50.3584 90.6808C50.4883 90.8605 50.5657 91.018 50.5905 91.1616C50.5905 91.3882 50.6264 91.7502 50.6983 92.2476C50.9718 93.7204 51.5411 95.3175 52.4087 97.039C53.0719 95.4114 53.4477 94.5162 53.5306 94.3504C53.981 93.3418 54.4922 92.3968 55.0614 91.5209C55.1084 91.3302 55.1913 91.087 55.3101 90.7914C55.5477 90.5178 55.8682 90.4045 56.2717 90.4543C56.5563 90.4902 56.9929 90.6974 57.5814 91.076C58.17 91.4573 58.4739 91.7336 58.4988 91.9132L58.4933 91.916Z" fill="black"/>
<path d="M73.1161 102.6C73.152 102.896 72.9503 103.454 72.5109 104.275C72.0467 105.128 71.6681 105.537 71.3725 105.501C71.016 105.454 70.2617 104.747 69.1094 103.382C67.8273 101.851 67.037 100.984 66.7414 100.782V104.059C66.7414 104.131 66.7773 104.255 66.8491 104.432C66.921 104.609 66.9624 104.742 66.9735 104.824C67.0343 105.3 66.932 105.606 66.6695 105.75C66.5507 105.822 66.3545 105.855 66.0809 105.855C65.5587 105.855 65.0475 105.756 64.5501 105.551C63.992 105.325 63.7129 105.065 63.7129 104.769V91.7351C63.7129 91.5113 63.7903 91.2571 63.945 90.978C64.0997 90.6989 64.2711 90.5249 64.4617 90.453C64.4976 90.442 64.5501 90.4337 64.622 90.4337C64.9646 90.4337 65.4565 90.5635 66.092 90.826C66.7275 91.0886 67.0729 91.3068 67.1337 91.4837C67.1586 91.5666 67.0978 92.0004 66.9569 92.7852C66.8021 93.6749 66.7248 94.3519 66.7248 94.8161C66.7248 94.9708 66.7303 95.1062 66.7441 95.2251L69.8057 90.5249C69.9826 90.2513 70.2092 90.1214 70.4827 90.1325C70.7812 90.1435 71.2177 90.3342 71.8008 90.7017C72.4529 91.1272 72.7872 91.5334 72.7983 91.912C72.7983 92.0198 72.323 92.6829 71.3725 93.907C70.1732 95.4268 69.2365 96.7669 68.5595 97.9302L72.1572 102.061C72.2401 102.155 72.4308 102.233 72.7264 102.293C72.9751 102.351 73.105 102.454 73.1188 102.597L73.1161 102.6Z" fill="black"/>
<path d="M85.1866 104.328C85.1756 104.436 85.1507 104.69 85.1148 105.094C85.101 105.306 85.054 105.467 84.9711 105.574C84.9131 105.61 84.8108 105.627 84.6671 105.627C84.2748 105.627 83.7885 105.527 83.2082 105.323C82.5782 105.132 82.1526 104.908 81.9261 104.646C81.8321 104.538 81.7354 104.182 81.6414 103.577C81.5116 102.781 81.3624 102.123 81.1966 101.601C80.7462 101.662 80.0858 101.825 79.2209 102.09C78.3532 102.355 77.7895 102.579 77.5298 102.756C77.3502 103.267 77.1126 103.897 76.8169 104.643C76.781 104.809 76.7423 104.966 76.7008 105.116C76.6594 105.265 76.5572 105.386 76.3886 105.48C76.3527 105.505 76.3002 105.516 76.2283 105.516C75.9437 105.516 75.4657 105.367 74.7942 105.071C74.1228 104.776 73.7746 104.58 73.7525 104.483C73.7055 104.317 73.8188 103.908 74.0924 103.256C74.4709 102.305 74.692 101.725 74.75 101.51C74.5013 101.261 74.377 101.012 74.377 100.761C74.377 100.7 74.3825 100.637 74.3963 100.565C74.4212 100.421 74.7804 100.167 75.4823 99.7993L77.7785 91.9463C77.8144 91.8053 77.8199 91.5428 77.7978 91.1643C77.773 90.8437 77.8089 90.642 77.9056 90.5591C77.9636 90.4983 78.1073 90.4707 78.3311 90.4707C78.8893 90.4707 79.6851 90.6116 80.7158 90.899C81.7492 91.1836 82.3654 91.4378 82.5671 91.6644C82.639 92.9824 82.9042 94.9581 83.3684 97.5942C83.9625 100.847 84.5677 103.09 85.1839 104.325L85.1866 104.328ZM80.5389 98.915C80.3842 98.1662 80.2902 97.6744 80.2543 97.4367C80.1245 96.6409 80.036 95.8175 79.9891 94.9609C79.7514 95.5439 79.4723 96.3508 79.1518 97.3815C78.8064 98.4619 78.624 99.1389 78.5992 99.4124C78.8257 99.3185 79.4723 99.1527 80.5389 98.915Z" fill="black"/>
<path d="M93.3916 93.4627C93.2976 93.4627 93.165 93.4241 92.9992 93.3467C92.8334 93.2693 92.6953 93.2417 92.5902 93.2665L90.7582 93.7639V103.131C90.7582 103.477 90.8411 103.85 91.0069 104.253C91.0539 104.372 91.0429 104.598 90.971 104.93C90.8992 105.298 90.7859 105.53 90.6339 105.624C90.609 105.635 90.551 105.643 90.4543 105.643C90.0619 105.643 89.5176 105.566 88.8157 105.411C88.031 105.234 87.5695 105.06 87.4258 104.894C87.26 104.681 87.2656 104.397 87.4452 104.04C87.5999 103.731 87.6773 103.507 87.6773 103.363V94.5487L86.4145 94.8692C86.3537 94.8803 86.257 94.93 86.1216 95.0212C85.9834 95.1096 85.8702 95.1428 85.7734 95.1179C85.4999 95.0461 85.1269 94.6951 84.6516 94.0596C84.1763 93.4241 83.9691 92.993 84.0271 92.7692C84.121 92.4956 84.4001 92.2884 84.8643 92.1447C84.9832 92.1088 85.1379 92.1032 85.3258 92.1281C85.5165 92.153 85.6657 92.153 85.7707 92.1281L91.9658 90.542C92.0238 90.531 92.1979 90.4591 92.4825 90.3293C92.6731 90.2464 92.8445 90.216 92.9992 90.2408C93.3308 90.2878 93.5574 90.4177 93.6762 90.6332C93.7591 90.7741 93.8475 91.0422 93.9442 91.4346C94.063 91.8988 94.1211 92.3022 94.1211 92.6448C94.1211 92.9046 94.0879 93.1035 94.0244 93.2417C93.958 93.3798 93.748 93.4517 93.3916 93.4627Z" fill="black"/>
<path d="M103.191 103.079C103.155 103.281 103.05 103.499 102.879 103.729C102.708 103.961 102.556 104.099 102.426 104.149C102.39 104.16 102.326 104.14 102.229 104.085C102.136 104.032 102.058 104.005 101.997 104.005C101.973 104.005 101.95 104.01 101.926 104.024C101.558 104.129 101.191 104.273 100.823 104.45C99.9443 104.853 99.1375 105.37 98.4025 106C97.2143 105.514 96.5677 105.246 96.4627 105.199C95.7249 104.878 95.3574 104.64 95.3574 104.486V91.0952C95.3574 91.0123 95.4983 90.8935 95.7774 90.7387C96.0565 90.584 96.261 90.5122 96.3909 90.526C96.5318 90.537 96.8192 90.631 97.2447 90.8023C97.673 90.9736 98.0211 91.0593 98.2947 91.0593C98.6512 91.0593 99.1126 90.899 99.6818 90.5785C100.204 90.269 100.53 90.1391 100.663 90.1861C100.947 90.2801 101.373 90.5923 101.937 91.1201C102.5 91.6506 102.804 92.0264 102.854 92.2502C102.879 92.358 102.768 92.5404 102.525 92.8029C102.282 93.0654 102.083 93.1952 101.928 93.1952C101.798 93.1952 101.702 93.1759 101.644 93.1427C101.583 93.1068 101.541 93.0958 101.519 93.1068C101.094 93.2008 100.696 93.3141 100.326 93.4467C99.447 93.7423 98.8004 94.0877 98.3859 94.4801V97.3815C98.8004 97.1687 99.342 96.9477 100.005 96.7238C100.196 96.699 100.594 96.9642 101.207 97.5169C101.821 98.0695 102.124 98.4508 102.124 98.6664C102.124 98.7962 102.042 98.951 101.876 99.1306C101.71 99.3074 101.55 99.4207 101.395 99.4677C101.276 99.4677 101.069 99.4787 100.771 99.5036C100.32 99.5865 99.5243 99.9651 98.3859 100.642V102.513C98.7423 102.3 99.2259 102.046 99.8366 101.756C100.447 101.465 100.826 101.319 100.967 101.319C101.133 101.319 101.553 101.576 102.221 102.093C102.893 102.609 103.216 102.938 103.191 103.079Z" fill="black"/>
<mask id="mask0_1380_2816" style="mask-type:luminance" maskUnits="userSpaceOnUse" x="35" y="24" width="59" height="58">
<path d="M64.4348 81.983C80.4464 81.983 93.4263 69.003 93.4263 52.9915C93.4263 36.9799 80.4464 24 64.4348 24C48.4233 24 35.4434 36.9799 35.4434 52.9915C35.4434 69.003 48.4233 81.983 64.4348 81.983Z" fill="white"/>
</mask>
<g mask="url(#mask0_1380_2816)">
<path d="M82.862 41.9521C82.3868 41.6039 81.801 41.3994 81.1682 41.3994C80.5354 41.3994 79.9413 41.6094 79.4633 41.9603L78.0292 45.0358C77.1477 45.5249 76.5592 46.4837 76.5592 47.5641C76.5592 47.752 76.5592 47.9371 76.5951 48.114L55.5644 93.2122C55.3019 93.7897 55.1582 94.4335 55.1582 95.1105C55.1582 96.3843 55.7053 97.567 56.5398 98.4014L79.9883 48.1195C79.9496 47.9316 79.933 47.7631 79.933 47.5641C79.933 46.4782 80.5327 45.5249 81.4252 45.0358L82.862 41.9521Z" fill="black"/>
<path d="M71.2363 45.0338L72.6704 41.9584C72.6317 41.7705 72.5986 41.5964 72.5986 41.3975C72.5986 40.3088 73.2148 39.3555 74.1073 38.8719L75.7542 35.3405C76.4892 33.7711 78.0863 32.7266 79.9321 32.7266C82.4798 32.7266 84.5439 34.7907 84.5439 37.3383C84.5439 37.8772 84.4527 38.3939 84.2814 38.8747C83.8061 38.5293 83.2341 38.3276 82.6014 38.3276C81.9686 38.3276 81.3635 38.5403 80.8854 38.8968L81.3358 37.9048C81.4132 37.7224 81.4574 37.5207 81.4574 37.3079C81.4574 36.4624 80.7721 35.7744 79.9238 35.7744C79.3159 35.7744 78.7909 36.1281 78.5422 36.6393L77.5005 38.8747C76.608 39.361 76.0001 40.3088 76.0001 41.3975C76.0001 41.5964 76.025 41.7705 76.0636 41.9584L74.6295 45.0366C74.1543 44.6884 73.5657 44.4812 72.9329 44.4812C72.3002 44.4812 71.7116 44.6857 71.2363 45.0338Z" fill="black"/>
<path d="M33.2974 48.1139H69.802C70.2772 47.763 70.8658 47.553 71.5041 47.553C72.1424 47.553 72.7254 47.7575 73.2007 48.1084H76.5967C76.5635 47.9343 76.5608 47.7464 76.5608 47.5613C76.5608 46.4809 77.1493 45.5248 78.0308 45.0329H74.6348C74.1595 44.6848 73.571 44.4775 72.9382 44.4775C72.3054 44.4775 71.7169 44.682 71.2416 45.0302H28.9453C29.5753 46.8263 31.2857 48.1111 33.2974 48.1111V48.1139Z" fill="black"/>
<path d="M65.8869 41.9481L64.4473 45.0374C63.5576 45.5237 62.9662 46.4743 62.9662 47.5602C62.9662 47.7481 62.9801 47.9332 63.016 48.1101L46.3428 83.8686C46.0665 84.46 45.9062 85.1176 45.9062 85.8139C45.9062 88.3616 47.9704 90.4257 50.518 90.4257C52.3887 90.4257 54.0135 89.3204 54.7374 87.7205L73.2094 48.1101C72.7341 47.7619 72.1483 47.5547 71.5128 47.5547C70.8773 47.5547 70.286 47.7619 69.8107 48.1156L51.9134 86.4937C51.6675 87.0076 51.1397 87.3641 50.5318 87.3641C49.6863 87.3641 48.9983 86.6788 48.9983 85.8305C48.9983 85.5929 49.0425 85.3608 49.1392 85.159L66.4064 48.1322C66.3677 47.9443 66.365 47.7592 66.365 47.5602C66.365 46.477 66.9618 45.5348 67.846 45.0457L69.2884 41.9537C68.8132 41.6027 68.2246 41.3955 67.5863 41.3955C66.948 41.3955 66.3677 41.6 65.8952 41.9481H65.8869Z" fill="black"/>
<path d="M65.8867 41.956C66.362 41.6079 66.945 41.3979 67.5778 41.3979C68.2106 41.3979 68.8019 41.6051 69.2799 41.956H72.6759C72.6372 41.7709 72.6041 41.5941 72.6041 41.3979C72.6041 40.3092 73.2202 39.3559 74.1128 38.8723H70.714C70.2747 38.5103 69.606 38.3252 69.0119 38.3252C68.3791 38.3252 67.7933 38.5241 67.3181 38.8723L65.8867 41.956Z" fill="black"/>
<path d="M65.8855 41.9535L27.1372 41.9452C24.5895 41.9452 22.5254 39.8811 22.5254 37.3335C22.5254 34.7858 24.5895 32.7217 27.1372 32.7217H66.3691C68.9167 32.7217 70.9808 34.7913 70.9808 37.3362C70.9808 37.8778 70.8841 38.3945 70.7156 38.8753C70.2762 38.5133 69.6075 38.3199 69.0134 38.3199C68.3807 38.3199 67.7949 38.5189 67.3196 38.867L67.7368 37.9828C67.8142 37.8004 67.8695 37.549 67.8695 37.3362C67.8695 36.4907 67.1842 35.7971 66.3359 35.7971H27.1234C26.2778 35.7971 25.5898 36.4907 25.5898 37.3362C25.5898 38.1818 26.2751 38.8753 27.1234 38.8753L67.3168 38.867" fill="black"/>
<path d="M84.2888 48.1111L79.9865 48.1167C79.9478 47.9288 79.9312 47.7602 79.9312 47.5613C79.9312 46.4753 80.5308 45.522 81.4233 45.0329H84.2998C85.1454 45.0329 85.8334 44.3283 85.8334 43.48C85.8334 42.6317 85.1481 41.9464 84.2998 41.9464H82.8602C82.3849 41.5983 81.7991 41.3938 81.1664 41.3938C80.5336 41.3938 79.9395 41.6038 79.4615 41.9547L76.0655 41.9437C76.0268 41.7558 76.002 41.59 76.002 41.391C76.002 40.3023 76.6099 39.3546 77.5024 38.8682L80.89 38.8876C81.3681 38.5284 81.9622 38.3184 82.606 38.3184C83.2498 38.3184 83.8218 38.5228 84.2943 38.8682C86.842 38.8682 88.8978 40.9379 88.8978 43.4855C88.8978 46.0332 86.8337 48.0973 84.286 48.0973" fill="black"/>
<path d="M65.8884 41.9538L67.4275 39.1271L67.3197 38.8701L35.2832 38.8756V41.9456L65.8884 41.9538Z" fill="black"/>
<path d="M64.4347 26.3751C79.1405 26.3751 91.0609 38.2956 91.0609 53.0013C91.0609 67.7071 79.1405 79.6275 64.4347 79.6275C49.729 79.6275 37.8086 67.7071 37.8086 53.0013C37.8086 38.2956 49.729 26.3751 64.4347 26.3751ZM64.4347 23.9463C48.411 23.9463 35.377 36.9803 35.377 53.0041C35.377 69.0279 48.411 82.0619 64.4347 82.0619C80.4585 82.0619 93.4925 69.0279 93.4925 53.0041C93.4925 36.9803 80.4558 23.9463 64.4347 23.9463Z" fill="black"/>
</g>
</svg>
