<svg width="130" height="130" viewBox="0 0 130 130" fill="none" xmlns="http://www.w3.org/2000/svg">
<path d="M77.0678 44.7323C81.5995 44.7323 85.273 48.4102 85.273 52.9419C85.273 55.893 83.7143 58.4806 81.3806 59.9255C84.1478 60.6217 86.6566 61.9658 88.7364 63.796C91.3809 60.95 93.001 57.1364 93.001 52.9419C93.001 44.1368 85.8685 37 77.0678 37H63.6567H52.75V42.9503C52.75 43.9354 53.5469 44.7367 54.532 44.7367H77.0678V44.7323Z" fill="#003E4B"/>
<path d="M77.0678 61.1514H65.0009V68.8837H77.0678C81.5995 68.8837 85.273 72.5572 85.273 77.0933C85.273 81.6293 81.5995 85.3028 77.0678 85.3028H54.532C53.5469 85.3028 52.75 86.1041 52.75 87.0892V93.0395H63.6567H77.0678C85.8685 93.0395 93.001 85.9027 93.001 77.0976C93.001 68.2926 85.8685 61.1557 77.0678 61.1557V61.1514Z" fill="#003E4B"/>
<path d="M50.9979 40.24V37.902C50.9979 37.4028 50.595 37 50.1003 37H37.902C37.4028 37 37 37.4028 37 37.902V40.2444C37 40.7436 37.4028 41.1464 37.902 41.1464H39.0929C38.7339 41.1464 38.4449 41.4354 38.4449 41.7944V42.565C38.4449 42.924 38.7339 43.213 39.0929 43.213H41.8732C40.8705 43.213 40.0561 44.0274 40.0561 45.0344V85.0052C40.0561 86.0122 40.8705 86.8266 41.8732 86.8266H39.0929C38.7339 86.8266 38.4449 87.1156 38.4449 87.4746V88.2452C38.4449 88.6042 38.7339 88.8932 39.0929 88.8932H37.902C37.4028 88.8932 37 89.296 37 89.7952V92.1376C37 92.6368 37.4028 93.0396 37.902 93.0396H50.1003C50.5994 93.0396 51.0022 92.6368 51.0022 92.1376V89.7952C51.0022 89.296 50.5994 88.8932 50.1003 88.8932H48.9093C49.2684 88.8932 49.5574 88.6042 49.5574 88.2452V87.4746C49.5574 87.1156 49.2684 86.8266 48.9093 86.8266H46.129C47.1317 86.8266 47.9461 86.0122 47.9461 85.0052V45.0344C47.9461 44.0274 47.1317 43.213 46.129 43.213H48.9093C49.2684 43.213 49.5574 42.924 49.5574 42.565V41.7944C49.5574 41.4354 49.2684 41.1464 48.9093 41.1464H50.1003C50.5994 41.1464 51.0022 40.7436 51.0022 40.2444L50.9979 40.24Z" fill="#003E4B"/>
<path d="M63.2484 68.8658V61.1729L56.5888 57.3242L49.9336 61.1729V68.8658L56.5888 72.7144L63.2484 68.8658Z" fill="#003E4B"/>
</svg>
