<svg width="130" height="130" viewBox="0 0 130 130" fill="none" xmlns="http://www.w3.org/2000/svg">
<g clip-path="url(#clip0_1380_1288)">
<path d="M77.0665 44.7262C81.5916 44.7262 85.2673 48.399 85.2673 52.9352C85.2673 55.891 83.715 58.4664 81.3719 59.9151C84.1397 60.6028 86.6439 61.949 88.7234 63.7782C91.374 60.9394 92.9849 57.1202 92.9849 52.9352C92.9995 44.1262 85.8677 37 77.0665 37H52.7422V42.9409C52.7422 43.9213 53.5476 44.7262 54.5288 44.7262H77.0665Z" fill="black"/>
<path d="M77.0665 61.1299H64.9995V68.856H77.0665C81.5916 68.856 85.2673 72.5289 85.2673 77.0651C85.2673 81.6013 81.5916 85.2741 77.0665 85.2741H54.5288C53.5476 85.2741 52.7422 86.0789 52.7422 87.0593V93.0003H77.0665C85.8677 93.0003 92.9995 85.8741 92.9995 77.0651C92.9995 68.2561 85.8677 61.1299 77.0665 61.1299Z" fill="black"/>
<path d="M51 40.2339V37.9072C51 37.4097 50.59 37 50.092 37H37.9079C37.41 37 37 37.4097 37 37.9072V40.2485C37 40.746 37.41 41.1557 37.9079 41.1557H39.0941C38.7427 41.1557 38.4498 41.4484 38.4498 41.7996V42.5751C38.4498 42.9263 38.7427 43.219 39.0941 43.219H41.8766C40.8661 43.219 40.0607 44.0384 40.0607 45.0334V84.9665C40.0607 85.9762 40.8808 86.781 41.8766 86.781H39.0941C38.7427 86.781 38.4498 87.0737 38.4498 87.4249V88.2004C38.4498 88.5516 38.7427 88.8443 39.0941 88.8443H37.9079C37.41 88.8443 37 89.254 37 89.7515V92.0928C37 92.5903 37.41 93 37.9079 93H50.092C50.59 93 51 92.5903 51 92.0928V89.7515C51 89.254 50.59 88.8443 50.092 88.8443H48.9059C49.2573 88.8443 49.5502 88.5516 49.5502 88.2004V87.4249C49.5502 87.0591 49.2573 86.781 48.9059 86.781H46.1234C47.1339 86.781 47.9393 85.9616 47.9393 84.9665V45.0334C47.9393 44.0238 47.1192 43.219 46.1234 43.219H48.9059C49.2573 43.219 49.5502 42.9263 49.5502 42.5751V41.7996C49.5502 41.4338 49.2573 41.1557 48.9059 41.1557H50.092C50.59 41.1557 51 40.746 51 40.2485V40.2339Z" fill="black"/>
<path d="M63.2434 68.8412V61.159L56.5948 57.3105L49.9316 61.159V68.8412L56.5948 72.6897L63.2434 68.8412Z" fill="black"/>
</g>
<defs>
<clipPath id="clip0_1380_1288">
<rect width="56" height="56" fill="white" transform="translate(37 37)"/>
</clipPath>
</defs>
</svg>
