<svg width="130" height="130" viewBox="0 0 130 130" fill="none" xmlns="http://www.w3.org/2000/svg">
<path d="M50.5742 74.9168C48.8675 74.9168 47.5274 74.2549 46.5539 72.9277C45.5805 71.6039 45.0938 69.7673 45.0938 67.418C45.0938 65.0688 45.5902 63.1803 46.5799 61.8499C47.5728 60.5196 48.9389 59.8544 50.6781 59.8544C52.5049 59.8544 53.9002 60.565 54.8606 61.9862H54.9904C54.7893 60.9025 54.6919 59.9388 54.6919 59.0886V54.4355H58.6668V74.654H55.6264L54.8606 72.7687H54.6919C53.7899 74.1965 52.4173 74.9136 50.5742 74.9136V74.9168ZM51.963 71.7596C52.9754 71.7596 53.7185 71.4643 54.1922 70.877C54.6627 70.2897 54.9223 69.2871 54.9645 67.8756V67.4473C54.9645 65.8897 54.7244 64.7703 54.2441 64.0954C53.7639 63.4204 52.9819 63.083 51.8981 63.083C51.0155 63.083 50.3276 63.4594 49.8377 64.2057C49.3477 64.9552 49.1043 66.0455 49.1043 67.4732C49.1043 68.9009 49.3509 69.975 49.8442 70.6888C50.3374 71.4027 51.0447 71.7596 51.963 71.7596Z" fill="#009FDD"/>
<path d="M73.1055 74.6572L72.5733 72.798H72.3656C71.9406 73.4729 71.3403 73.9953 70.5583 74.362C69.7795 74.7286 68.8904 74.9136 67.8943 74.9136C66.1875 74.9136 64.9026 74.4561 64.0362 73.541C63.1698 72.626 62.7383 71.3118 62.7383 69.5986V60.127H66.7002V68.6121C66.7002 69.6602 66.8852 70.4455 67.2583 70.9711C67.6315 71.4968 68.2253 71.7564 69.0397 71.7564C70.1494 71.7564 70.9509 71.3865 71.4441 70.6466C71.9373 69.9068 72.1839 68.677 72.1839 66.9638V60.1302H76.1459V74.6572H73.1055Z" fill="#009FDD"/>
<path d="M86.4223 71.7605C87.1167 71.7605 87.9474 71.608 88.9176 71.3062V74.2557C87.9311 74.697 86.7176 74.9177 85.2801 74.9177C83.6934 74.9177 82.5415 74.5153 81.8179 73.7171C81.0943 72.9156 80.7342 71.715 80.7342 70.1121V63.1098H78.8359V61.4322L81.0197 60.1083L82.1619 57.042H84.6961V60.1343H88.7618V63.1098H84.6961V70.1121C84.6961 70.6767 84.8551 71.092 85.1698 71.3581C85.4846 71.6274 85.9031 71.7605 86.4223 71.7605Z" fill="#009FDD"/>
<path d="M98.4305 74.9179C96.091 74.9179 94.2642 74.2722 92.9468 72.9807C91.6294 71.6893 90.9707 69.8625 90.9707 67.497C90.9707 65.1315 91.5775 63.1814 92.7975 61.851C94.0143 60.5207 95.6984 59.8555 97.8465 59.8555C99.9945 59.8555 101.497 60.4395 102.642 61.6109C103.784 62.779 104.359 64.395 104.359 66.4587V68.3828H94.991C95.0332 69.5088 95.3674 70.3881 95.9904 71.0209C96.6134 71.6536 97.4895 71.9684 98.6155 71.9684C99.4916 71.9684 100.319 71.8775 101.098 71.6958C101.877 71.5141 102.691 71.2221 103.541 70.8262V73.8925C102.847 74.2397 102.107 74.4961 101.318 74.6648C100.53 74.8335 99.5695 74.9179 98.4338 74.9179H98.4305ZM97.8724 62.6785C97.032 62.6785 96.3733 62.9445 95.8963 63.4767C95.4193 64.0088 95.1468 64.7649 95.0786 65.7448H100.64C100.624 64.7649 100.368 64.0088 99.8745 63.4767C99.3813 62.9445 98.7128 62.6785 97.8724 62.6785Z" fill="#009FDD"/>
<path d="M111.384 66.7561L113.114 64.5464L117.18 60.1269H121.651L115.882 66.4284L122.001 74.654H117.426L113.244 68.7679L111.54 70.1307V74.654H107.578V54.4355H111.54V63.4529L111.332 66.7529H111.384V66.7561Z" fill="#009FDD"/>
<path d="M30.7543 54.4385C25.0986 54.4385 20.5137 59.0234 20.5137 64.6791C20.5137 70.3348 25.0986 74.9197 30.7543 74.9197C34.103 74.9197 37.0784 73.3103 38.9475 70.8248H30.7575C28.0838 70.8248 25.806 69.1148 24.9623 66.7298C24.7352 66.0906 24.6119 65.3995 24.6119 64.6824C24.6119 63.9653 24.7352 63.2741 24.9623 62.6349C25.806 60.2499 28.0806 58.5399 30.7575 58.5399C33.4345 58.5399 35.7091 60.2499 36.5528 62.6349C36.5528 62.6349 33.6552 62.6349 30.7575 62.6349C29.6251 62.6349 28.7101 63.5532 28.7101 64.6824C28.7101 65.8116 29.6284 66.7298 30.7575 66.7298H40.7905C40.9236 66.0679 40.9949 65.3832 40.9949 64.6824C40.9949 59.0266 36.41 54.4417 30.7543 54.4417V54.4385Z" fill="#009FDD"/>
<path d="M10.2673 60.6235L11.1305 60.9805C11.9774 61.3309 12.4673 62.1843 12.3927 63.0507L12.4024 63.0247C12.383 63.2324 12.37 63.44 12.3603 63.651H16.4617C16.9646 56.5513 22.6333 50.8826 29.733 50.3797V46.2782C29.5253 46.2912 29.3144 46.3042 29.1067 46.3204L29.1327 46.3107C28.2663 46.3853 27.4129 45.8953 27.0625 45.0484L26.7056 44.1853C26.274 43.1405 25.0734 42.644 24.0286 43.0756L20.2451 44.6428C19.2003 45.0744 18.7039 46.275 19.1354 47.3198L19.4924 48.1829C19.8428 49.0298 19.5865 49.9806 18.918 50.5387L18.9407 50.5289C18.0971 51.2331 17.3183 52.0118 16.6142 52.8555L16.6239 52.8327C16.0658 53.4979 15.1151 53.7575 14.2682 53.4071L13.4051 53.0501C12.3603 52.6186 11.1629 53.115 10.7281 54.1599L9.15762 57.9498C8.72606 58.9946 9.22252 60.192 10.2673 60.6268V60.6235Z" fill="#1E4381"/>
<path d="M29.731 83.0739V78.9725C22.6314 78.4695 16.9627 72.8008 16.4597 65.7012H12.3583C12.3713 65.9088 12.3843 66.1198 12.4005 66.3274L12.3907 66.3015C12.4654 67.1678 11.9754 68.0212 11.1285 68.3717L10.2654 68.7286C9.22056 69.1601 8.72411 70.3607 9.15567 71.4056L10.7229 75.189C11.1545 76.2338 12.3551 76.7303 13.3999 76.2987L14.263 75.9418C15.1099 75.5914 16.0606 75.8477 16.6187 76.5161L16.609 76.4934C17.3131 77.3371 18.0919 78.1158 18.9355 78.82L18.9128 78.8102C19.578 79.3683 19.8376 80.3191 19.4872 81.166L19.1302 82.0291C18.6987 83.0739 19.1951 84.2712 20.24 84.706L24.0234 86.2733C25.0682 86.7049 26.2656 86.2084 26.7004 85.1636L27.0573 84.3004C27.4077 83.4535 28.2611 82.9636 29.1275 83.0382L29.1015 83.0285C29.3092 83.0479 29.5169 83.0609 29.7278 83.0707L29.731 83.0739Z" fill="#1E4381"/>
<path d="M43.7832 77.7072L40.8855 74.8096C38.5168 77.1783 35.3272 78.7196 31.7773 78.9694V83.0709C31.985 83.0579 32.1959 83.0449 32.4036 83.0287L32.3776 83.0384C33.244 82.9638 34.0974 83.4538 34.4478 84.3007L34.8048 85.1638C35.2363 86.2086 36.4369 86.7051 37.4817 86.2735L41.2652 84.7063C42.31 84.2747 42.8065 83.0741 42.3749 82.0293L42.018 81.1662C41.6675 80.3193 41.9239 79.3685 42.5923 78.8104L42.5696 78.8202C42.9914 78.4665 43.397 78.0966 43.7864 77.7072H43.7832Z" fill="#1E4381"/>
<path d="M43.7832 51.6487C43.3938 51.2594 42.9882 50.8894 42.5664 50.5358L42.5891 50.5455C41.9239 49.9874 41.6643 49.0367 42.0147 48.1898L42.3717 47.3266C42.8032 46.2818 42.3068 45.0845 41.2619 44.6497L37.4817 43.0824C36.4369 42.6509 35.2396 43.1473 34.8048 44.1922L34.4478 45.0553C34.0974 45.9022 33.244 46.3921 32.3776 46.3175L32.4036 46.3272C32.1959 46.3078 31.9883 46.2948 31.7773 46.2851V50.3865C35.3272 50.6364 38.5201 52.1809 40.8855 54.5464L43.7832 51.6487Z" fill="#1E4381"/>
</svg>
