<svg width="130" height="130" viewBox="0 0 130 130" fill="none" xmlns="http://www.w3.org/2000/svg">
<path d="M21.0894 79.8665C19.5314 79.4056 18.0835 78.6942 16.781 77.7874C12.8734 75.0571 10.3134 70.5283 10.3134 65.3983C10.3134 60.2683 12.8734 55.7445 16.781 53.0142V64.6769H34.0246V56.3507C32.7972 55.1834 31.3343 54.2566 29.7162 53.6604V60.3885H21.0944V46.4814C19.5815 46.8271 18.1386 47.3431 16.786 48.0194C10.3885 51.1906 6 57.7835 6 65.4033C6 73.0231 10.3885 79.611 16.776 82.7822C18.1286 83.4585 19.5764 83.9795 21.0844 84.3201C22.4721 84.6308 23.9149 84.8011 25.3978 84.8011C25.9789 84.8011 26.55 84.776 27.1211 84.7209V80.3875C26.555 80.4526 25.9789 80.4877 25.3978 80.4877C23.8999 80.4877 22.452 80.2673 21.0844 79.8615" fill="black"/>
<path d="M34.019 48.0189C32.6663 47.3426 31.2185 46.8216 29.7106 46.4809C28.3229 46.1653 26.8801 46 25.4022 46C24.8211 46 24.2449 46.025 23.6788 46.0802V50.4136C24.2449 50.3485 24.8211 50.3134 25.4022 50.3134C26.9001 50.3134 28.3479 50.5338 29.7106 50.9396C31.2686 51.4005 32.7214 52.1069 34.019 53.0187C37.9266 55.744 40.4866 60.2778 40.4866 65.4028C40.4866 70.5278 37.9266 75.0616 34.019 77.7869V66.1192H16.7754V74.4504C18.0028 75.6177 19.4656 76.5445 21.0838 77.1407V70.4426H29.7056V84.3246C31.2185 83.979 32.6613 83.463 34.014 82.7867C40.4014 79.6155 44.79 73.0226 44.79 65.4028C44.79 57.783 40.4014 51.1951 34.014 48.0239" fill="black"/>
<path d="M55.8208 66.3044V72.8922H51.4824C50.6107 72.8922 49.9043 72.1858 49.9043 71.3141V55.2178H55.8258V61.5852H66.7922V55.2178H72.7137V72.8922H68.3753C67.5036 72.8922 66.7972 72.1858 66.7972 71.3141V66.3044H55.8308H55.8208Z" fill="black"/>
<path d="M81.6724 66.3044V72.8922H77.3339C76.4622 72.8922 75.7559 72.1858 75.7559 71.3141V55.2178H81.6774V61.5852H92.6438V55.2178H98.5653V72.8922H94.2268C93.3551 72.8922 92.6488 72.1858 92.6488 71.3141V66.3044H81.6824H81.6724Z" fill="black"/>
<path d="M123.929 57.5426C123.929 58.6597 123.022 59.5615 121.91 59.5615H108.85C108.279 59.5615 107.863 59.6517 107.607 59.832C107.352 60.0124 107.222 60.2278 107.222 60.4833V67.542C107.222 67.9578 107.332 68.2334 107.552 68.3586C107.773 68.4889 108.204 68.549 108.85 68.549H116.75C117.336 68.549 117.757 68.4538 118.013 68.2684C118.268 68.0831 118.398 67.8376 118.398 67.537V65.5081H112.933V62.1816H123.999V68.2334C123.999 68.9648 123.919 69.576 123.764 70.067C123.609 70.5579 123.328 71.0038 122.922 71.4046C122.526 71.7753 122.096 72.0658 121.62 72.2662C121.149 72.4666 120.558 72.6169 119.846 72.7171C119.135 72.8173 118.268 72.8824 117.236 72.9075C116.209 72.9375 114.721 72.9526 112.772 72.9526C110.824 72.9526 109.341 72.9375 108.319 72.9075C107.297 72.8774 106.435 72.8123 105.734 72.7171C105.032 72.6169 104.456 72.4666 104.005 72.2662C103.555 72.0658 103.139 71.7753 102.758 71.4046C102.307 71.0188 102.006 70.5779 101.841 70.087C101.676 69.596 101.596 68.9798 101.596 68.2334V60.0975C101.596 58.4944 102.077 57.277 103.034 56.4504C103.99 55.6238 105.453 55.208 107.412 55.208H123.924V57.5325L123.929 57.5426Z" fill="black"/>
<path d="M53.297 76.685H52.0646V80.0415H51.233V76.685H50.0156V76.0137H53.297V76.685Z" fill="black"/>
<path d="M53.0167 78.5183C53.0167 78.2227 53.0718 77.9572 53.1871 77.7217C53.3023 77.4913 53.4676 77.3109 53.683 77.1807C53.8984 77.0554 54.1489 76.9903 54.4295 76.9903C54.8353 76.9903 55.1609 77.1155 55.4164 77.361C55.6719 77.6065 55.8122 77.9422 55.8422 78.368V78.5734C55.8472 79.0343 55.717 79.4 55.4615 79.6805C55.206 79.9561 54.8603 80.0963 54.4295 80.0963C53.9986 80.0963 53.653 79.9561 53.3975 79.6805C53.142 79.405 53.0117 79.0293 53.0117 78.5533V78.5183H53.0167ZM55.4916 76.5645V76.5995H54.8553L54.4295 76.1988L54.0037 76.5995H53.3774V76.5545L54.194 75.793H54.6599L55.4916 76.5645ZM53.8183 78.5734C53.8183 78.8589 53.8734 79.0744 53.9786 79.2247C54.0838 79.3749 54.2391 79.4501 54.4395 79.4501C54.6399 79.4501 54.7852 79.3749 54.8954 79.2247C55.0056 79.0744 55.0607 78.8389 55.0607 78.5133C55.0607 78.2327 55.0056 78.0173 54.8954 77.862C54.7852 77.7067 54.6349 77.6315 54.4345 77.6315C54.2341 77.6315 54.0888 77.7067 53.9786 77.862C53.8734 78.0123 53.8183 78.2528 53.8183 78.5684V78.5734Z" fill="black"/>
<path d="M57.0787 77.0502L57.1038 77.3959C57.3192 77.1304 57.6048 76.9951 57.9655 76.9951C58.2811 76.9951 58.5165 77.0903 58.6718 77.2757C58.8271 77.461 58.9073 77.7416 58.9073 78.1123V80.0461H58.1057V78.1323C58.1057 77.962 58.0707 77.8418 57.9955 77.7616C57.9204 77.6815 57.8001 77.6464 57.6298 77.6464C57.4044 77.6464 57.234 77.7416 57.1238 77.9319V80.041H56.3223V77.0452H57.0737L57.0787 77.0502Z" fill="black"/>
<path d="M62.049 79.0648L62.605 77.0459H63.4417L62.4297 80.0417H61.6682L60.6562 77.0459H61.4929L62.049 79.0648Z" fill="black"/>
<path d="M63.7882 76.2741C63.7882 76.1538 63.8283 76.0537 63.9084 75.9785C63.9886 75.9034 64.0988 75.8633 64.2391 75.8633C64.3794 75.8633 64.4846 75.9034 64.5647 75.9785C64.6449 76.0587 64.685 76.1538 64.685 76.2741C64.685 76.3943 64.6449 76.4945 64.5597 76.5747C64.4796 76.6548 64.3693 76.6899 64.2341 76.6899C64.0988 76.6899 63.9886 76.6498 63.9084 76.5747C63.8283 76.4995 63.7832 76.3993 63.7832 76.2741H63.7882ZM64.6399 80.0414H63.8383V77.0456H64.6399V80.0414Z" fill="black"/>
<path d="M66.0319 77.0502L66.0569 77.3959C66.2723 77.1304 66.5579 76.9951 66.9186 76.9951C67.2342 76.9951 67.4697 77.0903 67.625 77.2757C67.7803 77.461 67.8604 77.7416 67.8604 78.1123V80.0461H67.0589V78.1323C67.0589 77.962 67.0238 77.8418 66.9487 77.7616C66.8735 77.6815 66.7533 77.6464 66.5829 77.6464C66.3575 77.6464 66.1872 77.7416 66.077 77.9319V80.041H65.2754V77.0452H66.0269L66.0319 77.0502Z" fill="black"/>
<path d="M69.2527 77.3759C69.4631 77.1204 69.7337 76.9952 70.0543 76.9952C70.7056 76.9952 71.0312 77.3709 71.0412 78.1274V80.0461H70.2397V78.1524C70.2397 77.9821 70.2046 77.8519 70.1294 77.7717C70.0543 77.6915 69.9341 77.6465 69.7637 77.6465C69.5283 77.6465 69.3579 77.7366 69.2527 77.917V80.0461H68.4512V75.7979H69.2527V77.3809V77.3759Z" fill="black"/>
<path d="M74.172 79.0648L74.7281 77.0459H75.5647L74.5527 80.0417H73.7913L72.7793 77.0459H73.6159L74.172 79.0648Z" fill="black"/>
<path d="M77.2574 80.096C76.8166 80.096 76.4609 79.9607 76.1853 79.6902C75.9098 79.4197 75.7695 79.064 75.7695 78.6131V78.5379C75.7695 78.2374 75.8296 77.9668 75.9449 77.7314C76.0601 77.4959 76.2254 77.3106 76.4408 77.1853C76.6563 77.0601 76.8967 76.9949 77.1723 76.9949C77.5831 76.9949 77.9037 77.1252 78.1391 77.3807C78.3746 77.6412 78.4898 78.0069 78.4898 78.4778V78.8035H76.5811C76.6062 78.9988 76.6863 79.1541 76.8166 79.2744C76.9468 79.3946 77.1121 79.4497 77.3125 79.4497C77.6231 79.4497 77.8636 79.3395 78.0339 79.1141L78.4247 79.5549C78.3045 79.7253 78.1442 79.8555 77.9388 79.9507C77.7334 80.0459 77.5079 80.091 77.2574 80.091V80.096ZM77.1673 77.6362C77.0069 77.6362 76.8817 77.6913 76.7815 77.7965C76.6813 77.9017 76.6212 78.057 76.5911 78.2574H77.7033V78.1923C77.7033 78.0169 77.6532 77.8767 77.558 77.7815C77.4628 77.6863 77.3326 77.6362 77.1673 77.6362ZM76.7765 76.5391L76.7364 76.1683C76.8717 76.1633 76.9669 76.1433 77.027 76.1182C77.0871 76.0932 77.1172 76.0481 77.1172 75.988C77.1172 75.8627 76.9869 75.7976 76.7264 75.7976L76.7464 75.4219C77.0921 75.4219 77.3526 75.472 77.533 75.5672C77.7133 75.6623 77.7985 75.7926 77.7985 75.9629C77.7985 76.0731 77.7584 76.1583 77.6833 76.2284C77.6081 76.2986 77.5079 76.3437 77.3827 76.3587V76.534H76.7815L76.7765 76.5391Z" fill="black"/>
<path d="M83.3666 76.6746H82.9307V80.0461H82.2093L82.1692 79.7255C81.9689 79.976 81.7134 80.1012 81.3977 80.1012C81.0471 80.1012 80.7615 79.961 80.5511 79.6854C80.3407 79.4099 80.2305 79.0241 80.2305 78.5282C80.2305 78.0623 80.3357 77.6915 80.5461 77.411C80.7565 77.1355 81.042 76.9952 81.4028 76.9952C81.6933 76.9952 81.9338 77.1054 82.1242 77.3208V76.6746H81.4278V76.1686H82.1242V75.7979H82.9257V76.1686H83.3616V76.6746H83.3666ZM81.032 78.5833C81.032 78.8638 81.0821 79.0792 81.1773 79.2295C81.2725 79.3798 81.4178 79.455 81.6031 79.455C81.8486 79.455 82.024 79.3498 82.1242 79.1394V77.9571C82.024 77.7466 81.8536 77.6414 81.6082 77.6414C81.2224 77.6414 81.032 77.9571 81.032 78.5833Z" fill="black"/>
<path d="M85.3043 80.0962C84.8634 80.0962 84.5078 79.9609 84.2322 79.6904C83.9567 79.4198 83.8164 79.0641 83.8164 78.6133V78.5381C83.8164 78.2375 83.8765 77.967 83.9917 77.7316C84.107 77.4961 84.2723 77.3107 84.4877 77.1855C84.7031 77.0602 84.9436 76.9951 85.2191 76.9951C85.6299 76.9951 85.9506 77.1254 86.186 77.3809C86.4215 77.6414 86.5367 78.0071 86.5367 78.478V78.8036H84.628C84.653 78.999 84.7332 79.1543 84.8634 79.2746C84.9937 79.3948 85.159 79.4499 85.3594 79.4499C85.67 79.4499 85.9105 79.3397 86.0808 79.1142L86.4716 79.5551C86.3513 79.7254 86.191 79.8557 85.9856 79.9509C85.7802 80.0461 85.5548 80.0911 85.3043 80.0911V80.0962ZM85.2141 77.6364C85.0538 77.6364 84.9286 77.6915 84.8284 77.7967C84.7282 77.9019 84.6681 78.0572 84.638 78.2576H85.7502V78.1925C85.7502 78.0171 85.7001 77.8768 85.6049 77.7816C85.5097 77.6865 85.3794 77.6364 85.2141 77.6364ZM84.7482 80.6873C84.7482 80.5771 84.7883 80.4869 84.8735 80.4118C84.9586 80.3416 85.0638 80.3016 85.1941 80.3016C85.3243 80.3016 85.4346 80.3366 85.5197 80.4118C85.5999 80.4819 85.645 80.5771 85.645 80.6873C85.645 80.7975 85.6049 80.8877 85.5197 80.9628C85.4396 81.038 85.3294 81.0731 85.1941 81.0731C85.0588 81.0731 84.9536 81.038 84.8685 80.9628C84.7883 80.8877 84.7482 80.7975 84.7482 80.6873Z" fill="black"/>
<path d="M89.6874 78.5732C89.6874 79.0341 89.5822 79.4048 89.3718 79.6803C89.1614 79.9559 88.8809 80.0962 88.5252 80.0962C88.2246 80.0962 87.9791 79.991 87.7938 79.7805V81.1933H86.9922V77.0502H87.7336L87.7637 77.3458C87.9591 77.1154 88.2096 76.9951 88.5202 76.9951C88.8909 76.9951 89.1764 77.1304 89.3818 77.4059C89.5872 77.6815 89.6874 78.0572 89.6874 78.5331V78.5732ZM88.8859 78.5131C88.8859 78.2325 88.8358 78.0221 88.7356 77.8668C88.6354 77.7165 88.4951 77.6414 88.3047 77.6414C88.0543 77.6414 87.8789 77.7366 87.7887 77.9269V79.1543C87.8839 79.3497 88.0593 79.4499 88.3098 79.4499C88.6905 79.4499 88.8809 79.1393 88.8809 78.5131H88.8859Z" fill="black"/>
<path d="M92.3287 77.0502L92.3538 77.3959C92.5692 77.1304 92.8548 76.9951 93.2155 76.9951C93.5311 76.9951 93.7665 77.0903 93.9218 77.2757C94.0771 77.461 94.1573 77.7416 94.1573 78.1123V80.0461H93.3557V78.1323C93.3557 77.962 93.3207 77.8418 93.2455 77.7616C93.1704 77.6815 93.0501 77.6464 92.8798 77.6464C92.6544 77.6464 92.484 77.7416 92.3738 77.9319V80.041H91.5723V77.0452H92.3237L92.3287 77.0502Z" fill="black"/>
<path d="M94.6484 78.5231C94.6484 78.0622 94.7587 77.6965 94.9791 77.4159C95.1995 77.1354 95.4901 76.9951 95.8608 76.9951C96.1914 76.9951 96.4469 77.1053 96.6273 77.3308L96.6624 77.0502H97.3888V79.9459C97.3888 80.2064 97.3287 80.4368 97.2084 80.6272C97.0882 80.8226 96.9229 80.9679 96.7074 81.0681C96.492 81.1682 96.2365 81.2183 95.951 81.2183C95.7305 81.2183 95.5151 81.1733 95.3097 81.0881C95.1043 81.0029 94.944 80.8877 94.8388 80.7474L95.1945 80.2615C95.3949 80.4869 95.6354 80.5971 95.9209 80.5971C96.1313 80.5971 96.2966 80.542 96.4169 80.4268C96.5371 80.3116 96.5922 80.1513 96.5922 79.9459V79.7856C96.4069 79.996 96.1664 80.0962 95.8658 80.0962C95.5051 80.0962 95.2145 79.9559 94.9941 79.6753C94.7737 79.3948 94.6585 79.0191 94.6585 78.5582V78.5231H94.6484ZM95.45 78.5832C95.45 78.8537 95.5051 79.0692 95.6153 79.2194C95.7255 79.3748 95.8708 79.4499 96.0612 79.4499C96.3067 79.4499 96.477 79.3597 96.5822 79.1744V77.9119C96.477 77.7316 96.3017 77.6364 96.0662 77.6364C95.8758 77.6364 95.7255 77.7165 95.6153 77.8718C95.5051 78.0271 95.45 78.2626 95.45 78.5782V78.5832Z" fill="black"/>
<path d="M97.8741 78.5183C97.8741 78.2227 97.9293 77.9572 98.0445 77.7217C98.1597 77.4913 98.325 77.3109 98.5404 77.1807C98.7559 77.0554 99.0064 76.9903 99.2869 76.9903C99.6927 76.9903 100.018 77.1155 100.274 77.361C100.529 77.6065 100.67 77.9422 100.7 78.368V78.5734C100.705 79.0343 100.574 79.4 100.319 79.6805C100.063 79.9561 99.7177 80.0963 99.2869 80.0963C98.8561 80.0963 98.5104 79.9561 98.2549 79.6805C97.9994 79.405 97.8691 79.0293 97.8691 78.5533V78.5183H97.8741ZM100.349 76.5645V76.5995H99.7127L99.2869 76.1988L98.8611 76.5995H98.2349V76.5545L99.0514 75.793H99.5173L100.349 76.5645ZM98.6757 78.5734C98.6757 78.8589 98.7308 79.0744 98.836 79.2247C98.9412 79.3749 99.0965 79.4501 99.2969 79.4501C99.4973 79.4501 99.6426 79.3749 99.7528 79.2247C99.863 79.0744 99.9181 78.8389 99.9181 78.5133C99.9181 78.2327 99.863 78.0173 99.7528 77.862C99.6426 77.7067 99.4923 77.6315 99.2919 77.6315C99.0915 77.6315 98.9462 77.7067 98.836 77.862C98.7308 78.0123 98.6757 78.2528 98.6757 78.5684V78.5734Z" fill="black"/>
<path d="M101.2 76.2741C101.2 76.1538 101.24 76.0537 101.321 75.9785C101.401 75.9034 101.511 75.8633 101.651 75.8633C101.791 75.8633 101.897 75.9034 101.977 75.9785C102.057 76.0587 102.097 76.1538 102.097 76.2741C102.097 76.3943 102.057 76.4945 101.972 76.5747C101.892 76.6548 101.781 76.6899 101.646 76.6899C101.511 76.6899 101.401 76.6498 101.321 76.5747C101.24 76.4995 101.195 76.3993 101.195 76.2741H101.2ZM102.052 80.0414H101.25V77.0456H102.052V80.0414Z" fill="black"/>
<path d="M104.858 77.0502L104.883 77.3959C105.099 77.1304 105.384 76.9951 105.745 76.9951C106.06 76.9951 106.296 77.0903 106.451 77.2757C106.606 77.461 106.687 77.7416 106.687 78.1123V80.0461H105.885V78.1323C105.885 77.962 105.85 77.8418 105.775 77.7616C105.7 77.6815 105.579 77.6464 105.409 77.6464C105.184 77.6464 105.013 77.7416 104.903 77.9319V80.041H104.102V77.0452H104.853L104.858 77.0502Z" fill="black"/>
<path d="M108.075 77.3759C108.285 77.1204 108.556 76.9952 108.877 76.9952C109.528 76.9952 109.853 77.3709 109.863 78.1274V80.0461H109.062V78.1524C109.062 77.9821 109.027 77.8519 108.952 77.7717C108.877 77.6915 108.756 77.6465 108.586 77.6465C108.351 77.6465 108.18 77.7366 108.075 77.917V80.0461H107.273V75.7979H108.075V77.3809V77.3759Z" fill="black"/>
<path d="M112.197 80.0412C112.161 79.9711 112.131 79.8809 112.116 79.7707C111.921 79.9861 111.67 80.0963 111.36 80.0963C111.064 80.0963 110.824 80.0112 110.628 79.8409C110.433 79.6705 110.338 79.4551 110.338 79.1996C110.338 78.884 110.453 78.6385 110.689 78.4682C110.924 78.2978 111.265 78.2127 111.706 78.2127H112.076V78.0423C112.076 77.9021 112.041 77.7919 111.971 77.7117C111.901 77.6265 111.786 77.5865 111.635 77.5865C111.5 77.5865 111.395 77.6215 111.32 77.6816C111.245 77.7418 111.205 77.8369 111.205 77.9472H110.403C110.403 77.7718 110.458 77.6115 110.563 77.4662C110.669 77.3209 110.819 77.2007 111.019 77.1206C111.22 77.0404 111.435 76.9953 111.675 76.9953C112.046 76.9953 112.337 77.0905 112.552 77.2708C112.768 77.4562 112.878 77.7167 112.878 78.0524V79.3499C112.878 79.6355 112.918 79.8509 112.998 79.9962V80.0412H112.191H112.197ZM112.076 76.6496H111.42L110.659 75.793H111.53L112.076 76.6496ZM111.535 79.4852C111.655 79.4852 111.761 79.4601 111.861 79.405C111.961 79.3549 112.036 79.2798 112.081 79.1946V78.6786H111.781C111.38 78.6786 111.17 78.8189 111.139 79.0944V79.1395C111.139 79.2397 111.17 79.3198 111.24 79.385C111.31 79.4501 111.405 79.4802 111.525 79.4802L111.535 79.4852Z" fill="black"/>
<path d="M117.613 78.5734C117.613 79.0543 117.513 79.425 117.308 79.6956C117.102 79.9661 116.817 80.0963 116.451 80.0963C116.125 80.0963 115.865 79.9711 115.674 79.7206L115.639 80.0412H114.918V75.793H115.72V77.3159C115.905 77.1005 116.145 76.9903 116.446 76.9903C116.812 76.9903 117.097 77.1256 117.303 77.3911C117.508 77.6616 117.613 78.0373 117.613 78.5233V78.5684V78.5734ZM116.812 78.5133C116.812 78.2127 116.762 77.9923 116.666 77.852C116.571 77.7117 116.426 77.6416 116.236 77.6416C115.98 77.6416 115.805 77.7468 115.71 77.9522V79.1345C115.805 79.3449 115.985 79.4501 116.241 79.4501C116.496 79.4501 116.666 79.3248 116.752 79.0694C116.792 78.9491 116.812 78.7638 116.812 78.5133Z" fill="black"/>
<path d="M119.837 80.041C119.802 79.9709 119.772 79.8807 119.757 79.7705C119.562 79.9859 119.311 80.0962 119.001 80.0962C118.705 80.0962 118.464 80.011 118.269 79.8407C118.074 79.6703 117.979 79.4549 117.979 79.1994C117.979 78.8838 118.094 78.6383 118.329 78.468C118.565 78.2977 118.905 78.2125 119.346 78.2125H119.717V78.0422C119.717 77.9019 119.682 77.7917 119.612 77.7115C119.542 77.6263 119.426 77.5863 119.276 77.5863C119.141 77.5863 119.036 77.6213 118.96 77.6815C118.885 77.7416 118.845 77.8368 118.845 77.947H118.044C118.044 77.7716 118.099 77.6113 118.204 77.466C118.309 77.3208 118.459 77.2005 118.66 77.1204C118.86 77.0402 119.076 76.9951 119.316 76.9951C119.687 76.9951 119.977 77.0903 120.193 77.2707C120.408 77.456 120.518 77.7165 120.518 78.0522V79.3497C120.518 79.6353 120.559 79.8507 120.639 79.996V80.041H119.832H119.837ZM118.665 80.6422C118.665 80.532 118.705 80.4418 118.79 80.3667C118.875 80.2915 118.98 80.2565 119.111 80.2565C119.241 80.2565 119.351 80.2915 119.436 80.3667C119.522 80.4418 119.562 80.532 119.562 80.6422C119.562 80.7524 119.522 80.8426 119.436 80.9178C119.351 80.9929 119.246 81.028 119.111 81.028C118.975 81.028 118.87 80.9929 118.785 80.9178C118.7 80.8426 118.665 80.7524 118.665 80.6422ZM119.176 79.48C119.296 79.48 119.401 79.4549 119.501 79.3998C119.602 79.3497 119.677 79.2746 119.722 79.1894V78.6734H119.421C119.021 78.6734 118.81 78.8137 118.78 79.0892V79.1343C118.78 79.2345 118.81 79.3146 118.88 79.3798C118.95 79.4449 119.046 79.4749 119.166 79.4749L119.176 79.48Z" fill="black"/>
<path d="M121.876 77.0502L121.901 77.3959C122.116 77.1304 122.402 76.9951 122.762 76.9951C123.078 76.9951 123.313 77.0903 123.469 77.2757C123.624 77.461 123.704 77.7416 123.704 78.1123V80.0461H122.903V78.1323C122.903 77.962 122.868 77.8418 122.792 77.7616C122.717 77.6815 122.597 77.6464 122.427 77.6464C122.201 77.6464 122.031 77.7416 121.921 77.9319V80.041H121.119V77.0452H121.871L121.876 77.0502Z" fill="black"/>
</svg>
