<svg width="130" height="130" viewBox="0 0 130 130" fill="none" xmlns="http://www.w3.org/2000/svg">
<g clip-path="url(#clip0_1380_3052)">
<path d="M0 71.7963V71.3226C0.364686 71.3226 1.82002 71.3226 1.82002 69.1004V48.695C1.82002 46.4796 0.361278 46.4762 0 46.4728V45.999H6.12128V46.4728C5.73955 46.4728 4.29785 46.4728 4.29785 48.6575V57.8803L13.9331 48.3269C15.0817 47.0692 14.1989 46.4489 13.3059 46.4728V45.999H19.4102V46.4728C19.0353 46.4728 17.3754 46.408 15.2248 48.5416L9.32847 54.3936L17.5288 69.0322C18.8103 71.3192 20.4293 71.3226 20.7939 71.3226V71.7963H13.64V71.3192C14.8601 71.3703 15.5793 70.6068 14.7681 69.1719L7.47437 56.2341L4.30125 59.3868V69.1004C4.30125 71.3226 5.76 71.3226 6.12469 71.3226V71.7963H0Z" fill="#333132"/>
<path d="M21.896 71.7958V71.3221C22.2607 71.3221 23.716 71.3221 23.716 69.0999V55.9814C23.716 53.7592 22.2607 53.7592 21.896 53.7592V53.2854H26.1223V69.0999C26.1223 71.3221 27.5776 71.3221 27.9423 71.3221V71.7958H21.8926H21.896ZM23.2797 48.8376L24.9191 47.1982L26.5585 48.8376L24.9191 50.477L23.2797 48.8376Z" fill="#333132"/>
<path d="M45.1413 69.1005C45.1413 71.3227 46.6 71.3227 46.9647 71.3227V71.7965H40.915V71.3227C41.2797 71.3227 42.7351 71.3227 42.7351 69.1005V59.1517C42.7351 55.9173 41.2047 53.9405 38.6553 53.9405C35.8912 53.9405 33.6281 56.5376 33.6281 59.6596V69.0971C33.6281 71.3193 35.0835 71.3193 35.4481 71.3193V71.7931H29.3984V71.3193C29.7631 71.3193 31.2185 71.3193 31.2185 69.0971V55.982C31.2185 53.7598 29.7631 53.7598 29.3984 53.7598V53.2861H33.6247V56.1865C34.8449 54.087 36.7671 52.9248 39.0541 52.9248C42.5408 52.9248 45.1379 55.5833 45.1379 59.1551V69.1039L45.1413 69.1005Z" fill="#333132"/>
<path d="M65.0494 53.7596L60.3562 54.1345C61.9752 55.1536 63.1613 56.8611 63.5191 58.9095C64.211 62.9142 61.7434 66.2612 57.5717 67.1303L53.0182 68.0778C51.6992 68.3505 51.1982 69.2093 51.4572 70.1943C51.6958 71.0737 52.9909 72.2598 57.2002 70.4227C59.3747 69.4718 61.164 69.1855 62.4898 70.3545C62.6364 70.467 62.7659 70.5795 62.8852 70.6851C63.4714 71.1827 63.6555 71.6156 64.6814 71.3668L65.046 71.803L49.7224 79.4444L49.3918 78.9707L61.6343 72.6517C61.3855 71.0941 59.8859 70.0716 57.449 71.2032C53.0693 73.2345 49.2691 72.6381 48.8294 70.6238C48.4682 68.9469 50.0053 67.6006 52.8478 67.0996L54.2656 66.8508C51.5765 66.1521 49.6202 64.148 49.1566 61.4385C48.4511 57.3451 50.946 53.9573 55.1075 53.2177C56.3583 52.9927 57.2172 52.928 65.0426 53.2858V53.7596H65.0494ZM60.8573 59.7854C60.5062 55.8148 58.8736 53.8857 55.8028 54.1584C52.6978 54.4276 51.4674 56.6498 51.8185 60.5932C52.1968 64.8093 53.8328 66.8099 56.9002 66.4009C59.9063 66.0328 61.1981 63.6129 60.8539 59.782L60.8573 59.7854Z" fill="#333132"/>
<path d="M73.4879 52.9212C75.7988 52.9212 77.7722 54.1107 78.9173 56.183V48.695C78.9173 46.4728 77.4586 46.4728 77.0973 46.4728V45.999H81.3236V69.1004C81.3236 71.3226 82.7823 71.3226 83.147 71.3226V71.7963H78.9207V68.8959C77.7006 70.9988 75.7749 72.161 73.4913 72.161C69.2003 72.161 66.4941 68.4358 66.4941 62.5428C66.4941 56.6499 69.0129 52.9247 73.4913 52.9247L73.4879 52.9212ZM69.0776 62.5394C69.0776 67.7336 70.8806 71.1385 73.8867 71.1385C76.6508 71.1385 78.9139 68.5414 78.9139 65.4194V59.7003C78.9139 56.5681 76.6406 53.9437 73.8867 53.9437C70.5159 53.9437 69.0776 56.6942 69.0776 62.5428V62.5394Z" fill="#333132"/>
<path d="M93.0482 72.1607C87.6802 72.1607 84.5957 67.1709 84.5957 62.505C84.5957 57.8391 87.3121 52.9209 93.0482 52.9209C98.7844 52.9209 101.501 57.9481 101.501 62.505C101.501 67.0619 98.7469 72.1607 93.0482 72.1607ZM93.7981 71.1041C98.5663 70.6781 99.3161 65.8553 98.9514 62.0074C98.6276 58.2344 97.0257 53.5548 92.2984 53.9809C87.4927 54.4069 86.8179 59.2671 87.1485 63.0026C87.5098 66.8471 89.3912 71.4995 93.8015 71.1075L93.7981 71.1041Z" fill="#333132"/>
<path d="M128.176 69.1005C128.176 71.3227 129.634 71.3227 129.996 71.3227V71.7965H123.946V71.3227C124.311 71.3227 125.769 71.3227 125.769 69.1005V57.768C125.769 55.3992 124.437 53.9405 122.272 53.9405C120.108 53.9405 118.046 56.2342 118.046 58.8586V69.0971C118.046 71.3193 119.505 71.3193 119.866 71.3193V71.7931H113.816V71.3193C114.181 71.3193 115.64 71.3193 115.64 69.0971V57.7646C115.64 55.389 114.328 53.9405 112.177 53.9405C110.026 53.9405 107.913 56.7864 107.913 59.588V69.0971C107.913 71.3193 109.369 71.3193 109.733 71.3193V71.7931H103.684V71.3193C104.048 71.3193 105.504 71.3193 105.504 69.0971V55.982C105.504 53.7598 104.045 53.7598 103.684 53.7598V53.2861H107.91V56.1797C109.052 54.0802 110.694 52.9248 112.61 52.9248C114.992 52.9248 116.935 54.2779 117.695 56.4967H117.702C118.697 54.3052 120.616 52.9248 122.739 52.9248C125.926 52.9248 128.169 55.2902 128.169 58.6439V69.1005H128.176Z" fill="#333132"/>
<path d="M89.1643 79.8594H90.5276V79.9923C90.4253 79.9923 90.0095 79.9923 90.0095 80.6228V87.177H89.8936L85.439 80.6876V86.4135C85.439 87.044 85.848 87.044 85.9571 87.044V87.177H84.5938V87.044C84.696 87.044 85.1118 87.044 85.1118 86.4135V80.6126C85.1118 79.9923 84.6994 79.9923 84.5938 79.9923V79.8594H85.7798L89.6823 85.6126V80.6228C89.6823 79.9923 89.2665 79.9923 89.1643 79.9923V79.8594Z" fill="#333132"/>
<path d="M95.0152 86.4137C95.0152 87.034 95.4276 87.0443 95.5333 87.0443V87.1772H94.3336V86.3626C93.9689 86.9556 93.5156 87.2828 92.8442 87.2828C91.7842 87.2828 91.0957 86.6523 91.0957 85.7423C91.0957 84.2086 93.035 84.2086 94.337 84.1029V83.4792C94.3268 82.6885 94.0234 82.1159 93.1748 82.1159C92.2784 82.1159 91.9921 82.8623 92.05 83.4076L91.3888 83.2986C91.3616 82.6714 92.1182 81.8262 93.1748 81.8262C94.3029 81.8262 95.0152 82.4703 95.0152 83.4792V86.4137ZM94.3336 85.5446V84.3926C93.4645 84.4642 91.8012 84.3926 91.8012 85.7184C91.8012 86.1138 91.975 86.9897 92.9498 86.9897C93.7439 86.9897 94.3336 86.1717 94.337 85.5412L94.3336 85.5446Z" fill="#333132"/>
<path d="M96.0449 87.1818V87.0489C96.1472 87.0489 96.563 87.0489 96.563 86.4184V82.6965C96.563 82.066 96.1506 82.066 96.0449 82.066V81.9331H97.2446V86.4184C97.2446 87.0489 97.657 87.0489 97.7627 87.0489V87.1818H96.0483H96.0449ZM96.4369 80.6686L96.9004 80.2051L97.3673 80.6686L96.9004 81.1355L96.4369 80.6686Z" fill="#333132"/>
<path d="M98.1777 87.1809V87.0479C98.28 87.0479 98.6958 87.0479 98.6958 86.4174V80.6267C98.6958 79.9962 98.2834 79.9962 98.1777 79.9962V79.8633H99.3775V86.4174C99.3775 87.0479 99.7899 87.0479 99.8955 87.0479V87.1809H98.1811H98.1777Z" fill="#333132"/>
<path d="M100.41 85.3299H100.543C100.843 86.4444 101.429 86.9931 102.09 86.9931C102.612 86.9931 103.256 86.792 103.259 86.0831C103.263 85.2072 102.629 84.9686 101.913 84.5835C101.242 84.2222 100.451 83.9563 100.451 83.0838C100.451 82.3067 101.191 81.8262 102.097 81.8262C102.571 81.8262 103.137 81.9932 103.505 82.334L103.611 83.3326H103.478C103.369 82.7498 102.793 82.1193 102.097 82.1193C101.579 82.1193 101.126 82.3408 101.126 82.9339C101.126 83.6189 101.641 83.7416 102.288 84.0756C103.014 84.4471 103.945 84.8936 103.945 85.7832C103.945 86.8159 103.052 87.2862 102.094 87.2862C101.542 87.2862 100.983 87.0443 100.543 86.6489L100.414 85.3333L100.41 85.3299Z" fill="#333132"/>
<path d="M112.506 81.5199C111.763 82.4026 111.879 83.374 111.869 84.3488C111.858 85.5996 111.068 87.2833 109.179 87.2833C107.772 87.2833 106.678 86.2949 106.678 85.01C106.678 83.4626 108.181 82.8491 109.115 82.3992C108.13 82.4844 107.278 81.888 107.278 81.0495C107.278 80.2111 108.017 79.7578 109.179 79.7578C109.974 79.7578 110.621 80.0714 110.965 80.3883L111.085 81.2677L110.952 81.4006C110.822 80.4701 110.052 80.0475 109.067 80.0475C108.416 80.0475 107.98 80.4429 107.98 81.0495C107.98 82.0652 109.421 82.6855 110.417 81.5608L110.533 81.6528C110.168 82.0584 109.677 82.3481 109.193 82.631C108.273 83.1695 107.383 83.691 107.383 84.9861C107.383 86.162 108.119 86.9902 109.183 86.9902C110.73 86.9902 111.463 85.6064 111.074 83.4217L108.511 86.1824L108.402 86.0734L112.39 81.4245L112.506 81.5165V81.5199Z" fill="#333132"/>
<path d="M115.197 84.6083H115.33C115.668 86.1693 116.383 86.9975 117.45 86.9975C118.18 86.9975 119.147 86.6567 119.151 85.6649C119.154 84.5845 118.203 83.988 117.201 83.4495C116.261 82.9451 115.306 82.3418 115.306 81.4693C115.306 80.3855 116.192 79.7686 117.457 79.7686C118.122 79.7686 118.837 79.9424 119.355 80.4161L119.475 81.7079H119.342C119.141 80.7706 118.432 80.0548 117.457 80.0548C116.731 80.0548 116.008 80.4229 116.008 81.2546C116.008 82.0862 116.816 82.519 117.723 82.9826C118.738 83.504 119.877 84.1993 119.877 85.2423C119.877 86.6874 118.646 87.2906 117.45 87.2906C116.673 87.2906 115.968 87.0112 115.351 86.4522L115.197 84.6117V84.6083Z" fill="#333132"/>
<path d="M124.985 84.5562C124.985 86.291 124.255 87.2862 122.98 87.2862C122.326 87.2862 121.764 86.9488 121.44 86.3592V89.3517H120.24V89.2187C120.342 89.2187 120.758 89.229 120.758 88.5882V82.6953C120.758 82.0648 120.346 82.0648 120.24 82.0648V81.9318H121.44V82.7532C121.788 82.1568 122.333 81.8262 122.98 81.8262C124.204 81.8262 124.985 82.893 124.985 84.5562ZM124.303 84.5562C124.303 83.0941 123.723 82.1159 122.865 82.1159C122.081 82.1159 121.437 82.8521 121.437 83.7382V85.3606C121.437 86.2501 122.081 86.9931 122.865 86.9931C123.829 86.9931 124.303 86.199 124.303 84.5528V84.5562Z" fill="#333132"/>
<path d="M129.482 86.4137C129.482 87.034 129.894 87.0443 130 87.0443V87.1772H128.8V86.3626C128.436 86.9556 127.982 87.2828 127.311 87.2828C126.251 87.2828 125.562 86.6523 125.562 85.7423C125.562 84.2086 127.502 84.2086 128.804 84.1029V83.4792C128.794 82.6885 128.49 82.1159 127.642 82.1159C126.745 82.1159 126.459 82.8623 126.517 83.4076L125.856 83.2986C125.828 82.6714 126.585 81.8262 127.642 81.8262C128.77 81.8262 129.482 82.4703 129.482 83.4792V86.4137ZM128.8 85.5446V84.3926C127.931 84.4642 126.268 84.3926 126.268 85.7184C126.268 86.1138 126.442 86.9897 127.417 86.9897C128.211 86.9897 128.8 86.1717 128.804 85.5412L128.8 85.5446Z" fill="#333132"/>
</g>
<defs>
<clipPath id="clip0_1380_3052">
<rect width="130" height="130" fill="white"/>
</clipPath>
</defs>
</svg>
