<svg width="75" height="56" viewBox="0 0 75 56" fill="none" xmlns="http://www.w3.org/2000/svg">
<g clipPath="url(#clip0_88_308)">
<path d="M12.2665 16.7642L19.212 7.53879C19.3066 7.41101 19.5129 7.47916 19.5129 7.64101V24.1241C19.5129 24.2178 19.5903 24.2945 19.6848 24.2945H24.1032C24.1977 24.2945 24.2751 24.2178 24.2751 24.1241V0.170368C24.2751 0.0766657 24.1977 0 24.1032 0H19.3152C19.2636 0 19.212 0.0255552 19.1777 0.0681472L12.2665 9.34469C12.1977 9.43839 12.0602 9.43839 12 9.34469L5.08883 0.0681472C5.05444 0.0255552 5.00287 0 4.95129 0H0.266476C0.120344 0 0 0.119258 0 0.264071V24.1241C0 24.2178 0.0773639 24.2945 0.17192 24.2945H4.59026C4.68481 24.2945 4.76218 24.2178 4.76218 24.1241V7.63249C4.76218 7.47064 4.96848 7.40249 5.06304 7.53027L12 16.7557C12.0688 16.8409 12.2063 16.8409 12.2665 16.7557V16.7642Z" fill="black"/>
<path d="M32.7934 18.1016C32.8536 18.0335 32.9481 17.9994 33.0341 17.9994H43.2031C43.3836 17.9994 43.5298 18.1442 43.5298 18.3231V23.9623C43.5298 24.1412 43.6759 24.286 43.8564 24.286H47.9911C48.1716 24.286 48.3177 24.1412 48.3177 23.9623V0.323699C48.3177 0.144813 48.1716 0 47.9911 0H43.5985C43.504 0 43.418 0.042592 43.3579 0.102221L26.7676 18.0164C26.716 18.0761 26.6816 18.1527 26.6816 18.2379V24.7204L27.0771 24.2945L32.802 18.1101L32.7934 18.1016ZM37.1945 13.3739L42.9624 7.15546C43.1687 6.93398 43.5384 7.0788 43.5384 7.37694V13.5954C43.5384 13.7743 43.3922 13.9191 43.2117 13.9191H37.4438C37.1602 13.9191 37.0054 13.5783 37.2031 13.3739H37.1945Z" fill="black"/>
<path d="M67.7621 14.6602C70.3495 13.4932 72.2664 11.2187 72.2664 8.01582C72.2664 3.27107 68.7937 0 63.361 0H54.1719V24.2945H58.9598V4.14846H63.1805C65.7679 4.14846 67.3667 5.69881 67.3667 7.98175C67.3667 10.2647 65.8366 11.815 63.0343 11.815H59.381L74.9914 30.8792V24.6182L67.7535 14.6687L67.7621 14.6602Z" fill="black"/>
<path d="M0.206304 31.7051H4.58166C4.69341 31.7051 4.78797 31.7988 4.78797 31.9095V55.7951C4.78797 55.9059 4.69341 55.9996 4.58166 55.9996H0.206304C0.0945559 55.9996 0 55.9059 0 55.7951V31.9095C0 31.7988 0.0945559 31.7051 0.206304 31.7051Z" fill="black"/>
<path d="M58.9597 31.7135H20.4153V53.9892L11.6732 43.7501C11.613 43.6819 11.6044 43.5712 11.6646 43.4945L19.8738 32.1139C19.8738 32.1139 19.9081 32.0372 19.9081 31.9947V24.9329C19.9081 24.737 19.6503 24.6518 19.5299 24.8136L5.89669 43.7841C5.89669 43.7841 5.8623 43.8608 5.8623 43.9034C5.8623 43.9545 5.8795 43.9971 5.91388 44.0397L16.0915 55.9314C16.1345 55.974 16.1861 55.9995 16.2463 55.9995H74.8967V51.7403H63.7563V45.7689H70.891V41.5182H63.7563V35.9642H74.8967V31.7135H58.9683H58.9597ZM58.9597 51.7488H24.9368V45.7774H46.272V41.5267H24.9368V35.9727H58.9597V51.7574V51.7488Z" fill="black"/>
</g>
<defs>
<clipPath id="clip0_88_308">
<rect width="75" height="56" fill="white"/>
</clipPath>
</defs>
</svg>
