<svg width="130" height="130" viewBox="0 0 130 130" fill="none" xmlns="http://www.w3.org/2000/svg">
<g clip-path="url(#clip0_1380_1438)">
<path d="M11.8164 90.251H14.9304C17.3771 90.251 19.0206 91.818 19.0206 94.0637C19.0206 96.3094 17.3771 97.8764 14.9304 97.8764H11.8164V90.251ZM14.881 97.1854C16.9075 97.1854 18.2174 95.9022 18.2174 94.0637C18.2174 92.2252 16.9075 90.942 14.881 90.942H12.6196V97.1731H14.881V97.1854Z" fill="black"/>
<path d="M28.2258 97.8891L26.4834 95.4337C26.2857 95.4583 26.088 95.4707 25.8779 95.4707H23.8266V97.8891H23.0234V90.2637H25.8779C27.818 90.2637 29.0043 91.2384 29.0043 92.8795C29.0043 94.0764 28.3741 94.9154 27.2619 95.2733L29.1278 97.8891H28.2381H28.2258ZM28.1763 92.8795C28.1763 91.658 27.3731 90.967 25.8409 90.967H23.8143V94.792H25.8409C27.3731 94.792 28.1763 94.0887 28.1763 92.8795Z" fill="black"/>
<path d="M33.082 90.251H33.8852V97.8764H33.082V90.251Z" fill="black"/>
<path d="M44.9466 90.251V97.8764H44.2793L39.3735 91.6823V97.8764H38.5703V90.251H39.2376L44.1557 96.4451V90.251H44.9466Z" fill="black"/>
<path d="M51.9891 94.2985L50.4321 95.8779V97.8891H49.6289V90.2637H50.4321V94.8784L54.9177 90.2637H55.8445L52.5328 93.7186L56.0669 97.8891H55.1031L51.9768 94.2985H51.9891Z" fill="black"/>
<path d="M70.0679 97.9999L69.0051 96.9141C68.3626 97.6051 67.4852 97.9506 66.4472 97.9506C64.952 97.9506 63.877 97.1609 63.877 96.0134C63.877 95.1127 64.3959 94.4464 65.7923 93.632C65.0509 92.867 64.8284 92.4104 64.8284 91.8182C64.8284 90.8434 65.5822 90.1895 66.7562 90.1895C67.8312 90.1895 68.5356 90.757 68.5356 91.7071C68.5356 92.4721 68.0784 93.0027 66.8303 93.7184L68.931 95.8777C69.1658 95.4705 69.3388 94.9893 69.45 94.4093L70.0802 94.6068C69.9443 95.2977 69.7095 95.8777 69.4006 96.3589L70.488 97.4817L70.0431 97.9999H70.0679ZM68.5479 96.4453L66.2495 94.0762C65.0262 94.7795 64.6554 95.2484 64.6554 95.927C64.6554 96.7537 65.3969 97.2966 66.4967 97.2966C67.3246 97.2966 68.0289 97.0128 68.5479 96.4329V96.4453ZM65.5699 91.8182C65.5699 92.2624 65.7305 92.5832 66.4349 93.2865C67.5347 92.6572 67.893 92.2747 67.893 91.7318C67.893 91.1889 67.4852 90.7817 66.7809 90.7817C66.0147 90.7817 65.5699 91.2012 65.5699 91.8182Z" fill="black"/>
<path d="M79.9282 90.9546V93.953H83.8825V94.6563H79.9282V97.8891H79.125V90.2637H84.3644V90.967H79.9282V90.9546Z" fill="black"/>
<path d="M87.4414 94.0639C87.4414 91.8429 89.1467 90.1895 91.4575 90.1895C93.7682 90.1895 95.4612 91.8305 95.4612 94.0639C95.4612 96.2972 93.7435 97.9383 91.4575 97.9383C89.1714 97.9383 87.4414 96.2848 87.4414 94.0639ZM94.6579 94.0639C94.6579 92.2377 93.2987 90.9051 91.4575 90.9051C89.6163 90.9051 88.2323 92.25 88.2323 94.0639C88.2323 95.8777 89.6039 97.2226 91.4575 97.2226C93.311 97.2226 94.6579 95.8777 94.6579 94.0639Z" fill="black"/>
<path d="M98.7852 94.0639C98.7852 91.8429 100.49 90.1895 102.801 90.1895C105.112 90.1895 106.805 91.8305 106.805 94.0639C106.805 96.2972 105.087 97.9383 102.801 97.9383C100.515 97.9383 98.7852 96.2848 98.7852 94.0639ZM106.002 94.0639C106.002 92.2377 104.642 90.9051 102.801 90.9051C100.96 90.9051 99.576 92.25 99.576 94.0639C99.576 95.8777 100.948 97.2226 102.801 97.2226C104.655 97.2226 106.002 95.8777 106.002 94.0639Z" fill="black"/>
<path d="M110.797 90.251H113.911C116.358 90.251 118.001 91.818 118.001 94.0637C118.001 96.3094 116.358 97.8764 113.911 97.8764H110.797V90.251ZM113.861 97.1854C115.888 97.1854 117.198 95.9022 117.198 94.0637C117.198 92.2252 115.888 90.942 113.861 90.942H111.6V97.1731H113.861V97.1854Z" fill="black"/>
<path d="M80.7309 74.4079L57.9197 45.7324H53.8789V83.5263H58.8959V54.8508L81.6453 83.5263H85.6984V45.7324H80.7309V74.4079Z" fill="black"/>
<path d="M95.9174 79.035V66.5604H114.898V62.1184H95.9174V50.2238H117.209V45.7324H90.9004V83.5263H117.999V79.035H95.9174Z" fill="black"/>
<path d="M30.24 45.4121C19.6129 45.4121 11 54.0123 11 64.6237C11 75.2351 19.6129 83.8353 30.24 83.8353C40.8671 83.8353 49.48 75.2351 49.48 64.6237C49.48 54.0123 40.8671 45.4121 30.24 45.4121ZM30.24 79.0355C22.2697 79.0355 15.8069 72.5823 15.8069 64.6237C15.8069 56.6651 22.2697 50.2119 30.24 50.2119C38.2103 50.2119 44.6731 56.6651 44.6731 64.6237C44.6731 72.5823 38.2103 79.0355 30.24 79.0355Z" fill="black"/>
<path d="M44.6733 31C40.9785 31 37.2591 32.4066 34.454 35.2076C31.6489 38.0085 30.2402 41.7101 30.2402 45.4118C33.935 45.4118 37.6545 44.0052 40.4595 41.2042C43.277 38.391 44.6733 34.7017 44.6733 31Z" fill="black"/>
<path d="M15.8066 31C19.5014 31 23.2209 32.4066 26.026 35.2076C28.831 38.0085 30.2397 41.7101 30.2397 45.4118C26.5449 45.4118 22.8255 44.0052 20.0204 41.2042C17.2153 38.391 15.8066 34.7017 15.8066 31Z" fill="black"/>
</g>
<defs>
<clipPath id="clip0_1380_1438">
<rect width="107" height="67" fill="white" transform="translate(11 31)"/>
</clipPath>
</defs>
</svg>
