<svg width="130" height="130" viewBox="0 0 130 130" fill="none" xmlns="http://www.w3.org/2000/svg">
<path d="M30.9561 55.1885C30.5851 56.1506 30.0758 56.9208 29.4344 57.4962C28.6642 58.1627 27.7901 58.6186 26.8124 58.8638C26.0609 59.0587 25.0674 59.1562 23.835 59.1562H21.7065V65.1769H17V45.9609H23.288C23.8979 45.9609 24.4072 45.9735 24.8222 45.9987C25.3976 46.0332 25.9195 46.093 26.3942 46.1747C27.5606 46.3791 28.4975 46.7752 29.2081 47.3663C30.7109 48.6427 31.4654 50.3374 31.4654 52.4501C31.4654 53.387 31.2957 54.3019 30.9593 55.1885H30.9561ZM25.7465 50.6517C25.2561 50.3971 24.5141 50.2713 23.5143 50.2713H21.7034V54.8458H23.6935C24.6399 54.8458 25.3535 54.7012 25.8346 54.4151C26.4508 54.0535 26.7589 53.4247 26.7589 52.5381C26.7589 51.6515 26.4194 51.0039 25.7434 50.6486L25.7465 50.6517Z" fill="#F26422"/>
<path d="M44.6965 65.1769V57.4962H38.4085V65.1769H33.5039V45.9609H38.4085V53.1858H44.6965V45.9609H49.6011V65.1769H44.6965Z" fill="#F26422"/>
<path d="M70.0702 49.0301C71.6924 50.8474 72.5036 53.0261 72.5036 55.5696C72.5036 58.3929 71.5101 60.7666 69.5262 62.6939C67.5644 64.596 65.1655 65.5455 62.3265 65.5455C59.4875 65.5455 57.2239 64.6117 55.2526 62.7442C53.2404 60.8515 52.2344 58.5407 52.2344 55.8117C52.2344 54.3592 52.4827 52.9884 52.9826 51.7057C53.2436 51.0203 53.6586 50.3035 54.2245 49.552C56.2272 46.9237 58.9342 45.6095 62.3485 45.6095C64.7317 45.6095 66.8099 46.2886 68.5831 47.6499C68.6679 47.6154 68.756 47.5839 68.8503 47.5493C69.7275 47.1186 70.1676 46.4898 70.1676 45.6598H69.1521V42.7705H72.054V45.7478C71.9345 46.974 71.5352 47.8857 70.8499 48.4862C70.5952 48.6969 70.3342 48.8792 70.0639 49.0301H70.0702ZM66.1653 51.6396C65.1687 50.4921 63.9048 49.9167 62.3768 49.9167C60.8489 49.9167 59.585 50.4732 58.5884 51.5893C57.6263 52.6646 57.1421 53.9725 57.1421 55.5193C57.1421 57.0661 57.6232 58.4338 58.5884 59.5247C59.5944 60.666 60.8772 61.2351 62.4429 61.2351C64.0086 61.2351 65.1844 60.6597 66.1811 59.5122C67.1274 58.4212 67.6021 57.1165 67.6021 55.5948C67.6021 54.0731 67.1242 52.7306 66.1685 51.6396H66.1653ZM65.2033 42.0945C65.1027 42.2549 64.9738 42.4215 64.8229 42.5881C64.7128 42.7233 64.5682 42.8711 64.3921 43.0314L63.9614 43.437C63.8011 43.5879 63.669 43.72 63.5684 43.83C63.3137 44.1255 63.1754 44.4148 63.1503 44.6915H60.9463C60.9558 44.3016 61.0721 43.9212 61.3016 43.5502C61.3959 43.4056 61.5091 43.2547 61.6443 43.0943C61.7449 42.9748 61.8801 42.8365 62.0499 42.6762L62.4429 42.2832C62.5875 42.1323 62.7007 42.0002 62.7856 41.8902C63.0151 41.6041 63.1283 41.3274 63.1283 41.0665C63.1283 40.5414 62.883 40.2805 62.3926 40.2805C62.0467 40.2805 61.8046 40.4062 61.6694 40.6609C61.5751 40.8307 61.5248 41.1073 61.5185 41.4972H59.1983C59.1889 41.4626 59.1857 41.4249 59.1857 41.384V41.2708C59.1857 40.3402 59.5095 39.5762 60.1603 38.9757C60.786 38.4004 61.572 38.1143 62.5183 38.1143C63.8011 38.1143 64.716 38.6204 65.2567 39.6359C65.4611 40.0164 65.5617 40.4062 65.5617 40.8024C65.5617 41.2677 65.4422 41.6984 65.2064 42.0945H65.2033Z" fill="#F26422"/>
<path d="M17.125 92.2472V73.0312H22.0296V87.9368H27.7202V92.2472H17.125Z" fill="#F26422"/>
<path d="M46.1013 89.7631C44.1332 91.6652 41.7312 92.6147 38.9016 92.6147C36.072 92.6147 33.7864 91.6809 31.8151 89.8134C29.8029 87.9207 28.7969 85.6099 28.7969 82.8809C28.7969 81.4284 29.0452 80.0576 29.5451 78.7749C29.8061 78.0895 30.2242 77.3727 30.7996 76.6213C32.7929 73.9929 35.503 72.6787 38.9236 72.6787C41.7469 72.6787 44.1363 73.6345 46.0982 75.5429C48.0757 77.4607 49.0629 79.8281 49.0629 82.642C49.0629 85.4558 48.0757 87.839 46.0982 89.7662L46.1013 89.7631ZM42.7436 78.712C41.7375 77.5645 40.4736 76.9891 38.9551 76.9891C37.4365 76.9891 36.1506 77.5456 35.154 78.6617C34.1919 79.7369 33.7078 81.0448 33.7078 82.5917C33.7078 84.1385 34.1951 85.5061 35.1666 86.5971C36.1726 87.7384 37.4522 88.3074 39.0085 88.3074C40.5648 88.3074 41.7501 87.7321 42.7467 86.5845C43.693 85.4936 44.1678 84.1888 44.1678 82.6671C44.1678 81.1454 43.693 79.803 42.7467 78.712H42.7436Z" fill="#F26422"/>
<path d="M60.9314 92.2472H55.8727L49.459 73.0312H54.4925L58.3596 86.5032H58.4225L62.3147 73.0312H67.3734L60.9345 92.2472H60.9314Z" fill="#F26422"/>
<path d="M69.5273 92.2472V73.0312H80.2011V77.3416H74.2307V80.3316H80.0094V84.642H74.2307V87.9368H80.2011V92.2472H69.5273Z" fill="#F26422"/>
<path d="M92.4184 92.2472L87.9822 86.0473H87.9319V92.2472H83.2285V73.0312H89.2995C89.9409 73.0312 90.4565 73.0438 90.8464 73.069C91.4217 73.0941 91.9373 73.1476 92.3932 73.2325C93.5408 73.4274 94.484 73.8204 95.2196 74.4115C96.7979 75.6785 97.5902 77.4297 97.5902 79.6588C97.5902 81.1899 97.1721 82.5009 96.3358 83.6013C95.4649 84.7677 94.2922 85.4688 92.8114 85.7046L98.0209 92.2441H92.4184V92.2472ZM91.9373 77.9359C91.3871 77.5397 90.6483 77.3385 89.7177 77.3385H87.9319V82.6864H89.6674C91.8147 82.6864 92.8868 81.7684 92.8868 79.9354C92.8868 79.0488 92.5693 78.3823 91.9373 77.9327V77.9359Z" fill="#F26422"/>
<path d="M110.781 91.1718C109.599 92.1339 108.008 92.6149 106.015 92.6149C104.021 92.6149 102.339 92.1087 101.097 91.0932C99.7548 90.0117 99.082 88.4837 99.082 86.5061V85.8836H103.961C103.961 86.5942 104.119 87.1884 104.43 87.6694C104.785 88.2259 105.295 88.5057 105.964 88.5057C107.206 88.5057 107.829 87.8926 107.829 86.6665C107.829 86.11 107.612 85.6573 107.181 85.3114C107.011 85.1762 106.791 85.041 106.521 84.9059L106.153 84.7298L104.062 83.8306C103.37 83.5445 102.773 83.2521 102.276 82.9566C101.685 82.6108 101.185 82.2335 100.78 81.8279C99.8429 80.8721 99.3713 79.7057 99.3713 78.3287C99.3713 76.6309 100.082 75.2413 101.5 74.1597C102.801 73.1725 104.329 72.6758 106.087 72.6758C107.074 72.6758 108.02 72.8518 108.926 73.2071C109.907 73.597 110.693 74.144 111.284 74.8546C112.079 75.8355 112.501 77.0994 112.551 78.6431H107.697C107.511 77.3917 106.923 76.7661 105.936 76.7661C104.81 76.7661 104.251 77.2691 104.251 78.2752C104.251 78.6305 104.31 78.9009 104.43 79.0863C104.625 79.4165 105.213 79.822 106.191 80.3031L108.218 81.2148C108.929 81.5355 109.52 81.8436 109.992 82.1392C110.567 82.4944 111.039 82.8686 111.413 83.2678C112.274 84.1796 112.705 85.3303 112.705 86.7136C112.705 88.6409 112.064 90.1249 110.778 91.1624L110.781 91.1718Z" fill="#F26422"/>
<path fill-rule="evenodd" clip-rule="evenodd" d="M111.215 34.2123C116.088 34.5707 120.279 34.8725 121.326 34.9574C121.59 34.9794 121.87 34.7625 121.905 34.445L121.989 33.6684C122.011 33.4798 122.002 33.3163 121.911 33.1717C121.823 33.027 121.694 32.9484 121.54 32.9453L111.514 32.5586C111.47 33.1182 111.369 33.6715 111.215 34.2155M92.9674 32.7629C96.6867 33.2094 100.695 33.4546 104.433 33.7124C104.613 33.2565 104.732 32.7818 104.786 32.3008L93.0397 31.848C92.8227 31.8386 92.6373 32.0052 92.6184 32.219L92.609 32.3228C92.5901 32.5397 92.7473 32.7346 92.9642 32.7629H92.9674Z" fill="#423028"/>
<path fill-rule="evenodd" clip-rule="evenodd" d="M93.1596 31.7726C96.3476 31.1313 118.223 25.6199 120.783 24.9974C121.04 24.9345 121.238 24.6452 121.172 24.3277L121.012 23.5669C120.974 23.3845 120.911 23.2242 120.783 23.1173C120.651 23.0104 120.506 22.9758 120.358 23.0167L92.9426 30.886C92.732 30.9458 92.6094 31.1596 92.6597 31.3702L92.6817 31.4708C92.732 31.6815 92.9426 31.8167 93.1564 31.7726" fill="#423028"/>
<path d="M84.4069 43.8797C85.3721 43.3578 86.4159 42.9837 87.4848 42.7762C87.0887 42.4995 86.6988 42.2071 86.3121 41.9053C83.1115 42.7164 79.845 45.2033 78.4805 49.2402H79.7946C80.5461 46.8853 82.2815 45.0241 84.4069 43.8765V43.8797Z" fill="#F26422"/>
<path d="M87.932 47.1028C88.0138 46.6815 88.1301 46.2696 88.2842 45.8672C87.5453 45.9615 86.8159 46.1784 86.1368 46.5023C84.9138 47.0871 83.87 48.0302 83.2695 49.2438H84.7818C85.3194 48.5521 86.0079 47.9925 86.7782 47.5838C87.1492 47.3889 87.5359 47.2254 87.9352 47.1028H87.932Z" fill="#F26422"/>
<path d="M87.7859 48.2383C87.6036 48.3106 87.4244 48.3955 87.2483 48.4898C86.8585 48.6973 86.4969 48.952 86.1699 49.2444H87.8079C87.7765 48.9079 87.7702 48.5715 87.7859 48.2383Z" fill="#F26422"/>
<path d="M84.8942 44.7786C83.0833 45.7564 81.5899 47.3001 80.873 49.2399H82.1526C82.8129 47.5956 84.1239 46.3286 85.6896 45.5772C86.6548 45.1119 87.7143 44.8446 88.7739 44.7975C88.9342 44.5051 89.1197 44.2284 89.3178 43.9643C89.1354 43.8543 88.9562 43.7443 88.7739 43.6279C87.4345 43.7254 86.0952 44.1247 84.8942 44.7723V44.7786Z" fill="#F26422"/>
<path d="M95.0773 29.5627C93.4047 26.8903 90.4242 25.1454 87.4343 27.4719C83.41 30.5971 85.8843 35.9167 89.3552 38.501C90.726 39.5228 92.3169 40.378 93.892 41.1199C94.3196 40.9282 94.7472 40.7427 95.1747 40.5635C94.7031 40.3717 94.2724 40.2019 93.9109 40.051C79.7975 34.2629 88.5158 21.8977 95.0773 29.5627Z" fill="#F26422"/>
<path d="M88.0882 25.3179C86.947 25.6417 86.0226 26.2768 85.309 27.0754C84.4695 28.0154 83.9005 29.185 83.5829 30.3766C83.388 31.1185 83.3251 31.8983 83.41 32.6937C83.4917 33.4545 83.7118 34.2248 84.0891 34.9793C85.7365 38.312 88.9057 40.4782 91.927 42.0596C92.1817 41.9275 92.4395 41.8018 92.6973 41.676C90.9713 40.824 87.0947 38.0542 85.9126 36.4602C83.6772 33.4514 83.4194 29.295 86.8055 26.6572C90.1853 24.2584 93.5273 26.2548 95.3131 29.4805C94.0618 26.5283 91.4743 24.3464 88.0882 25.3148V25.3179Z" fill="#F26422"/>
<path d="M102.148 44.3047C101.749 44.5311 101.35 44.7448 100.947 44.9461C102.054 46.059 102.695 47.4675 102.371 49.2439H103.585C103.686 48.3981 103.613 47.521 103.4 46.7067C103.151 45.7666 102.73 44.9744 102.151 44.3078L102.148 44.3047Z" fill="#F26422"/>
<path d="M99.0108 49.244C99.627 48.0996 98.9731 47.1155 97.9607 46.3232C97.8916 46.3547 97.8255 46.3893 97.7595 46.4207C97.464 46.5685 97.1433 46.7351 96.832 46.9175C97.6212 47.5997 97.9859 48.3731 97.3602 49.2409H99.0139L99.0108 49.244Z" fill="#F26422"/>
<path d="M99.9737 45.4111C99.6342 45.562 99.2946 45.713 98.9551 45.8639C100.021 46.7976 100.684 47.9295 100.184 49.2436H101.326C101.675 47.6182 101.027 46.3763 99.9737 45.4111Z" fill="#F26422"/>
<path d="M86.2892 24.0855C83.3685 25.3085 81.4601 28.4148 81.2777 31.5242C80.9916 36.4131 85.8365 40.8178 90.15 43.3738C90.389 43.1223 90.6499 42.8928 90.9234 42.6821C87.9272 41.0504 84.8524 38.8213 83.1704 35.4227C82.7428 34.5581 82.4881 33.6684 82.3907 32.7912C82.2932 31.8732 82.3655 30.9645 82.5919 30.1031C82.9472 28.77 83.5854 27.4496 84.538 26.3869C86.6162 24.0667 90.1877 23.1486 92.7941 25.2488C94.0768 26.2832 95.0137 27.8552 95.5388 29.4083C94.5484 25.2928 91.4548 21.9193 86.2861 24.0761L86.2892 24.0855Z" fill="#F26422"/>
<path d="M94.9404 42.5286C99.6343 40.5416 106.278 37.7246 106.601 32.2541C106.664 31.204 106.482 30.2545 106.12 29.4434L105.187 29.6729C106.394 32.5968 105.127 37.1807 98.1252 40.0511C96.6224 40.6674 94.0066 41.6703 91.7964 42.8304C89.4258 44.0786 88.3443 46.9427 88.5832 49.241H89.6616C89.0328 45.814 92.0322 43.7579 94.9404 42.5254V42.5286Z" fill="#F26422"/>
<path d="M96.8035 43.654C100.488 41.9656 105.669 39.5856 107.946 34.9829C108.32 34.2283 108.543 33.4549 108.625 32.6972C108.713 31.9018 108.647 31.1221 108.452 30.3801C108.326 29.9085 108.163 29.44 107.958 28.9873L107.392 29.1256L107.125 29.1917C107.499 30.1066 107.688 31.1629 107.619 32.3136C107.257 38.4192 100.271 41.3777 95.3352 43.4716C92.8735 44.5123 90.0659 46.2132 90.7136 49.2439H91.8486C90.8331 46.581 94.6184 44.6537 96.8035 43.654Z" fill="#F26422"/>
<path d="M104.273 26.0979C104.304 26.1136 104.339 26.1293 104.373 26.1482C104.402 26.1607 104.43 26.1765 104.461 26.1922C104.493 26.2079 104.524 26.2268 104.556 26.2456C104.587 26.2614 104.618 26.2802 104.653 26.2991C104.716 26.3337 104.776 26.3714 104.839 26.4091C104.905 26.45 104.964 26.4909 105.03 26.5317C105.059 26.5537 105.084 26.5695 105.115 26.5915L105.952 26.3494C104.622 25.2962 102.786 24.8277 101.122 25.2301C101.094 25.2364 101.069 25.2427 101.041 25.2521C101.015 25.2584 100.99 25.2647 100.965 25.2741C100.94 25.2804 100.912 25.2867 100.89 25.2962C100.861 25.3056 100.836 25.3119 100.811 25.3213C100.783 25.3276 100.761 25.3339 100.733 25.3433C100.707 25.3527 100.682 25.359 100.657 25.3685L100.585 25.3968C100.556 25.4062 100.531 25.4156 100.506 25.4251C100.481 25.4345 100.459 25.4439 100.434 25.4534C100.409 25.4628 100.38 25.4754 100.355 25.4848C100.333 25.4942 100.311 25.5037 100.286 25.5131C100.261 25.5257 100.236 25.5351 100.214 25.5477C100.189 25.5602 100.163 25.5697 100.141 25.5791C100.116 25.5917 100.094 25.6011 100.069 25.6137C100.047 25.6263 100.022 25.6357 99.9968 25.6483C99.9748 25.6609 99.9497 25.6734 99.9277 25.686C99.9025 25.6986 99.8805 25.7112 99.8554 25.7237C99.8302 25.7363 99.8082 25.752 99.783 25.7615C99.761 25.774 99.7359 25.7866 99.7139 25.7992C99.6919 25.8118 99.6699 25.8275 99.6447 25.8401L99.5755 25.8809C99.5535 25.8935 99.5284 25.9092 99.5064 25.9249C98.362 26.6575 97.5602 27.7296 96.9629 28.9369C97.7772 27.7013 99.1668 26.472 100.566 25.9281C100.594 25.9155 100.619 25.9061 100.648 25.8967C100.676 25.8872 100.701 25.8778 100.729 25.8684C100.758 25.8558 100.786 25.8463 100.817 25.8369C100.843 25.8275 100.868 25.8212 100.89 25.8118C100.918 25.8055 100.949 25.796 100.978 25.7866C101.003 25.7803 101.028 25.7709 101.056 25.7646C102.122 25.4754 103.179 25.598 104.178 26.057C104.21 26.0696 104.238 26.0853 104.266 26.0979H104.273Z" fill="#F26422"/>
<path d="M110.021 28.4717L108.968 28.7358C109.16 29.1854 109.32 29.6475 109.439 30.1097C109.666 30.9711 109.741 31.8766 109.641 32.7978C109.543 33.675 109.288 34.5647 108.861 35.4293C106.421 40.3653 101.042 42.8334 97.2219 44.5877C95.5996 45.3297 91.7985 46.9771 93.0216 49.2471H94.4866C93.1505 47.1972 97.3068 45.6378 99.429 44.6694C104.079 42.5473 111.099 37.3849 110.754 31.5276C110.694 30.4838 110.439 29.4463 110.018 28.4748L110.021 28.4717Z" fill="#F26422"/>
<path d="M103.629 26.8557C103.592 26.8337 103.551 26.818 103.513 26.7991C103.491 26.7897 103.472 26.7771 103.45 26.7708C103.403 26.7488 103.353 26.73 103.306 26.7111C103.296 26.708 103.284 26.7017 103.274 26.6985C103.214 26.6734 103.158 26.6514 103.098 26.6325C103.079 26.6262 103.064 26.6199 103.045 26.6136C103.004 26.6011 102.963 26.5853 102.922 26.5728C102.9 26.5665 102.878 26.5602 102.859 26.5539C102.821 26.5413 102.784 26.5319 102.746 26.5225C102.724 26.5193 102.702 26.5099 102.674 26.5067C102.639 26.4973 102.605 26.4879 102.57 26.4816C102.545 26.4784 102.523 26.4722 102.498 26.469C102.463 26.4627 102.428 26.4564 102.394 26.447C102.369 26.447 102.347 26.4407 102.322 26.4344C102.287 26.4313 102.252 26.425 102.218 26.4219C102.196 26.4219 102.171 26.4156 102.146 26.4124C102.108 26.4093 102.067 26.4061 102.029 26.403C102.01 26.403 101.995 26.3998 101.976 26.3998C101.919 26.3967 101.863 26.3936 101.806 26.3936H101.759C101.718 26.3936 101.677 26.3936 101.636 26.3936H101.573C101.536 26.3936 101.501 26.3967 101.466 26.3998C101.444 26.3998 101.419 26.3998 101.394 26.403C101.363 26.403 101.331 26.4061 101.297 26.4124C101.275 26.4124 101.249 26.4156 101.224 26.4219C101.193 26.4219 101.161 26.4281 101.13 26.4344C101.105 26.4376 101.08 26.4407 101.055 26.447C101.023 26.4501 100.992 26.4596 100.963 26.4627C100.938 26.4659 100.916 26.4722 100.891 26.4753C100.86 26.4816 100.825 26.491 100.794 26.4973C100.772 26.5004 100.75 26.5067 100.728 26.513C100.687 26.5225 100.646 26.535 100.605 26.5445C99.3568 26.8966 98.3099 27.7738 97.5176 28.7735C99.1839 26.9878 101.413 26.5979 102.878 27.2361L103.831 26.9626L103.809 26.95C103.771 26.928 103.736 26.9123 103.699 26.8934C103.677 26.8809 103.655 26.8714 103.629 26.8589V26.8557Z" fill="#F26422"/>
<path d="M108.161 25.7176C107.469 25.0291 106.658 24.4663 105.746 24.0859C101.178 22.1775 97.8391 24.5166 96.6035 29.0219C97.0437 27.8775 97.7416 26.7551 98.5905 25.8591L98.5968 25.8528C98.6188 25.8308 98.6408 25.8056 98.666 25.7805L98.6848 25.7616L98.7383 25.7082L98.7697 25.6736L98.8106 25.6358L98.8483 25.6013L98.886 25.5635L98.9238 25.5321L98.9646 25.4944L99.0024 25.4598L99.0464 25.422L99.081 25.3906L99.1281 25.3497L99.1596 25.3246C99.1879 25.3026 99.213 25.2806 99.2413 25.2586C101.7 23.2716 105.017 23.9821 107.133 26.0163L108.164 25.7207L108.161 25.7176Z" fill="#F26422"/>
<path d="M105.079 42.1533C104.721 42.4268 104.359 42.6909 103.988 42.9456C104.869 43.1625 105.73 43.4958 106.535 43.9297C108.645 45.0678 110.371 46.9102 111.131 49.243H112.235C111.153 45.2784 108.179 43.0305 105.079 42.1533Z" fill="#F26422"/>
<path d="M104.836 46.6749C104.484 46.5082 104.116 46.3636 103.742 46.2441C103.767 46.3322 103.792 46.4202 103.815 46.5082C103.89 46.7943 103.95 47.0836 103.991 47.3791C104.107 47.4326 104.22 47.4892 104.333 47.5457C105.116 47.9608 105.811 48.533 106.352 49.2435H107.653C107.141 48.1871 106.106 47.2848 104.836 46.6749Z" fill="#F26422"/>
<path d="M106.046 44.8306C105.021 44.2772 103.896 43.9062 102.757 43.749C102.669 43.8056 102.581 43.8559 102.49 43.9125C102.789 44.2678 103.04 44.6482 103.251 45.0569C103.955 45.2141 104.638 45.4499 105.27 45.7517C106.911 46.5314 108.228 47.767 108.762 49.2447H110.045C109.322 47.3269 107.838 45.802 106.046 44.8337V44.8306Z" fill="#F26422"/>
<path d="M104.025 49.2441H104.972C104.695 48.9894 104.396 48.7599 104.069 48.5713C104.069 48.7977 104.051 49.0209 104.025 49.2441Z" fill="#F26422"/>
<path fill-rule="evenodd" clip-rule="evenodd" d="M113.892 49.0932C113.892 49.0932 113.892 49.1058 113.892 49.1121C113.864 49.6214 113.443 50.0175 112.933 50.0175H77.941C77.4316 50.0175 77.0104 49.6182 76.9821 49.1121C76.9821 49.1058 76.9821 49.0995 76.9821 49.0932C76.9506 48.5461 77.3908 48.084 77.941 48.084H112.933C113.48 48.084 113.921 48.543 113.892 49.0932Z" fill="#423028"/>
<path fill-rule="evenodd" clip-rule="evenodd" d="M102.715 62.6121C108.073 60.7289 113.455 59.0186 113.455 52.0735C113.455 51.712 113.229 51.3818 112.788 51.3818H78.0884C77.6451 51.3818 77.4219 51.712 77.4219 52.0735C77.4219 59.0186 83.0905 61.0024 88.7308 62.8039C90.4254 63.3447 92.2426 63.6842 94.1384 63.7911C94.2673 63.7974 94.2736 63.9515 94.1447 63.964C92.12 64.1401 90.3342 64.1244 88.8502 64.0269C88.5295 64.0049 88.2372 64.1747 88.146 64.4262L88.0391 64.7249C87.1179 67.2778 103.775 67.3249 102.838 64.7249L102.319 63.2881C102.218 63.0114 102.394 62.7253 102.715 62.6121Z" fill="#423028"/>
</svg>
