<svg width="130" height="130" viewBox="0 0 130 130" fill="none" xmlns="http://www.w3.org/2000/svg">
<path d="M50.8491 34.5749L54.7495 36.8363C55.3749 37.1979 56.1574 36.7474 56.1574 36.0242V33.4724C56.1574 33.1375 55.9795 32.8292 55.6891 32.6603L51.7887 30.4048C51.1633 30.0432 50.3809 30.4937 50.3809 31.2169V33.7628C50.3809 34.0977 50.5587 34.406 50.8491 34.5749Z" fill="white"/>
<path d="M59.6148 39.6189L63.5152 41.8803C64.1405 42.2419 64.923 41.7914 64.923 41.0682V38.5163C64.923 38.1814 64.7452 37.8732 64.4547 37.7042L60.5543 35.4488C59.9289 35.0872 59.1465 35.5377 59.1465 36.2609V38.8068C59.1465 39.1417 59.3243 39.4499 59.6148 39.6189Z" fill="white"/>
<path d="M68.6851 44.8435L72.5855 47.1049C73.2108 47.4665 73.9933 47.016 73.9933 46.2928V43.7409C73.9933 43.406 73.8155 43.0978 73.525 42.9288L69.6246 40.6734C68.9992 40.3118 68.2168 40.7623 68.2168 41.4855V44.0314C68.2168 44.3663 68.3946 44.6745 68.6851 44.8435Z" fill="white"/>
<path d="M62.527 64.0526H50.3457V45.9673L56.4364 41.9365L62.527 45.9673V64.0526Z" fill="url(#paint0_linear_1380_2744)"/>
<path d="M68.9947 65.925H62.5039V51.8558L65.7493 49.71L68.9947 51.8558V65.925Z" fill="url(#paint1_linear_1380_2744)"/>
<path d="M76.9312 49.5534L80.8316 51.8148C81.4569 52.1764 82.2394 51.7259 82.2394 51.0028V48.4509C82.2394 48.116 82.0616 47.8077 81.7711 47.6388L77.8707 45.3833C77.2453 45.0218 76.4629 45.4723 76.4629 46.1954V48.7414C76.4629 49.0763 76.6407 49.3845 76.9312 49.5534Z" fill="white"/>
<path d="M59.1879 61.5895L56.4375 59.7253V46.1006L59.1879 47.9648V61.5895Z" fill="white"/>
<path d="M67.2675 61.1102L65.75 60.0817V52.5625L67.2675 53.5909V61.1102Z" fill="white"/>
<path d="M45.1504 33.5844V70.2944C45.1504 75.1135 50.3697 78.1278 54.5428 75.7182L86.3357 57.3632C90.5117 54.9536 90.5117 48.9282 86.3357 46.5186L54.5428 28.1606C50.3667 25.751 45.1504 28.7623 45.1504 33.5844Z" fill="url(#paint2_linear_1380_2744)"/>
<path d="M50.8149 34.6838L54.6916 36.9304C55.314 37.289 56.0905 36.8415 56.0905 36.1242V33.5872C56.0905 33.2553 55.9127 32.947 55.6252 32.781L51.7485 30.5404C51.1261 30.1818 50.3496 30.6293 50.3496 31.3465V33.8777C50.3496 34.2096 50.5274 34.5178 50.8149 34.6838Z" fill="white"/>
<path d="M59.52 39.6985L63.3967 41.945C64.0191 42.3037 64.7956 41.8561 64.7956 41.1389V38.6019C64.7956 38.2699 64.6178 37.9617 64.3303 37.7957L60.4536 35.555C59.8312 35.1964 59.0547 35.644 59.0547 36.3612V38.8923C59.0547 39.2243 59.2325 39.5325 59.52 39.6985Z" fill="white"/>
<path d="M68.2309 44.7219L72.1076 46.9685C72.73 47.3271 73.5066 46.8796 73.5066 46.1623V43.6253C73.5066 43.2933 73.3287 42.9851 73.0412 42.8191L69.1646 40.5785C68.5421 40.2199 67.7656 40.6674 67.7656 41.3846V43.9157C67.7656 44.2477 67.9435 44.5559 68.2309 44.7219Z" fill="white"/>
<path d="M86.3357 46.5151C86.6677 47.8517 87.0707 49.7249 84.8182 50.7741L67.3079 59.1469V53.7972L64.0833 51.6632L60.8824 53.7794V47.9407L54.8302 43.9365L48.7781 47.9407V57.3538C46.5256 54.9145 45.1504 51.6573 45.1504 48.077V68.4859C45.1504 73.3051 50.3697 76.3193 54.5428 73.9097L65.1651 67.7775H67.305V66.5416L86.3327 55.5577C87.7939 54.713 88.7423 53.4267 89.181 52.007C88.7927 50.7504 87.5242 47.3509 86.3327 46.518L86.3357 46.5151Z" fill="url(#paint3_linear_1380_2744)"/>
<path d="M62.4178 63.9758H50.3105V46.0031L56.3656 42.002L62.4178 46.0031V63.9758Z" fill="url(#paint4_linear_1380_2744)"/>
<path d="M68.8409 65.8369H62.3945V51.8566L65.6192 49.7256L68.8409 51.8566V65.8369Z" fill="url(#paint5_linear_1380_2744)"/>
<path d="M54.5428 75.7185L86.3357 57.3635C90.5117 54.9539 90.5117 48.9285 86.3357 46.5189L86.2883 46.4922C86.8336 47.162 87.133 48.0986 87.133 49.0292C87.133 50.6149 86.1816 51.9812 84.8182 52.5828L63.7039 62.6806C62.1924 63.2556 60.5504 63.5727 58.8344 63.5727C51.2766 63.5727 45.1504 57.4465 45.1504 49.8887V70.2976C45.1504 75.1168 50.3697 78.131 54.5428 75.7214V75.7185Z" fill="url(#paint6_linear_1380_2744)"/>
<path d="M76.936 49.7112L80.8127 51.9577C81.4351 52.3164 82.2116 51.8688 82.2116 51.1516V48.6145C82.2116 48.2826 82.0338 47.9744 81.7463 47.8084L77.8696 45.5677C77.2472 45.2091 76.4707 45.6566 76.4707 46.3739V48.905C76.4707 49.2369 76.6485 49.5452 76.936 49.7112Z" fill="white"/>
<path d="M59.0979 61.5269L56.3652 59.6745V46.1387L59.0979 47.9881V61.5269Z" fill="white"/>
<path d="M67.1248 61.05L65.6191 60.0304V52.5586L67.1248 53.5782V61.05Z" fill="white"/>
<path d="M21.4465 101.82C20.4743 102.612 19.1732 103.006 17.5372 103.006C15.9012 103.006 14.52 102.591 13.5034 101.758C12.4009 100.872 11.8496 99.6151 11.8496 97.9939V97.4841H15.8537C15.8537 98.065 15.9812 98.5541 16.239 98.9512C16.5295 99.4076 16.9504 99.6388 17.4957 99.6388C18.5153 99.6388 19.025 99.135 19.025 98.1302C19.025 97.6738 18.8472 97.3033 18.4945 97.0188C18.3552 96.9091 18.1744 96.7965 17.9551 96.6868L17.6528 96.5416L15.9367 95.8036C15.3677 95.5695 14.8786 95.3294 14.4696 95.0864C13.9836 94.8019 13.5746 94.4936 13.2426 94.1617C12.472 93.3792 12.0897 92.4219 12.0897 91.2927C12.0897 89.8997 12.6736 88.7586 13.8354 87.8724C14.9023 87.0603 16.159 86.6543 17.5994 86.6543C18.4115 86.6543 19.188 86.7995 19.929 87.09C20.7322 87.4101 21.3783 87.8606 21.8644 88.4415C22.5164 89.2447 22.8632 90.282 22.9047 91.5505H18.9213C18.7701 90.5251 18.287 90.0123 17.4749 90.0123C16.5532 90.0123 16.0908 90.4243 16.0908 91.2512C16.0908 91.5416 16.1383 91.7639 16.2361 91.918C16.3961 92.1878 16.8763 92.5227 17.6824 92.9169L19.3451 93.6667C19.926 93.9305 20.4121 94.1824 20.8004 94.4254C21.2716 94.7159 21.6599 95.0241 21.9651 95.3502C22.6735 96.1 23.0262 97.0425 23.0262 98.1777C23.0262 99.7574 22.4986 100.975 21.4465 101.829V101.82Z" fill="#00A3E0"/>
<path d="M41.4345 94.5707C41.4345 96.9892 40.6373 99.0046 39.0427 100.614C37.4423 102.223 35.4328 103.027 33.0232 103.027C30.6136 103.027 28.7168 102.232 27.0955 100.644C25.4654 99.0432 24.6504 97.0811 24.6504 94.7575C24.6504 92.4338 25.4803 90.4836 27.137 88.9247C28.7583 87.4072 30.7411 86.6484 33.0854 86.6484C34.8311 86.6484 36.4523 87.1582 37.9431 88.1778C39.4903 89.2329 40.498 90.5785 40.9692 92.2234H36.4553C35.6936 90.866 34.5347 90.1843 32.9817 90.1843C31.7191 90.1843 30.6788 90.6348 29.8608 91.5358C29.0695 92.4101 28.6753 93.483 28.6753 94.7604C28.6753 96.0378 29.0606 97.1997 29.8282 98.0888C30.6403 99.0254 31.6954 99.4937 32.9995 99.4937C33.9064 99.4937 34.6918 99.2892 35.3498 98.8801C36.0582 98.4356 36.5294 97.7954 36.7635 96.9566H32.0629V93.7438H41.4108C41.4168 93.8683 41.4256 94.0076 41.4316 94.1588V94.5737L41.4345 94.5707Z" fill="#00A3E0"/>
<path d="M63.0131 102.704L63.1376 90.9021L63.0961 90.8606L59.7381 102.704H57.0766L53.7067 90.8606L53.6652 90.9021L53.7897 102.704H50.0879V86.9395H55.2657L58.3955 97.3188H58.437L61.5253 86.9395H66.7149V102.704H63.0131Z" fill="#00A3E0"/>
<path d="M69.5645 102.704V86.9395H78.3196V90.4753H73.4204V92.9293H78.1625V96.4652H73.4204V99.1682H78.3196V102.704H69.5645Z" fill="#00A3E0"/>
<path d="M86.0987 102.704H80.5859V86.9395H85.8052C86.5818 86.9395 87.2605 86.978 87.8443 87.055C88.5231 87.144 89.1366 87.2921 89.6849 87.4907C90.9119 87.9353 91.9374 88.7326 92.7643 89.8825C93.7364 91.2281 94.2195 92.8612 94.2195 94.7817C94.2195 100.063 91.5136 102.707 86.0987 102.707V102.704ZM89.2818 91.7231C88.6149 90.8902 87.6428 90.4753 86.3595 90.4753H84.6138V99.1682H86.3387C87.6547 99.1682 88.6416 98.7651 89.2907 97.9619C89.8953 97.2269 90.1947 96.1866 90.1947 94.841C90.1947 93.4954 89.8894 92.4759 89.2788 91.7201L89.2818 91.7231Z" fill="#00A3E0"/>
<path d="M96.6035 102.704V86.9395H100.628V102.704H96.6035Z" fill="#00A3E0"/>
<path d="M113.636 102.704L112.866 100.428H107.394L106.562 102.704H102.234L108.556 86.9395H111.728L117.999 102.704H113.63H113.636ZM110.183 91.8476H110.121L108.5 97.2328H111.808L110.186 91.8476H110.183Z" fill="#00A3E0"/>
<defs>
<linearGradient id="paint0_linear_1380_2744" x1="44.6996" y1="52.9946" x2="88.9288" y2="52.9946" gradientUnits="userSpaceOnUse">
<stop stop-color="#00A3E0"/>
<stop offset="1" stop-color="#005591"/>
</linearGradient>
<linearGradient id="paint1_linear_1380_2744" x1="44.7002" y1="57.819" x2="88.9294" y2="57.819" gradientUnits="userSpaceOnUse">
<stop stop-color="#00A3E0"/>
<stop offset="1" stop-color="#005591"/>
</linearGradient>
<linearGradient id="paint2_linear_1380_2744" x1="68.9884" y1="36.5927" x2="58.3987" y2="75.4188" gradientUnits="userSpaceOnUse">
<stop stop-color="#FFDB00"/>
<stop offset="1" stop-color="#F47D20"/>
</linearGradient>
<linearGradient id="paint3_linear_1380_2744" x1="89.8597" y1="59.3484" x2="44.6999" y2="59.3484" gradientUnits="userSpaceOnUse">
<stop stop-color="#FFC30D"/>
<stop offset="0.12" stop-color="#EFAF13"/>
<stop offset="0.31" stop-color="#DC971C"/>
<stop offset="0.51" stop-color="#CE8622"/>
<stop offset="0.73" stop-color="#C67C25"/>
<stop offset="1" stop-color="#C47927"/>
</linearGradient>
<linearGradient id="paint4_linear_1380_2744" x1="44.703" y1="52.9889" x2="88.6476" y2="52.9889" gradientUnits="userSpaceOnUse">
<stop stop-color="#00A3E0"/>
<stop offset="1" stop-color="#005591"/>
</linearGradient>
<linearGradient id="paint5_linear_1380_2744" x1="44.7035" y1="57.7813" x2="88.6481" y2="57.7813" gradientUnits="userSpaceOnUse">
<stop stop-color="#00A3E0"/>
<stop offset="1" stop-color="#005591"/>
</linearGradient>
<linearGradient id="paint6_linear_1380_2744" x1="45.1504" y1="61.5277" x2="89.4655" y2="61.5277" gradientUnits="userSpaceOnUse">
<stop stop-color="#00A3E0"/>
<stop offset="1" stop-color="#005591"/>
</linearGradient>
</defs>
</svg>
