<svg width="130" height="130" viewBox="0 0 130 130" fill="none" xmlns="http://www.w3.org/2000/svg">
<path d="M50.8491 34.5749L54.7495 36.8363C55.3749 37.1979 56.1574 36.7474 56.1574 36.0242V33.4724C56.1574 33.1375 55.9795 32.8292 55.6891 32.6603L51.7887 30.4048C51.1633 30.0432 50.3809 30.4937 50.3809 31.2169V33.7628C50.3809 34.0977 50.5587 34.406 50.8491 34.5749Z" fill="white"/>
<path d="M59.6148 39.6189L63.5152 41.8803C64.1405 42.2419 64.923 41.7914 64.923 41.0682V38.5163C64.923 38.1814 64.7452 37.8732 64.4547 37.7042L60.5543 35.4488C59.9289 35.0872 59.1465 35.5377 59.1465 36.2609V38.8068C59.1465 39.1417 59.3243 39.4499 59.6148 39.6189Z" fill="white"/>
<path d="M68.6851 44.8435L72.5855 47.1049C73.2108 47.4665 73.9933 47.016 73.9933 46.2928V43.7409C73.9933 43.406 73.8155 43.0978 73.525 42.9288L69.6246 40.6734C68.9992 40.3118 68.2168 40.7623 68.2168 41.4855V44.0314C68.2168 44.3663 68.3946 44.6745 68.6851 44.8435Z" fill="white"/>
<path d="M76.9312 49.5534L80.8316 51.8148C81.4569 52.1764 82.2394 51.7259 82.2394 51.0028V48.4509C82.2394 48.116 82.0616 47.8077 81.7711 47.6388L77.8707 45.3833C77.2453 45.0218 76.4629 45.4723 76.4629 46.1954V48.7414C76.4629 49.0763 76.6407 49.3845 76.9312 49.5534Z" fill="white"/>
<path d="M59.1879 61.5895L56.4375 59.7253V46.1006L59.1879 47.9648V61.5895Z" fill="white"/>
<path d="M67.2675 61.1102L65.75 60.0817V52.5625L67.2675 53.5909V61.1102Z" fill="white"/>
<path d="M46 33.5844V70.2944C46 75.1135 51.2193 78.1278 55.3924 75.7182L87.1853 57.3632C91.3613 54.9536 91.3613 48.9282 87.1853 46.5186L55.3924 28.1606C51.2163 25.751 46 28.7623 46 33.5844Z" fill="url(#paint0_linear_1380_1304)"/>
<path d="M51.6645 34.6838L55.5412 36.9304C56.1636 37.289 56.9402 36.8415 56.9402 36.1242V33.5872C56.9402 33.2553 56.7623 32.947 56.4748 32.781L52.5981 30.5404C51.9757 30.1818 51.1992 30.6293 51.1992 31.3465V33.8777C51.1992 34.2096 51.3771 34.5178 51.6645 34.6838Z" fill="white"/>
<path d="M60.3696 39.6985L64.2463 41.945C64.8687 42.3037 65.6452 41.8561 65.6452 41.1389V38.6019C65.6452 38.2699 65.4674 37.9617 65.1799 37.7957L61.3032 35.555C60.6808 35.1964 59.9043 35.644 59.9043 36.3612V38.8923C59.9043 39.2243 60.0821 39.5325 60.3696 39.6985Z" fill="white"/>
<path d="M69.0806 44.7219L72.9572 46.9685C73.5796 47.3271 74.3562 46.8796 74.3562 46.1623V43.6253C74.3562 43.2933 74.1783 42.9851 73.8908 42.8191L70.0142 40.5785C69.3918 40.2199 68.6152 40.6674 68.6152 41.3846V43.9157C68.6152 44.2477 68.7931 44.5559 69.0806 44.7219Z" fill="white"/>
<path d="M87.1853 46.5151C87.5173 47.8517 87.9203 49.7249 85.6678 50.7741L68.1576 59.1469V53.7972L64.9329 51.6632L61.732 53.7794V47.9407L55.6799 43.9365L49.6277 47.9407V57.3538C47.3752 54.9145 46 51.6573 46 48.077V68.4859C46 73.3051 51.2193 76.3193 55.3924 73.9097L66.0147 67.7775H68.1546V66.5416L87.1824 55.5577C88.6435 54.713 89.5919 53.4267 90.0306 52.007C89.6423 50.7504 88.3738 47.3509 87.1824 46.518L87.1853 46.5151Z" fill="url(#paint1_linear_1380_1304)"/>
<path d="M63.2674 63.9758H51.1602V46.0031L57.2152 42.002L63.2674 46.0031V63.9758Z" fill="url(#paint2_linear_1380_1304)"/>
<path d="M69.6885 65.8369H63.2422V51.8566L66.4668 49.7256L69.6885 51.8566V65.8369Z" fill="url(#paint3_linear_1380_1304)"/>
<path d="M55.3924 75.7185L87.1853 57.3635C91.3613 54.9539 91.3613 48.9285 87.1853 46.5189L87.1379 46.4922C87.6832 47.162 87.9826 48.0986 87.9826 49.0292C87.9826 50.6149 87.0312 51.9812 85.6678 52.5828L64.5535 62.6806C63.042 63.2556 61.4 63.5727 59.684 63.5727C52.1262 63.5727 46 57.4465 46 49.8887V70.2976C46 75.1168 51.2193 78.131 55.3924 75.7214V75.7185Z" fill="url(#paint4_linear_1380_1304)"/>
<path d="M77.7856 49.7112L81.6623 51.9577C82.2847 52.3164 83.0612 51.8688 83.0612 51.1516V48.6145C83.0612 48.2826 82.8834 47.9744 82.5959 47.8084L78.7192 45.5677C78.0968 45.2091 77.3203 45.6566 77.3203 46.3739V48.905C77.3203 49.2369 77.4981 49.5452 77.7856 49.7112Z" fill="white"/>
<path d="M59.9475 61.5269L57.2148 59.6745V46.1387L59.9475 47.9881V61.5269Z" fill="white"/>
<path d="M67.9744 61.05L66.4688 60.0304V52.5586L67.9744 53.5782V61.05Z" fill="white"/>
<path d="M21.4465 101.82C20.4743 102.612 19.1732 103.006 17.5372 103.006C15.9012 103.006 14.52 102.591 13.5034 101.758C12.4009 100.872 11.8496 99.6151 11.8496 97.9939V97.4841H15.8537C15.8537 98.065 15.9812 98.5541 16.239 98.9512C16.5295 99.4076 16.9504 99.6388 17.4957 99.6388C18.5153 99.6388 19.025 99.135 19.025 98.1302C19.025 97.6738 18.8472 97.3033 18.4945 97.0188C18.3552 96.9091 18.1744 96.7965 17.9551 96.6868L17.6528 96.5416L15.9367 95.8036C15.3677 95.5695 14.8786 95.3294 14.4696 95.0864C13.9836 94.8019 13.5746 94.4936 13.2426 94.1617C12.472 93.3792 12.0897 92.4219 12.0897 91.2927C12.0897 89.8997 12.6736 88.7586 13.8354 87.8724C14.9023 87.0603 16.159 86.6543 17.5994 86.6543C18.4115 86.6543 19.188 86.7995 19.929 87.09C20.7322 87.4101 21.3783 87.8606 21.8644 88.4415C22.5164 89.2447 22.8632 90.282 22.9047 91.5505H18.9213C18.7701 90.5251 18.287 90.0123 17.4749 90.0123C16.5532 90.0123 16.0908 90.4243 16.0908 91.2512C16.0908 91.5416 16.1383 91.7639 16.2361 91.918C16.3961 92.1878 16.8763 92.5227 17.6824 92.9169L19.3451 93.6667C19.926 93.9305 20.4121 94.1824 20.8004 94.4254C21.2716 94.7159 21.6599 95.0241 21.9651 95.3502C22.6735 96.1 23.0262 97.0425 23.0262 98.1777C23.0262 99.7574 22.4986 100.975 21.4465 101.829V101.82Z" fill="black"/>
<path d="M41.4345 94.5707C41.4345 96.9892 40.6373 99.0046 39.0427 100.614C37.4423 102.223 35.4328 103.027 33.0232 103.027C30.6136 103.027 28.7168 102.232 27.0955 100.644C25.4654 99.0432 24.6504 97.0811 24.6504 94.7575C24.6504 92.4338 25.4803 90.4836 27.137 88.9247C28.7583 87.4072 30.7411 86.6484 33.0854 86.6484C34.8311 86.6484 36.4523 87.1582 37.9431 88.1778C39.4903 89.2329 40.498 90.5785 40.9692 92.2234H36.4553C35.6936 90.866 34.5347 90.1843 32.9817 90.1843C31.7191 90.1843 30.6788 90.6348 29.8608 91.5358C29.0695 92.4101 28.6753 93.483 28.6753 94.7604C28.6753 96.0378 29.0606 97.1997 29.8282 98.0888C30.6403 99.0254 31.6954 99.4937 32.9995 99.4937C33.9064 99.4937 34.6918 99.2892 35.3498 98.8801C36.0582 98.4356 36.5294 97.7954 36.7635 96.9566H32.0629V93.7438H41.4108C41.4168 93.8683 41.4256 94.0076 41.4316 94.1588V94.5737L41.4345 94.5707Z" fill="black"/>
<path d="M63.0131 102.704L63.1376 90.9021L63.0961 90.8606L59.7381 102.704H57.0766L53.7067 90.8606L53.6652 90.9021L53.7897 102.704H50.0879V86.9395H55.2657L58.3955 97.3188H58.437L61.5253 86.9395H66.7149V102.704H63.0131Z" fill="black"/>
<path d="M69.5645 102.704V86.9395H78.3196V90.4753H73.4204V92.9293H78.1625V96.4652H73.4204V99.1682H78.3196V102.704H69.5645Z" fill="black"/>
<path d="M86.0987 102.704H80.5859V86.9395H85.8052C86.5818 86.9395 87.2605 86.978 87.8443 87.055C88.5231 87.144 89.1366 87.2921 89.6849 87.4907C90.9119 87.9353 91.9374 88.7326 92.7643 89.8825C93.7364 91.2281 94.2195 92.8612 94.2195 94.7817C94.2195 100.063 91.5136 102.707 86.0987 102.707V102.704ZM89.2818 91.7231C88.6149 90.8902 87.6428 90.4753 86.3595 90.4753H84.6138V99.1682H86.3387C87.6547 99.1682 88.6416 98.7651 89.2907 97.9619C89.8953 97.2269 90.1947 96.1866 90.1947 94.841C90.1947 93.4954 89.8894 92.4759 89.2788 91.7201L89.2818 91.7231Z" fill="black"/>
<path d="M96.6035 102.704V86.9395H100.628V102.704H96.6035Z" fill="black"/>
<path d="M113.636 102.704L112.866 100.428H107.394L106.562 102.704H102.234L108.556 86.9395H111.728L117.999 102.704H113.63H113.636ZM110.183 91.8476H110.121L108.5 97.2328H111.808L110.186 91.8476H110.183Z" fill="black"/>
<defs>
<linearGradient id="paint0_linear_1380_1304" x1="69.838" y1="36.5927" x2="59.2483" y2="75.4188" gradientUnits="userSpaceOnUse">
<stop stop-color="#C9C9C9"/>
<stop offset="1" stop-color="#7C7C7C"/>
</linearGradient>
<linearGradient id="paint1_linear_1380_1304" x1="90.7093" y1="59.3484" x2="45.5495" y2="59.3484" gradientUnits="userSpaceOnUse">
<stop stop-color="#919191"/>
<stop offset="1" stop-color="#454545"/>
</linearGradient>
<linearGradient id="paint2_linear_1380_1304" x1="45.5526" y1="52.9889" x2="89.4972" y2="52.9889" gradientUnits="userSpaceOnUse">
<stop stop-color="#858585"/>
<stop offset="1"/>
</linearGradient>
<linearGradient id="paint3_linear_1380_1304" x1="45.5511" y1="57.7813" x2="89.4958" y2="57.7813" gradientUnits="userSpaceOnUse">
<stop stop-color="#858585"/>
<stop offset="1"/>
</linearGradient>
<linearGradient id="paint4_linear_1380_1304" x1="46" y1="61.5277" x2="90.3151" y2="61.5277" gradientUnits="userSpaceOnUse">
<stop stop-color="#858585"/>
<stop offset="1"/>
</linearGradient>
</defs>
</svg>
