<svg width="105" height="70" viewBox="0 0 105 70" fill="none" xmlns="http://www.w3.org/2000/svg">
<g clipPath="url(#clip0_88_341)">
<path d="M4.49658 63.2896C4.69315 63.5176 4.79963 63.7049 4.79963 63.9166C4.79963 64.2261 4.54572 64.4785 4.20991 64.4785C3.98877 64.4785 3.78401 64.3401 3.64477 64.2016C3.34991 63.9003 3.1042 63.7293 2.63734 63.7293C1.99848 63.7293 1.62991 64.0551 1.62991 64.5111C1.62991 64.8531 1.81829 65.1625 2.44896 65.4068L2.85848 65.5616C4.48839 66.1805 5.15182 66.7668 5.14363 67.7684C5.14363 69.2016 3.71029 69.9182 2.4981 69.9182C1.67086 69.9182 0.802668 69.5844 0.294858 68.9411C0.188381 68.8189 0 68.5746 0 68.2652C0 67.972 0.188381 67.6707 0.573334 67.6707C0.884573 67.6707 1.09753 67.8661 1.24495 68.0697C1.61353 68.5257 2.10496 68.6723 2.4981 68.6723C3.0141 68.6723 3.71029 68.4769 3.71029 67.7684C3.71029 67.231 3.34172 66.9785 2.53905 66.6609L2.09677 66.4899C1.01562 66.0746 0.221143 65.5534 0.229334 64.4867C0.229334 63.2489 1.27772 62.4834 2.5882 62.4834C3.50553 62.4834 4.07067 62.8254 4.48839 63.2896H4.49658Z" fill="black"/>
<path d="M11.3028 66.9216C11.3028 67.4591 10.9998 67.6463 10.4428 67.6463L7.33861 67.6219C7.46147 68.3792 8.06756 68.7864 8.82928 68.7864C9.20604 68.7864 9.38623 68.705 9.69747 68.5665C9.88585 68.4851 10.0333 68.4037 10.2135 68.4037C10.5083 68.4037 10.6885 68.6154 10.6803 68.8678C10.6803 69.0389 10.6066 69.218 10.3445 69.4379C9.95957 69.7066 9.43538 69.8858 8.77195 69.8858C7.37956 69.8858 5.90527 69.0307 5.90527 67.1333C5.90527 65.2604 7.46966 64.3564 8.65728 64.3564C9.85309 64.3564 11.2946 65.2929 11.2946 66.9134L11.3028 66.9216ZM7.33861 66.6854H9.95138C9.8449 65.8874 9.26338 65.5535 8.66547 65.5535C8.06756 65.5535 7.4287 65.8874 7.33861 66.6854Z" fill="black"/>
<path d="M17.5357 65.09V69.2431C17.5357 69.6177 17.1917 69.919 16.8313 69.919C16.4546 69.919 16.1433 69.6177 16.1433 69.2431V69.0476C16.0614 69.3734 15.5045 69.9352 14.5953 69.9352C13.4486 69.9352 12.0645 69.0476 12.0645 67.1502C12.0645 65.3017 13.4568 64.3896 14.5953 64.3896C15.3407 64.3896 15.9386 64.7887 16.1433 65.2773V65.0981C16.1433 64.7317 16.4546 64.4222 16.8313 64.4222C17.1999 64.4222 17.5357 64.7317 17.5275 65.0981L17.5357 65.09ZM16.2007 67.1502C16.2007 65.9776 15.4307 65.546 14.841 65.546C14.153 65.546 13.4241 66.0835 13.4241 67.1421C13.4241 68.217 14.1448 68.7463 14.8328 68.7463C15.4226 68.7463 16.1925 68.3229 16.1925 67.1421L16.2007 67.1502Z" fill="black"/>
<path d="M22.5892 63.1434C22.5892 63.4366 22.3681 63.632 22.0732 63.632C21.9831 63.632 21.8357 63.5995 21.6309 63.5343C21.4917 63.4855 21.4098 63.4529 21.2787 63.4529C20.689 63.4529 20.6153 63.9334 20.6153 64.1369V64.4464H21.4753C21.8111 64.4464 22.0322 64.6662 22.0322 64.992C22.0322 65.3014 21.8111 65.5213 21.4753 65.5213H20.6153V69.2428C20.6153 69.6174 20.2959 69.9187 19.9191 69.9187C19.5505 69.9187 19.2393 69.6174 19.2393 69.2428V65.5213H18.928C18.5922 65.5213 18.3711 65.3014 18.3711 64.992C18.3711 64.6662 18.5922 64.4545 18.928 64.4545H19.2393V64.0718C19.2393 62.6141 20.4023 62.3047 21.074 62.3047C21.5326 62.3047 21.934 62.4187 22.2124 62.5978C22.45 62.7444 22.581 62.9236 22.581 63.1516L22.5892 63.1434Z" fill="black"/>
<path d="M27.8554 67.1747C27.8554 69.0395 26.2501 69.9352 25.0625 69.9352C23.8585 69.9352 22.2695 69.0313 22.2695 67.1665C22.2695 65.318 23.8667 64.3896 25.0625 64.3896C26.2583 64.3896 27.8554 65.318 27.8554 67.1747ZM23.6292 67.1747C23.6292 68.1763 24.3172 68.7545 25.0625 68.7545C25.7914 68.7545 26.4958 68.1763 26.4958 67.1747C26.4958 66.1649 25.7996 65.5867 25.0625 65.5786C24.3172 65.5786 23.6292 66.1568 23.6292 67.1665V67.1747Z" fill="black"/>
<path d="M34.2031 67.1747C34.2031 69.0395 32.5978 69.9434 31.4101 69.9352C30.2061 69.9352 28.6172 69.0232 28.6172 67.1665C28.6172 65.318 30.2143 64.3896 31.4101 64.3896C32.606 64.3896 34.2031 65.318 34.2031 67.1665V67.1747ZM29.9768 67.1747C29.9768 68.1763 30.6648 68.7545 31.4101 68.7626C32.1391 68.7626 32.8435 68.1844 32.8435 67.1828C32.8435 66.173 32.1473 65.5867 31.4101 65.5867C30.6648 65.5867 29.9768 66.1649 29.9768 67.1747Z" fill="black"/>
<path d="M40.4365 63.1267V69.2668C40.4365 69.6414 40.0925 69.9427 39.7239 69.9427C39.3553 69.9427 39.0359 69.6414 39.0359 69.2668V69.0714C38.954 69.3971 38.397 69.959 37.4879 69.9508C36.3412 69.9508 34.957 69.0632 34.957 67.174C34.957 65.3254 36.3494 64.4052 37.4961 64.4134C38.2414 64.4134 38.8393 64.8124 39.0441 65.301V65.1219C39.0441 65.0811 39.0441 65.0486 39.0523 65.0078V63.1349C39.0523 62.7684 39.3717 62.459 39.7321 62.459C40.0925 62.459 40.4283 62.7684 40.4283 63.1349L40.4365 63.1267ZM39.1014 67.174C39.1014 66.0013 38.3315 65.5697 37.7418 65.5697C37.0538 65.5697 36.3248 66.1072 36.3248 67.1658C36.3248 68.2407 37.0456 68.7701 37.7336 68.7701C38.3233 68.7701 39.0932 68.3466 39.0932 67.174H39.1014Z" fill="black"/>
<path d="M50.1587 69.267C50.1587 69.6335 49.8885 69.9185 49.5199 69.9185C49.2987 69.9185 49.1104 69.8126 48.9957 69.6579L47.1446 67.3045H46.1045V69.2507C46.1045 69.6335 45.785 69.9592 45.4001 69.9592C44.9987 69.9592 44.6875 69.6335 44.6875 69.2507V63.3713C44.6875 62.9234 45.0151 62.5977 45.4656 62.5977H47.3822C49.0121 62.5977 50.0605 63.6563 50.0605 64.9674C50.0605 65.9446 49.4953 66.7426 48.5452 67.1091L49.9867 68.8354C50.0768 68.9494 50.1506 69.096 50.1506 69.2589L50.1587 69.267ZM46.1126 66.1074H47.3248C48.1111 66.1074 48.6927 65.8306 48.6927 64.9674C48.6927 64.1123 48.1111 63.8029 47.3248 63.8029H46.1126V66.1156V66.1074Z" fill="black"/>
<path d="M56.1788 66.9704C56.1788 67.5079 55.8757 67.6952 55.3188 67.6952L52.2146 67.6707C52.3374 68.4281 52.9435 68.8352 53.7053 68.8352C54.082 68.8352 54.2622 68.7538 54.5734 68.6154C54.7618 68.5339 54.9093 68.4525 55.0895 68.4525C55.3843 68.4525 55.5645 68.6642 55.5563 68.9167C55.5563 69.0877 55.4826 69.2668 55.2205 69.4867C54.8355 69.7554 54.3114 69.9346 53.6479 69.9346C52.2555 69.9346 50.7812 69.0795 50.7812 67.1821C50.7812 65.3092 52.3456 64.4053 53.5333 64.4053C54.7291 64.4053 56.1706 65.3418 56.1706 66.9623L56.1788 66.9704ZM52.2146 66.7343H54.8274C54.7209 65.9362 54.1394 65.6023 53.5414 65.6023C52.9435 65.6023 52.3047 65.9362 52.2146 66.7343Z" fill="black"/>
<path d="M60.7243 65.187C60.7898 65.2847 60.8881 65.4232 60.8881 65.643C60.8881 65.9769 60.6588 66.1561 60.3557 66.1561C60.1592 66.1561 59.9626 66.0828 59.7824 65.8629C59.5695 65.6268 59.3319 65.5127 59.0289 65.5127C58.6194 65.5127 58.3818 65.7082 58.3818 66.0013C58.3818 66.1642 58.4474 66.3841 58.9224 66.5225L59.5613 66.7098C60.3967 66.9378 61.1011 67.3369 61.0929 68.2652C61.0929 69.4053 60.0281 69.959 58.9388 69.959C57.9969 69.959 57.4317 69.56 57.1369 69.2098C57.0877 69.1365 56.8584 68.8759 56.8584 68.5502C56.8584 68.3222 57.0058 68.029 57.3826 68.029C57.6611 68.029 57.8249 68.2082 57.9477 68.3629C58.2508 68.7375 58.5866 68.8434 58.9388 68.8434C59.4466 68.8434 59.7333 68.6235 59.7333 68.3385C59.7333 68.1593 59.6186 67.9313 59.119 67.7847L58.5211 67.6056C57.4645 67.3124 57.0222 66.7505 57.0304 66.0095C57.0304 64.9671 57.9969 64.4297 58.9879 64.4297C59.7005 64.4297 60.3803 64.7147 60.7243 65.1952V65.187Z" fill="black"/>
<path d="M65.0493 69.2351C65.0493 69.7156 64.5743 69.9599 63.8617 69.9599C63.1491 69.9599 62.4284 69.7318 62.4284 68.2823V65.5706H62.1253C61.7895 65.5706 61.5684 65.3507 61.5684 65.0413C61.5684 64.7156 61.7895 64.5038 62.1253 64.5038H62.4284V63.7954C62.4284 63.4208 62.7478 63.1113 63.1246 63.1113C63.5013 63.1113 63.8044 63.4208 63.8044 63.7954V64.5038H64.4924C64.8364 64.5038 65.0493 64.7237 65.0493 65.0494C65.0493 65.3589 64.8364 65.5788 64.4924 65.5788H63.8044V68.3312C63.8044 68.6325 63.9027 68.7872 64.132 68.7872C64.2467 68.7872 64.4105 68.7465 64.5251 68.7465C64.8364 68.7302 65.0411 68.9175 65.0411 69.2351H65.0493Z" fill="black"/>
<path d="M71.1509 65.1466V69.2997C71.1509 69.6743 70.8069 69.9756 70.4466 69.9756C70.0698 69.9756 69.7585 69.6743 69.7585 69.2997V69.1043C69.6766 69.43 69.1197 69.9919 68.2105 69.9919C67.0557 69.9919 65.6797 69.1043 65.6797 67.2069C65.6797 65.3583 67.0721 64.4463 68.2187 64.4463C68.9641 64.4463 69.562 64.8453 69.7667 65.3339V65.1548C69.7667 64.7883 70.078 64.4789 70.4547 64.4789C70.8233 64.4789 71.1591 64.7883 71.1591 65.1548L71.1509 65.1466ZM69.8159 67.2069C69.8159 66.0342 69.046 65.6026 68.4563 65.6026C67.7683 65.6026 67.0393 66.1401 67.0393 67.1987C67.0393 68.2736 67.7601 68.803 68.4481 68.803C69.0378 68.803 69.8077 68.3795 69.8077 67.1987L69.8159 67.2069Z" fill="black"/>
<path d="M72.4037 67.5V65.1466C72.4037 64.772 72.7231 64.4707 73.0999 64.4707C73.4767 64.4707 73.7797 64.772 73.7797 65.1466V67.5C73.7797 68.4365 74.2629 68.8192 74.8854 68.8192C75.8273 68.8192 76.1386 67.9479 76.1877 67.6547V65.1466C76.1877 64.772 76.5071 64.4707 76.8675 64.4707C77.2443 64.4707 77.5555 64.772 77.5555 65.1466V69.2753C77.5555 69.6499 77.2361 69.9593 76.8593 69.9593C76.4908 69.9593 76.1795 69.6499 76.1795 69.2753V68.7541C76.1386 69.1287 75.5161 69.9837 74.3858 69.9756C73.3292 69.9756 72.3955 69.2834 72.3955 67.4837L72.4037 67.5Z" fill="black"/>
<path d="M82.4703 65.0897C82.4703 65.4724 82.1755 65.733 81.594 65.733C80.7667 65.733 80.2425 66.3682 80.1934 66.7916V69.2998C80.1934 69.6662 79.874 69.9756 79.5054 69.9756C79.1286 69.9756 78.8174 69.6662 78.8174 69.2998V65.1711C78.8174 64.7965 79.1368 64.4871 79.5136 64.4871C79.8821 64.4871 80.1934 64.7965 80.1934 65.1711V65.6923C80.2343 65.3177 80.8814 64.4626 81.8233 64.4708C82.2492 64.4708 82.4703 64.7639 82.4703 65.0978V65.0897Z" fill="black"/>
<path d="M88.3668 65.1708V69.3238C88.3668 69.6984 88.0228 69.9997 87.6624 69.9997C87.302 69.9997 86.9744 69.6984 86.9744 69.3238V69.1284C86.8925 69.4541 86.3355 70.016 85.4264 70.016C84.2715 70.016 82.8955 69.1284 82.8955 67.2392C82.8955 65.3906 84.2879 64.4704 85.4346 64.4786C86.1799 64.4786 86.7778 64.8776 86.9826 65.3662V65.187C86.9826 64.8206 87.2938 64.5111 87.6706 64.5111C88.0473 64.5111 88.3749 64.8206 88.3749 65.187L88.3668 65.1708ZM87.0317 67.231C87.0317 66.0584 86.2618 65.6268 85.6721 65.6268C84.9841 65.6268 84.2633 66.1642 84.2551 67.2229C84.2551 68.2978 84.9759 68.8271 85.6639 68.8271C86.2536 68.8271 87.0235 68.4037 87.0235 67.2229L87.0317 67.231Z" fill="black"/>
<path d="M94.7723 66.9622V69.3157C94.7723 69.6902 94.4529 69.9915 94.0761 69.9915C93.7075 69.9915 93.3963 69.6902 93.3963 69.3157V66.9622C93.3963 66.0257 92.9049 65.643 92.2906 65.643C91.3487 65.643 91.0374 66.5143 90.9883 66.8075V69.3157C90.9883 69.6902 90.6689 69.9915 90.3003 69.9915C89.9235 69.9915 89.6123 69.6902 89.6123 69.3157V65.187C89.6123 64.8124 89.9317 64.5029 90.3085 64.5029C90.6771 64.5029 90.9883 64.8124 90.9883 65.187V65.7082C91.0293 65.3336 91.6435 64.4785 92.7738 64.4785C93.8304 64.4785 94.7641 65.1707 94.7559 66.9704L94.7723 66.9622Z" fill="black"/>
<path d="M98.9741 69.2673C98.9741 69.7478 98.4991 69.9921 97.7865 69.9921C97.0739 69.9921 96.3532 69.7641 96.3532 68.3146V65.6028H96.0501C95.7143 65.6028 95.4932 65.383 95.4932 65.0735C95.4932 64.7478 95.7143 64.5361 96.0501 64.5361H96.3532V63.8276C96.3532 63.453 96.6726 63.1436 97.0412 63.1436C97.4179 63.1436 97.721 63.453 97.721 63.8276V64.5361H98.409C98.753 64.5361 98.9659 64.7559 98.9659 65.0817C98.9659 65.3911 98.753 65.611 98.409 65.611H97.721V68.3634C97.721 68.6647 97.8193 68.8195 98.0486 68.8195C98.1633 68.8195 98.3271 68.7787 98.4417 68.7787C98.753 68.7624 98.9577 68.9497 98.9577 69.2673H98.9741Z" fill="black"/>
<path d="M68.2679 0C68.702 0 68.915 0.301303 68.915 0.895765C68.915 1.49023 68.3171 2.87459 67.1131 5.04886C65.9173 7.22313 64.9098 8.85993 64.1153 9.95928C63.6239 10.6922 63.0424 11.0586 62.3872 11.0586C61.7319 11.0586 61.3961 10.8469 61.3961 10.4153L61.4452 10C61.8466 8.50163 62.0432 7.23127 62.0432 6.18892C62.0432 4.60098 61.6091 3.80293 60.7491 3.80293C60.3805 3.80293 60.0119 3.93322 59.6433 4.19381C59.2748 4.4544 58.9963 4.72313 58.8161 5L58.5376 5.41531C58.1035 6.11564 55.5071 10.4886 50.7403 18.5342C49.6673 20.3664 48.5534 22.4593 47.4149 24.7964C46.2765 27.1336 45.3509 28.9739 44.6465 30.3013C43.9422 31.6287 43.2296 32.5814 42.5252 33.1433C41.8208 33.7052 40.6742 33.9902 39.0852 33.9902C37.4962 33.9902 36.71 33.7296 36.71 33.2085V33.07C36.71 32.7606 37.5208 31.3274 39.1589 28.7541C45.1544 19.3648 49.6919 11.6857 52.7715 5.72476C53.05 5.17101 53.1892 4.78013 53.1892 4.53583C53.1892 4.13681 52.9271 3.94137 52.4029 3.94137C50.7075 3.94137 48.1275 5.83876 44.6547 9.63355C44.3189 10.2443 43.5326 10.5537 42.3041 10.5537C42.0256 10.5537 41.8864 10.4153 41.8864 10.1384C41.8864 9.92671 42.0829 9.47883 42.4843 8.81107L43.4098 7.15798C46.1045 2.443 47.8736 0.0895765 48.709 0.0895765C50.3062 0.0895765 51.5102 0.399023 52.3047 1.00977C54.4588 0.952769 56.4409 0.920195 58.2591 0.920195C60.0774 0.920195 61.8712 0.952769 63.6567 1.00977C65.1965 0.333876 66.7363 0 68.2679 0Z" fill="black"/>
<path d="M63.1814 29.5193C63.1814 29.275 63.0504 29.1528 62.7883 29.1528C62.5262 29.1528 61.5188 29.9509 59.766 31.5388C59.119 32.1496 58.2835 32.7114 57.2515 33.2163C56.2195 33.7212 55.1957 33.9737 54.1801 33.9737C52.9188 33.9737 52.2881 33.0372 52.2881 31.1724C52.2881 28.8515 53.3037 26.1724 55.3349 23.143C56.3833 21.6121 57.5873 20.2033 58.9551 18.9004C60.323 17.5974 61.9938 16.5307 63.9595 15.6919C65.9253 14.8531 67.9893 14.4297 70.1434 14.4297C71.2818 14.4297 72.3138 14.7799 73.2312 15.4883C73.911 15.9769 74.2468 16.661 74.2468 17.5323C74.2468 18.4036 73.9847 18.8434 73.4605 18.8434C73.182 18.8434 72.7152 18.6154 72.0517 18.1512C71.3883 17.6952 70.1352 17.459 68.2923 17.459C65.8597 17.459 63.5664 18.5502 61.3959 20.7408C59.2254 22.9313 58.1443 25.0893 58.1443 27.231C58.1443 27.5079 58.2262 27.7685 58.3982 28.0128C58.5702 28.2571 58.8077 28.3792 59.1108 28.3792C60.0363 28.3792 61.2157 27.744 62.6654 26.4737C64.107 25.2033 65.5239 23.3792 66.9081 20.9932L67.0965 20.7163C67.2194 20.529 67.5388 20.3417 68.0466 20.1463C68.5544 19.9509 69.2096 19.845 70.0041 19.845C71.1426 19.9671 71.7077 20.2114 71.7077 20.5779C71.7077 20.6105 71.675 20.6838 71.6177 20.8059L70.2826 22.8255C69.4226 24.1691 68.5053 25.8222 67.5388 27.7766C66.5723 29.731 65.9908 31.3271 65.8106 32.5486C65.7778 32.915 65.6222 33.1023 65.3519 33.1023C63.8449 33.1023 63.0913 32.231 63.0913 30.4883L63.1814 29.5274V29.5193Z" fill="black"/>
<path d="M83.7312 32.8744C82.8712 32.8744 82.4371 32.679 82.4371 32.28L82.5272 32.0031C84.3701 29.2507 85.3775 27.7849 86.7044 25.2279C88.023 22.6709 88.6865 21.0178 88.6865 20.2523C88.6865 20.008 88.6209 19.8126 88.4981 19.6823C88.3752 19.5438 88.1868 19.4624 87.9411 19.4298C86.7453 19.4298 85.1318 20.1953 83.1169 21.7262C81.1021 23.2572 79.3329 24.8288 77.8095 26.4494C76.286 28.0699 75.1558 29.3891 74.4186 30.4152C73.6815 31.4412 72.5758 31.9542 71.0933 31.9542C70.2906 31.9542 69.8975 31.7588 69.8975 31.3598C69.8975 30.5617 71.4045 27.7604 74.4186 22.9396C77.4327 18.1269 79.4312 15.5292 80.4141 15.1627C80.9382 14.8614 81.6017 14.7067 82.4207 14.7067C83.2398 14.7067 83.6411 14.8696 83.6411 15.1871C83.6411 15.5047 83.2725 16.2051 82.5354 17.2718C81.7982 18.3386 81.4297 19.0308 81.4297 19.3321C81.487 19.5764 81.6181 19.6985 81.8228 19.6985C82.0276 19.6985 82.1996 19.6415 82.3552 19.5112C86.9091 15.9933 90.5375 14.2344 93.2404 14.2344C94.3788 14.2344 94.944 14.894 94.944 16.2051C94.944 17.0601 94.3051 18.9086 93.0274 21.7588C91.7497 24.6008 90.1362 27.3614 88.1868 30.0406C86.2293 32.7197 85.1236 32.8663 83.7148 32.8663L83.7312 32.8744Z" fill="black"/>
<path d="M23.0231 53.208L23.0723 54.1689C23.0723 54.6575 22.3351 54.9018 20.8608 54.9018C18.2481 54.9018 16.9376 54.3806 16.9376 53.3383C16.9376 52.3937 17.7239 50.0728 19.2883 46.392C20.8608 42.7112 21.6389 40.4474 21.6389 39.6249C21.6389 38.094 20.4431 37.3285 18.0433 37.3285H16.4707L14.3003 41.1396C13.3174 42.8497 12.2526 44.8529 11.1142 47.1494C9.97568 49.4458 9.08291 51.1396 8.43586 52.2389C7.78882 53.3383 7.15815 54.1363 6.54386 54.6249C5.46272 55.48 4.05395 55.9116 2.30119 55.9116C1.49852 55.9116 1.05623 55.7731 0.966135 55.4963C0.933373 55.4067 0.916992 55.252 0.916992 55.0402C0.916992 54.8285 1.35928 53.9735 2.25204 52.4914C3.14481 51.0093 4.53719 48.7454 6.42919 45.6998C8.3212 42.6542 9.97568 39.9262 11.3926 37.5158L8.20653 37.6542C7.99358 37.6542 7.83796 37.5321 7.74786 37.2878C7.74786 36.7666 8.02634 36.2699 8.5751 35.7976C9.13206 35.3252 9.63987 34.9995 10.0985 34.8366C10.5572 34.6656 11.5728 34.5516 13.1454 34.4946C14.6524 31.8318 15.9302 29.4946 16.9785 27.4751C17.6584 25.9116 17.9942 24.5353 17.9942 23.3464V22.9311C17.9942 22.1331 19.6241 21.7422 22.8839 21.7422C24.5466 21.7422 25.3738 22.0516 25.3738 22.6624C25.3738 22.9067 25.0298 23.4767 24.3336 24.3562C23.6374 25.2438 21.557 28.6396 18.0843 34.5435C19.0098 34.5109 19.8862 34.3155 20.7134 33.949C21.5407 33.5826 22.8675 32.5565 24.6776 30.879C26.4959 29.1933 28.7073 26.7666 31.3201 23.5826C31.3774 23.4604 31.5085 23.2976 31.6887 23.1021C31.8771 22.9067 32.4504 22.6461 33.4169 22.3204C34.3833 22.0028 35.7266 21.8399 37.4302 21.8399C39.1338 21.8399 39.9938 22.1168 39.9938 22.6624C39.9938 22.8497 38.6424 23.8839 35.9313 25.7813C27.8146 31.4735 23.7521 34.7715 23.7521 35.6917C23.7521 36.0907 24.2435 36.6363 25.2264 37.3448C26.2092 38.0451 26.7007 38.7536 26.7007 39.4539C26.7007 39.4865 26.0864 41.3594 24.8578 45.0728C23.6292 48.7862 23.0149 51.506 23.0149 53.2161L23.0231 53.208Z" fill="black"/>
<path d="M27.4052 56.2378C26.9711 56.2378 26.496 55.969 25.9718 55.4316C25.4476 54.8941 25.1855 54.2427 25.1855 53.4853C25.1855 53.0537 26.193 50.8958 28.2078 46.9951C30.2227 43.0944 31.2629 40.456 31.3202 39.0798C31.3202 38.6482 31.5987 38.2573 32.1475 37.8909C33.1303 37.3127 34.5964 37.0195 36.5294 37.0195C36.8979 37.0195 37.2911 37.0847 37.7088 37.2231C38.1265 37.3616 38.3313 37.5488 38.3313 37.7931C38.3313 37.9153 38.2821 38.0212 38.192 38.1107C37.0208 39.5765 35.3172 42.2231 33.073 46.0505C30.8288 49.8778 29.1334 52.9804 27.9949 55.3664C27.8393 55.9446 27.6427 56.2378 27.397 56.2378H27.4052Z" fill="black"/>
<path d="M58.4147 56.1969C57.8905 56.1969 57.4892 55.8793 57.2189 55.2523C56.9404 54.6253 56.8012 54.096 56.8012 53.6725C56.8012 52.052 58.0461 49.2507 60.5361 45.2767C61.3633 43.9331 61.781 43.0292 61.781 42.5732C61.781 42.1171 61.5681 41.881 61.134 41.881C59.9955 41.881 58.5048 42.7442 56.662 44.4706C54.8191 46.1969 53.2465 47.9315 51.9524 49.6741L50.0113 52.2393C49.4871 52.9722 48.6844 53.3386 47.5869 53.3386C46.4894 53.3386 45.9488 53.1432 45.9488 52.7442C45.9488 52.1334 46.6941 50.6106 48.1848 48.1839C49.6755 45.7491 50.4208 44.1204 50.4208 43.2979C50.4208 43.0536 50.3553 42.8582 50.216 42.7279C50.0768 42.5976 49.9294 42.5243 49.7737 42.5243C48.7909 42.5243 47.7016 42.9152 46.4976 43.6969C45.3017 44.4787 44.1715 45.4315 43.1313 46.5634C41.0673 48.7947 39.4128 50.8793 38.1514 52.8012L37.4143 53.9494C36.7672 54.8696 35.596 55.3256 33.9088 55.3256C33.1389 55.3256 32.7539 55.1302 32.7539 54.7311C32.7539 53.9087 34.3347 50.6921 37.5044 45.0976C40.6741 39.5031 42.7299 36.5227 43.6882 36.1562C44.2124 35.8549 44.925 35.7002 45.8341 35.7002C46.7433 35.7002 47.1937 35.8468 47.1937 36.1399C47.1937 36.4331 46.6614 37.3614 45.6048 38.9412C44.54 40.5129 44.0158 41.5634 44.0158 42.0846C44.1059 42.2963 44.2615 42.4021 44.4745 42.4021C44.6875 42.4021 44.9168 42.2963 45.1707 42.0846C45.4164 41.8728 45.8177 41.5308 46.3665 41.0504C46.9235 40.578 47.9391 39.951 49.4379 39.1692C50.9286 38.3875 52.28 37.9966 53.5004 37.9966C54.7208 37.9966 55.3187 38.5178 55.3187 39.5601C55.3187 40.293 55.1631 40.9689 54.86 41.5797C54.5488 42.1904 54.4014 42.5569 54.4014 42.679C54.4014 42.9233 54.5324 43.0455 54.7945 43.0455C55.0566 43.0455 55.2941 42.907 55.5071 42.6302C55.9658 42.1741 56.5719 41.6041 57.3336 40.9364C58.0871 40.2605 59.3484 39.3728 61.1176 38.2491C62.8867 37.1334 64.3283 36.5715 65.434 36.5715C66.941 36.5715 67.6945 37.2311 67.6945 38.5422C67.6945 39.6416 67.3014 40.9201 66.5151 42.3696C65.7288 43.8191 65.1964 44.8044 64.9262 45.3012C64.6477 45.8061 64.0744 46.7588 63.198 48.1676C62.3216 49.5764 61.7319 50.5292 61.4206 51.0341C61.1094 51.539 60.6917 52.3044 60.1511 53.3305C59.6105 54.3565 59.2174 55.0894 58.9717 55.5292C58.726 55.9689 58.5376 56.1969 58.4147 56.1969Z" fill="black"/>
<path d="M61.9199 56.0579C61.9199 55.8136 62.0919 55.6588 62.4277 55.6018C64.5818 55.6018 66.8834 54.9097 69.3241 53.5416C71.7731 52.1654 72.9935 50.7321 72.9935 49.2256C72.9935 48.1263 72.2563 47.0595 70.782 46.0416C69.3077 45.0155 68.5706 43.9406 68.5706 42.8087C68.5706 41.123 69.6436 39.6654 71.7977 38.4276C73.9518 37.1898 76.3925 36.5709 79.1363 36.5709C79.6278 36.5709 79.9472 36.5709 80.1028 36.5953C80.2584 36.6116 80.4059 36.522 80.5451 36.3184C80.6843 36.123 80.8482 35.895 81.0283 35.6507C81.2167 35.4064 81.5525 35.1865 82.044 34.9829C82.5354 34.7875 83.1169 34.6816 83.7967 34.6816C85.3693 34.6816 86.1474 34.9097 86.1474 35.3738C86.1474 35.4634 86.131 35.5448 86.0983 35.6018C85.6068 36.0334 84.7304 37.0839 83.4691 38.7696C82.2078 40.4553 81.2822 42.0269 80.7007 43.4927C80.5779 43.7696 80.3076 43.908 79.8899 43.908C79.4721 43.908 79.0626 43.6719 78.6695 43.1996C78.2681 42.7272 78.0716 42.2631 78.0716 41.8233C78.0716 41.3836 78.1453 40.9031 78.3009 40.3983C78.4565 39.8934 78.5302 39.5921 78.5302 39.5025C78.5302 39.1035 78.2845 38.908 77.7931 38.908C76.843 38.908 75.8438 39.193 74.8199 39.7549C73.7879 40.325 73.2719 41.1393 73.2719 42.2061C73.2719 43.2728 74.0419 44.2989 75.5817 45.3738C76.1632 45.8054 76.6956 46.351 77.1706 47.0269C77.6457 47.7028 77.8832 48.4031 77.8832 49.136C77.8832 51.2126 76.5154 53.1018 73.7798 54.8038C71.0441 56.4976 68.071 57.3527 64.8767 57.3527C63.0584 57.3527 62.0755 56.9211 61.9199 56.066V56.0579Z" fill="black"/>
<path d="M93.3388 49.7714C93.3388 49.5597 93.265 49.4538 93.1094 49.4538H93.0193L92.3231 49.7714C90.3247 51.7014 88.6947 53.0206 87.4334 53.7372C86.1721 54.4538 84.8616 54.8122 83.5102 54.8122C82.8959 54.8122 82.3389 54.6249 81.8475 54.2584C81.3561 53.892 81.1104 53.1916 81.1104 52.1493C81.1104 51.1069 81.6509 49.2747 82.7239 46.6444C83.7968 44.0141 85.1401 41.4978 86.7372 39.0955C88.3344 36.6933 89.7349 35.3415 90.9389 35.032C91.3403 34.9099 91.8808 34.8447 92.5525 34.8447C93.2241 34.8447 93.5681 35.032 93.5681 35.3985C93.5681 35.5206 93.0111 36.3675 91.9054 37.9473C90.7997 39.519 89.694 41.3187 88.6047 43.3382C87.5153 45.3578 86.9666 46.8724 86.9666 47.8822C86.9666 48.892 87.3187 49.3968 88.0313 49.3968C89.35 49.3968 90.8734 48.5418 92.6016 46.8317C94.3216 45.1216 96.5822 42.4099 99.3833 38.7128C100.153 37.6135 101.382 37.0597 103.077 37.0597C104.003 37.0597 104.461 37.247 104.461 37.6135C104.461 37.703 104.412 37.8252 104.322 37.9799C99.4898 45.3822 96.5904 50.6835 95.5993 53.9001C95.4765 54.2666 95.3209 54.4538 95.1407 54.4538H95.0014C93.7729 54.4538 93.1586 53.4766 93.1586 51.5141L93.3469 49.7714H93.3388Z" fill="black"/>
</g>
<defs>
<clipPath id="clip0_88_341">
<rect width="104.462" height="70" fill="white"/>
</clipPath>
</defs>
</svg>
