<svg width="130" height="130" viewBox="0 0 130 130" fill="none" xmlns="http://www.w3.org/2000/svg">
<path fill-rule="evenodd" clip-rule="evenodd" d="M67.4056 80.7292L66.1055 82.2122L66.4994 82.5598C66.7105 82.7555 66.9834 82.8765 67.089 82.8327C67.2718 82.758 67.3001 83.5896 67.3001 87.8867V93.0308H66.847C66.4221 93.0308 66.3938 93.0771 66.3938 93.5611V94.0915H69.8721V93.5766C69.8721 93.1234 69.8258 93.0462 69.4628 93.0024L69.038 92.9561L68.9916 86.7693C68.9607 81.1257 68.9762 80.5516 69.2182 80.2941C69.4602 80.0212 69.4447 79.9903 69.0817 79.6273L68.7033 79.2334L67.4031 80.7318L67.4056 80.7292Z" fill="#9A5D36"/>
<path fill-rule="evenodd" clip-rule="evenodd" d="M9.35804 80.1997C9.37349 80.73 9.69017 81.0467 10.2669 81.1085C10.6454 81.1394 10.8719 81.2759 11.0985 81.6234C11.2813 81.8963 12.2184 84.4375 13.2019 87.2953C15.7431 94.6767 15.4856 94.0871 16.0907 94.0871C16.5592 94.0871 16.621 94.0408 16.7575 93.513C16.8476 93.2092 17.4243 90.9719 18.0422 88.5672C18.6781 86.147 19.3733 83.4849 19.5999 82.6224L20.0092 81.0802H21.3094V79.8701H16.7704V81.0802H18.328L18.2533 81.7908C18.1478 82.8206 16.2863 89.8854 16.1653 89.7489C16.1035 89.6871 15.4238 87.7819 14.6515 85.5446C13.8791 83.2892 13.2148 81.3685 13.1839 81.263C13.1221 81.142 13.3049 81.0802 13.8044 81.0802H14.4995V79.8701H11.9275C10.2128 79.8701 9.35547 79.9808 9.35547 80.2022L9.35804 80.1997Z" fill="#9A5D36"/>
<path fill-rule="evenodd" clip-rule="evenodd" d="M73.3516 80.4718C73.3516 81.0459 73.367 81.0614 73.9257 81.1077L74.4844 81.1541L74.5307 87.0087L74.5616 92.8788H73.3516V94.0889H79.2526V94.4674C79.2526 94.7995 79.3144 94.8459 79.8576 94.8459H80.4627V87.5854H79.2526V89.7481C79.2526 91.8052 79.2371 91.9417 78.9205 92.2455C78.4673 92.6703 77.8468 92.8814 77.1208 92.8814H76.5312V81.082H77.7413V79.8564L75.5477 79.8873L73.3541 79.9028V80.4769L73.3516 80.4718Z" fill="#9A5D36"/>
<path fill-rule="evenodd" clip-rule="evenodd" d="M22.4289 81.4265C22.1251 81.684 22.0195 81.926 22.0195 82.289C22.0195 82.8477 22.6246 83.4991 23.1395 83.4991C23.5025 83.4991 24.3341 82.7112 24.3341 82.3791C24.3341 81.9543 24.002 81.4111 23.6235 81.2437C23.0931 81.0017 22.882 81.0326 22.4289 81.4265Z" fill="#9A5D36"/>
<path fill-rule="evenodd" clip-rule="evenodd" d="M61.4552 85.512C60.8965 86.1917 60.3352 86.874 60.1988 87.0259C59.9722 87.2988 60.0031 87.3426 60.4562 87.7519L60.9403 88.1896V93.0453L59.9259 92.999L58.896 92.9526L58.8214 89.9275C58.7596 87.5073 58.7004 86.8122 58.4892 86.4492C58.2163 85.9342 57.7014 85.4348 57.2045 85.1773C56.7359 84.9353 55.2838 84.9662 54.6325 85.2391C53.9656 85.5275 53.9811 85.5275 53.9811 85.1644C53.9811 84.9224 53.8755 84.8606 53.4507 84.8606H52.9203V86.8868C52.9203 88.1716 52.9821 88.944 53.0722 88.9749C53.1778 89.0058 53.0568 89.3842 52.8148 89.8683C52.4054 90.6561 52.3617 90.6999 52.027 90.548C51.7231 90.4115 51.633 90.4424 51.4966 90.669C50.5594 92.2729 49.5141 92.9372 47.9874 92.9089C45.7037 92.878 44.1152 91.0191 44.5091 88.8848L44.6146 88.3389H52.4801L52.39 87.9914C52.1634 87.2499 51.4966 86.3436 50.8323 85.8596C48.8808 84.4384 46.3705 84.7242 44.5091 86.5856C43.4355 87.6747 43.0879 88.5063 43.0879 89.9893C43.0879 91.1993 43.4355 92.0155 44.2825 92.8625C45.1759 93.7559 45.9921 94.1189 47.2768 94.2091C49.2876 94.3455 50.7705 93.6632 51.8313 92.1365L52.39 91.3358L52.4801 91.7606C52.6758 92.7441 53.2962 93.5165 54.2643 94.016C54.6737 94.2116 55.0212 94.258 55.8528 94.1988C56.4424 94.1524 58.4403 94.1086 60.3018 94.1086H63.6591V93.5783C63.6591 93.0942 63.6127 93.0479 63.175 93.0041L62.6756 92.9578L62.6292 90.0382L62.5983 87.1186L63.0515 86.6654C63.399 86.3024 63.6101 86.2123 63.9886 86.2561C64.6245 86.3179 64.8666 86.771 64.8666 87.9193V88.7972H65.9247V84.4101H65.3944C64.9567 84.4101 64.864 84.4719 64.864 84.7267C64.864 84.9997 64.7893 85.0306 64.4701 84.9688C64.2435 84.9224 63.865 84.9533 63.6385 85.0151C63.2754 85.1207 63.1544 85.0769 62.8378 84.6984L62.4747 84.2607L61.4449 85.5172L61.4552 85.512ZM56.7797 86.4492C57.0372 86.6912 57.1582 86.9795 57.1582 87.358V87.8884H56.4476C56.0691 87.8884 55.3894 88.0094 54.9491 88.1458C54.496 88.2823 54.0866 88.357 54.0403 88.2977C53.8446 88.1021 54.3132 86.9358 54.7354 86.4981C55.3096 85.9239 56.2493 85.9085 56.7771 86.4517L56.7797 86.4492ZM49.2155 86.5547C49.4111 86.6448 49.6094 86.8122 49.6532 86.9177C49.7149 87.0851 49.3648 87.1289 47.7763 87.1289C46.6872 87.1289 45.8093 87.0671 45.8093 86.9924C45.8093 86.3565 48.1238 86.0552 49.2129 86.5547H49.2155ZM56.9754 89.3997C57.2792 89.688 57.3075 89.8683 57.3075 91.1401C57.3075 92.412 57.2766 92.5767 56.9754 92.7879C56.7642 92.9398 56.3085 93.0299 55.8245 93.0299C55.0985 93.0299 54.9466 92.9681 54.5089 92.5304C53.5872 91.6087 53.6155 90.0794 54.5707 89.4434C55.2658 88.9749 56.5068 88.9594 56.9754 89.3971V89.3997Z" fill="#9A5D36"/>
<path fill-rule="evenodd" clip-rule="evenodd" d="M108.293 85.1322C106.477 87.4004 106.583 87.2202 106.856 87.6425C107.008 87.8536 107.219 88.0364 107.325 88.0364C107.492 88.0364 107.536 88.5049 107.536 90.5337V93.0311H105.569V85.1657H102.695V85.696C102.695 86.1646 102.742 86.2264 103.12 86.2264C103.921 86.2264 103.936 86.2573 103.877 89.2979C103.831 91.87 103.802 92.1429 103.514 92.5342C103.272 92.8509 103.046 92.9719 102.592 93.0028C101.413 93.0929 101.187 92.2768 101.187 88.0261V85.1657H98.4473L98.4936 85.6497C98.5399 86.0745 98.5992 86.1492 98.9931 86.1955C99.2351 86.2264 99.4926 86.332 99.5518 86.4221C99.6136 86.5276 99.6728 87.8587 99.6728 89.4035C99.6728 92.0219 99.7037 92.2639 100.02 92.8818C100.473 93.8035 101.171 94.2438 102.152 94.2438C102.577 94.2438 103.12 94.1382 103.378 94.0017C103.666 93.8498 103.846 93.8344 103.877 93.9271C103.908 94.0326 104.997 94.0944 107.101 94.0944H110.262V93.5641C110.262 93.08 110.231 93.0337 109.809 93.0337C109.552 93.0337 109.325 92.9436 109.279 92.838C109.248 92.7479 109.189 91.4452 109.142 89.9776L109.052 87.3L109.521 86.7542C109.884 86.3448 110.11 86.2238 110.52 86.2238C110.957 86.2238 111.065 86.2985 111.261 86.7542C111.367 87.0426 111.472 87.6167 111.472 88.0389V88.7959H112.53V84.4087H112C111.562 84.4087 111.47 84.4705 111.47 84.7254C111.47 84.9983 111.395 85.0421 111.06 84.9829C110.818 84.9365 110.471 84.952 110.26 85.0138C109.971 85.0884 109.776 85.0292 109.428 84.71L108.975 84.2852L108.295 85.1322H108.293Z" fill="#9A5D36"/>
<path fill-rule="evenodd" clip-rule="evenodd" d="M22.5185 85.8756L21.293 87.3585L21.7178 87.6907C21.9443 87.8735 22.1709 87.9945 22.2482 87.9481C22.3099 87.9018 22.3692 89.0372 22.3692 90.4455V93.033H21.916C21.4912 93.033 21.4629 93.0793 21.4629 93.5634V94.0937H28.574V93.5788C28.574 93.0948 28.5276 93.0484 28.09 93.0047L27.5905 92.9583L27.5441 90.1906C27.5132 87.5877 27.5287 87.3766 27.8325 86.8333C28.332 85.9554 29.3 85.9116 29.7995 86.7278C30.057 87.1654 30.0879 87.5156 30.0879 90.1159V93.0356H29.6347C29.2099 93.0356 29.1816 93.0819 29.1816 93.5659V94.0963H32.8118V93.5814C32.8118 93.0974 32.7655 93.051 32.3278 93.0072L31.8283 92.9609L31.7536 89.9357C31.679 86.9852 31.6635 86.8951 31.2696 86.2154C30.7392 85.322 30.075 84.9899 28.955 85.0362C28.2599 85.0671 28.0616 85.0208 27.745 84.7196C27.5184 84.5084 27.3073 84.4158 27.2455 84.5084C27.1708 84.5831 26.5941 85.2654 25.9607 86.0223L24.8099 87.3997L25.1575 87.7319C25.3403 87.8992 25.5823 88.0485 25.6724 88.0485C25.8088 88.0485 25.8552 88.7154 25.8552 90.5459V93.0433H24.0401V89.3822C24.0401 85.8575 24.0555 85.7211 24.3568 85.3735L24.6889 85.0414L24.3259 84.7376C24.1302 84.5702 23.9165 84.4338 23.8573 84.4209C23.8109 84.4209 23.2059 85.0877 22.5262 85.8884L22.5185 85.8756Z" fill="#9A5D36"/>
<path fill-rule="evenodd" clip-rule="evenodd" d="M34.4721 85.5558C33.9263 86.2071 33.3522 86.9023 33.2003 87.098L32.8965 87.4764L33.3805 87.9012L33.8645 88.3389V97.7182H33.4397C33.0304 97.7182 33.002 97.7646 32.9866 98.3233L32.9557 98.9283H36.7533L36.7069 98.3233C36.676 97.7337 36.6606 97.7182 36.1019 97.7182H35.5277V95.7512C35.5277 94.6622 35.5586 93.7842 35.5895 93.7842C35.6204 93.7842 35.8933 93.8898 36.1791 94.0108C36.9798 94.3429 38.5246 94.2992 39.5673 93.9052C40.1878 93.6787 40.6873 93.3311 41.2769 92.7415C42.4869 91.5315 42.7135 90.9856 42.7135 89.3224C42.7135 88.1124 42.6671 87.8858 42.2887 87.2499C41.7892 86.3874 40.7903 85.5558 39.8994 85.2391C39.0369 84.9224 37.5385 84.9224 36.8125 85.2236C36.192 85.4966 35.9191 85.5275 36.0401 85.3447C36.0864 85.27 35.9654 85.028 35.7826 84.7988L35.4351 84.374L34.467 85.5532L34.4721 85.5558ZM38.934 86.3874C41.1121 86.977 42.111 89.8374 40.8109 91.7426C40.2805 92.515 39.5853 92.8934 38.5864 92.9835C37.5128 93.0891 36.7558 92.8625 36.0452 92.242L35.5303 91.7889V87.1598L36.0761 86.8122C36.9978 86.2535 37.9221 86.117 38.9365 86.3874H38.934Z" fill="#9A5D36"/>
<path fill-rule="evenodd" clip-rule="evenodd" d="M80.459 85.6757C80.459 86.1597 80.5053 86.2061 80.9585 86.2498L81.4425 86.2962L81.5326 89.2003C81.6227 91.8471 81.6691 92.1663 81.9857 92.8306C82.4543 93.7832 83.1495 94.2363 84.1175 94.2363C84.5269 94.2363 85.0701 94.1307 85.343 93.9943C85.6597 93.8115 85.8271 93.7986 85.8734 93.9196C85.9197 94.0406 86.947 94.087 89.398 94.087H92.8635V93.5566C92.8635 93.0417 92.848 93.0262 92.2584 93.0262H91.6534L91.8362 92.6014C92.1838 91.829 93.0926 90.3023 93.1982 90.3023C93.3192 90.3023 94.7867 92.4212 94.9232 92.7997C94.985 92.9516 94.9232 93.0262 94.6966 93.0262C94.4391 93.0262 94.3799 93.1163 94.3799 93.5566V94.087H98.6152V93.5566C98.6152 93.0417 98.5997 93.0262 98.0256 93.0262C97.6626 93.0262 97.2995 92.9052 97.0421 92.7095C96.6636 92.4057 94.228 88.9274 94.228 88.6854C94.228 88.6236 94.5756 88.0495 95.0004 87.4007C95.7728 86.2215 95.7882 86.2215 96.437 86.2215C97.0858 86.2215 97.1039 86.2215 97.1039 85.6911V85.1608H89.3723L89.4186 85.6448C89.465 86.0542 89.5396 86.1443 90.07 86.2807C90.5849 86.4326 90.7961 86.6283 91.5376 87.7174L92.4 88.9738L91.5993 90.2147C91.1617 90.8816 90.5695 91.8033 90.2837 92.2255L89.7688 93.0262H88.6952C87.6962 93.0262 87.6061 92.9953 87.516 92.6786C87.4697 92.4959 87.4259 90.7271 87.4259 88.7446V85.1582H84.702V85.6886C84.702 86.1726 84.7483 86.2189 85.1268 86.2189C85.3533 86.2189 85.6262 86.2936 85.7318 86.4017C85.9584 86.6283 85.9738 91.1982 85.7472 92.0144C85.4589 93.088 84.2205 93.3764 83.5846 92.5293C83.2808 92.12 83.2679 91.8779 83.2215 88.6262L83.1598 85.1608H80.4667V85.6757H80.459ZM94.0735 86.3863C94.0735 86.6746 93.5586 87.429 93.3784 87.429C93.1673 87.429 92.5623 86.6412 92.5623 86.3863C92.5623 86.2807 92.866 86.2189 93.3192 86.2189C93.7723 86.2189 94.0761 86.2807 94.0761 86.3863H94.0735Z" fill="#9A5D36"/>
<path fill-rule="evenodd" clip-rule="evenodd" d="M112.832 85.6909C112.832 86.1749 112.879 86.2213 113.257 86.2213C113.499 86.2213 113.803 86.3114 113.937 86.4041C114.073 86.5096 114.663 87.9617 115.252 89.6275L116.326 92.6526L116.069 93.3323C115.917 93.7108 115.615 94.3467 115.373 94.7381C115.147 95.132 114.949 95.495 114.949 95.5259C114.949 95.6006 114.737 95.858 113.844 96.9033C113.481 97.341 113.36 97.3719 112.83 97.3127L112.225 97.2226V98.3116C112.225 99.5526 112.299 99.5964 113.388 99.0686C115.036 98.2679 116.398 95.9224 118.638 90.0059L120.031 86.2985L120.515 86.2522C120.953 86.2058 120.999 86.162 120.999 85.678V85.1631H117.369V85.678C117.369 86.1311 117.43 86.2084 117.822 86.2985C118.2 86.3732 118.275 86.4658 118.275 86.8443C118.275 87.3438 117.397 90.1578 117.245 90.1578C117.155 90.1578 115.852 86.6023 115.852 86.3294C115.852 86.2676 115.989 86.2238 116.156 86.2238C116.398 86.2238 116.46 86.1183 116.46 85.6935V85.1631H112.83V85.6935L112.832 85.6909Z" fill="#9A5D36"/>
<path fill-rule="evenodd" clip-rule="evenodd" d="M44.3313 52.0413C44.3313 52.0413 50.0959 53.7817 54.7199 56.4851C59.3439 59.1884 62.4077 62.4298 62.0472 64.4715C61.6868 66.5132 57.5442 66.6342 55.2606 66.2738C59.4057 68.4956 66.0096 71.3174 70.9348 71.7397C75.8601 72.1593 78.9213 70.4781 78.9213 65.7331C78.9213 60.9881 73.3369 50.2983 73.0949 47.8961C72.8555 45.494 68.7721 32.8218 86.0066 30C82.5824 30.121 71.2335 31.9825 65.8268 37.5076C60.4227 43.0327 61.262 51.1402 64.8664 59.0082C61.2028 56.3666 57.9588 51.9821 44.3262 52.0413H44.3313Z" fill="url(#paint0_linear_1380_2693)"/>
<defs>
<linearGradient id="paint0_linear_1380_2693" x1="55.2734" y1="44.5646" x2="85.0617" y2="52.9115" gradientUnits="userSpaceOnUse">
<stop stop-color="#E09F26"/>
<stop offset="1" stop-color="#FDB913"/>
</linearGradient>
</defs>
</svg>
