<svg width="130" height="130" viewBox="0 0 130 130" fill="none" xmlns="http://www.w3.org/2000/svg">
<g clip-path="url(#clip0_1380_1211)">
<path d="M85.9835 30C74.2365 31.3874 62.2071 35.2083 61.4195 46.7896C61.0406 52.2056 62.7347 56.2788 64.6368 60.2035C59.8592 55.5517 53.1424 51.8347 43.4609 52.7398C49.353 54.3869 56.1293 57.54 59.8666 61.717C60.6617 62.5999 61.8059 64.1282 61.5384 65.4489C61.0852 67.6524 56.9838 67.1998 54.5021 67.3185C59.6512 69.3588 65.4021 73.0313 72.7579 72.8013C76.4209 72.6826 79.1181 70.4791 78.8283 66.3837C78.3231 59.0313 72.8396 52.7621 72.2675 44.46C71.6285 35.097 78.2785 31.6545 85.7457 30.1113C85.8943 30.1632 86.1247 30.1113 86.199 30.0668C86.2436 30.0371 86.2064 30 85.9909 30H85.9835Z" fill="black"/>
<path d="M20.9699 80.4283H16.3558V81.6302H16.9725C17.4258 81.6302 17.6635 81.7044 17.775 81.7638C17.879 81.8157 17.8939 81.9938 17.8939 82.1347C17.8939 82.2015 17.8716 82.3425 17.827 82.5947L15.8283 90.4887L12.8117 81.7415L12.7819 81.6302H14.1268V80.4283H9V81.2073L9.26005 81.6302H9.57212C9.81731 81.6302 10.0328 81.6525 10.1888 81.697C10.3077 81.7341 10.4192 81.8157 10.5232 81.9344C10.6569 82.0828 10.7907 82.3202 10.9318 82.6244C10.9987 82.7876 11.1027 83.0695 11.2439 83.4702L14.7435 93.627L15.167 94.6657H16.2444L19.6696 81.6228H20.9699V80.4209" fill="black"/>
<path d="M22.7463 84.0786C23.0806 84.0786 23.3778 83.9525 23.6007 83.7077C23.8162 83.4702 23.9351 83.1735 23.9351 82.8248C23.9351 82.4983 23.8162 82.2164 23.5933 81.979C23.1549 81.5413 22.3302 81.5487 21.8918 81.9938C21.6615 82.2238 21.5352 82.5206 21.5352 82.8619C21.5352 83.2032 21.6615 83.4999 21.8844 83.7299C22.1073 83.9599 22.4119 84.0786 22.7537 84.0786" fill="black"/>
<path d="M31.4176 93.4567C31.4176 93.4567 31.3656 93.3305 31.3656 93.056V89.1164C31.3656 88.56 31.3359 88.1 31.2839 87.7365C31.2244 87.3432 31.0833 86.9649 30.8529 86.6087C30.6226 86.2452 30.318 85.9707 29.939 85.763C29.2703 85.4143 28.4827 85.3772 27.7323 85.6665L27.7769 85.6072L26.915 84.8727L24.3813 87.9219L25.1986 88.7751L25.3992 88.5229V93.5086H24.1138C23.824 93.5086 23.7349 93.4715 23.7349 93.4715C23.7126 93.4492 23.668 93.3379 23.668 93.056L23.6309 86.4307L24.3441 85.5478L23.3931 84.8652L20.8223 87.9071L21.7362 88.6861L21.9442 88.4339V93.4937H21.0749V94.6437H28.2598V93.4937H27.8363C27.3236 93.4937 27.1973 93.4418 27.1973 93.4418C27.1824 93.427 27.123 93.3305 27.123 93.0486V88.5748C27.123 88.1074 27.2493 87.6697 27.5094 87.2691C27.7397 86.9204 28.0221 86.7571 28.4084 86.7571C28.9137 86.7571 29.2332 86.9723 29.4338 87.4694C29.5304 87.6548 29.5824 87.8403 29.6121 88.0332C29.6418 88.2484 29.6567 88.5229 29.6567 88.8345V93.4937H28.7874V94.6437H32.4801V93.4937H32.0566C31.5885 93.4937 31.4548 93.4418 31.4325 93.4418" fill="black"/>
<path d="M37.9335 85.4732C37.2796 85.4732 36.6629 85.5994 36.0908 85.8516C35.8753 85.9481 35.6598 86.0594 35.4518 86.1855L35.8159 85.77L34.9911 84.9316L32.4277 88.0106L33.2599 88.849L33.4531 88.6116V98.301H32.5838V99.451H36.3137V98.301H35.8902C35.3849 98.301 35.2586 98.2491 35.2512 98.2491C35.2512 98.2491 35.1769 98.1823 35.1769 97.8559V94.3837C35.3924 94.495 35.6078 94.5914 35.8307 94.6582C36.2988 94.814 36.7892 94.8882 37.3019 94.8882C38.6988 94.8882 39.9099 94.3837 40.8981 93.4043C41.4256 92.9073 41.8268 92.3657 42.0869 91.7944C42.3469 91.2157 42.4733 90.5702 42.4733 89.8728C42.4733 88.6709 42.0274 87.6322 41.1284 86.7642C40.2442 85.9036 39.1743 85.4732 37.9483 85.4732M37.6808 93.5082C37.2053 93.5082 36.7372 93.3821 36.2988 93.1298C35.9125 92.9073 35.5187 92.5957 35.1769 92.2395L35.1323 88.0106C35.8159 87.2984 36.6555 86.9348 37.6288 86.9348C38.5279 86.9348 39.3006 87.2835 39.9247 87.9661C40.5637 88.6635 40.8832 89.4796 40.8832 90.3922C40.8832 91.3047 40.5786 92.0095 39.9842 92.6105C39.3675 93.2263 38.6319 93.5156 37.666 93.5156" fill="black"/>
<path d="M58.5064 93.4492C58.5064 93.4492 58.4247 93.3825 58.4247 93.056V89.1164C58.4247 88.471 58.3875 87.9813 58.3058 87.6252C58.224 87.2542 58.0977 86.9352 57.9268 86.6829C57.6371 86.2526 57.2804 85.941 56.8866 85.7555C56.1139 85.3846 54.8879 85.3994 54.0706 85.7926C53.9146 85.8668 53.7511 85.9633 53.5951 86.0671V85.3994H52.4063V89.5764H52.8818C52.4063 90.0587 52.1165 90.6151 52.005 91.2457L51.1506 90.8822L50.9722 91.2383C50.623 91.9283 50.1549 92.4922 49.5754 92.9002C48.3346 93.7831 46.3656 93.6347 45.1322 92.5293C44.4189 91.8912 44.0697 91.1567 44.0697 90.259V90.1032C44.0697 89.6506 44.144 89.2426 44.2926 88.8864H52.1016L51.901 88.3226C51.6112 87.4842 51.0688 86.7868 50.3035 86.2526C49.5382 85.7259 48.7061 85.4588 47.8219 85.4588C46.4547 85.4588 45.2213 85.9484 44.1588 86.9203C43.0889 87.8923 42.5391 89.0868 42.5391 90.4741C42.5391 91.7057 43.0146 92.7592 43.9508 93.6125C44.8721 94.4508 45.9718 94.8811 47.2126 94.8811C48.3271 94.8811 49.3153 94.5992 50.1401 94.0502C50.9425 93.5234 51.5444 92.7667 51.953 91.8022C51.953 91.817 51.953 91.8318 51.953 91.8393C51.953 92.6999 52.2651 93.427 52.8744 94.0131C53.4836 94.5918 54.2341 94.8811 55.1108 94.8811C55.4898 94.8811 55.8761 94.8218 56.2699 94.6957C56.4185 94.6511 56.5597 94.5992 56.7009 94.5398V94.6437H59.554V93.4937H59.1305C58.6253 93.4937 58.499 93.4418 58.4915 93.4418M45.2882 87.5807C45.4368 87.4694 45.6077 87.3655 45.786 87.2765C46.7445 86.8016 47.8739 86.8016 48.8175 87.2691C49.0033 87.3581 49.1742 87.462 49.3302 87.5881H45.2882V87.5807ZM54.1226 87.4323C54.4495 86.95 54.8508 86.72 55.3857 86.72C55.9207 86.72 56.2625 86.9203 56.4928 87.3432C56.5597 87.4842 56.6117 87.6178 56.634 87.7587C56.6563 87.8477 56.686 88.0406 56.686 88.419V88.4784C56.6414 88.4635 56.6043 88.4487 56.5671 88.4413C56.3368 88.3745 56.0693 88.3374 55.7721 88.3374C54.9771 88.3374 54.2415 88.5526 53.5951 88.9829C53.6248 88.4339 53.8031 87.9145 54.1226 87.4323ZM54.0409 90.1848C54.4421 89.8435 54.9028 89.6803 55.408 89.6803C55.6829 89.6803 55.943 89.7471 56.1659 89.8732C56.3368 89.9696 56.5151 90.118 56.6934 90.2516L56.738 93.0189C55.9653 93.7683 54.769 93.7312 54.0706 92.9225C53.6694 92.4699 53.4836 91.9654 53.4836 91.3348C53.4836 90.8748 53.6694 90.5038 54.0557 90.1774" fill="black"/>
<path d="M64.377 85.5696H64.3695C63.8346 85.4138 63.307 85.4361 62.7943 85.6512L62.0216 84.7461L59.4434 87.8992L60.2681 88.7376L60.4687 88.5002V93.5156H59.5994V94.6655H63.3293V93.5156H62.9058C62.3931 93.5156 62.2668 93.4636 62.2668 93.4636C62.2519 93.4488 62.1851 93.3449 62.1851 93.0704L62.1479 87.9067C62.2742 87.6322 62.4823 87.3651 62.7646 87.1128C63.0098 86.8977 63.2327 86.7864 63.4333 86.7864H63.5225C63.894 86.8309 64.1169 87.0312 64.2432 87.417C64.3027 87.5654 64.3324 87.6989 64.3472 87.8251C64.3621 87.966 64.3695 88.1441 64.3695 88.3741V89.3608H65.5583V84.9909H64.3695V85.577" fill="black"/>
<path d="M68.5963 93.4564C68.5963 93.4564 68.5295 93.3822 68.5295 93.0557L68.4849 81.2147L69.0719 80.5692L68.2322 79.7383L65.5723 82.8247L66.4862 83.6111L66.8057 83.2253V93.5009H65.9289V94.6508H69.4359V93.5009H69.0124C68.6929 93.5009 68.6038 93.4563 68.5963 93.4489" fill="black"/>
<path d="M78.8059 91.3572C78.8059 91.7727 78.7613 92.1214 78.6796 92.3959C78.6127 92.611 78.4715 92.7965 78.2263 92.9672C77.9589 93.1526 77.6394 93.2713 77.2753 93.3307C76.9409 93.3826 76.5471 93.4123 76.0865 93.4271V81.7271H77.253V80.5029H72.7949V81.7271H73.2333C73.8351 81.7271 74.0209 81.8087 74.058 81.831C74.058 81.831 74.1249 81.9052 74.1249 82.2242V93.4346H72.9138V94.6216H78.8059V95.4229H79.9947V88.115H78.8059V91.372" fill="black"/>
<path d="M96.4233 93.1147C96.2747 92.9812 96.0072 92.677 95.5689 92.0018L93.6965 89.2419L95.3088 86.8826H96.6462V85.7326H88.8223V86.4597L89.0601 86.8826H89.3573C89.7734 86.8826 90.0631 87.0013 90.2638 87.2461C90.3232 87.3203 90.5015 87.5652 90.7913 87.988L91.8464 89.5387L89.2458 93.5376H88.1536V93.5005H87.7301C87.2546 93.5005 87.1134 93.4486 87.106 93.4486C87.0985 93.4263 87.0539 93.3299 87.0539 93.0479V85.7252H84.1933V86.8752H84.6169C85.1593 86.8752 85.2707 86.9419 85.2707 86.9345C85.2856 86.9568 85.3302 87.0681 85.3302 87.3203V91.9054C85.3302 92.3505 85.1964 92.766 84.9289 93.1221C84.4757 93.7379 83.5544 93.7453 83.1606 93.1221C82.9228 92.7437 82.7965 92.1428 82.7965 91.3341V85.7178H79.9805V86.8677H80.404C80.8424 86.8677 81.0058 86.9197 81.0281 86.9197C81.0281 86.9197 81.0801 87.0532 81.0801 87.3203V91.6012C81.0801 92.536 81.2733 93.2853 81.6448 93.8344C82.1203 94.5243 82.8336 94.873 83.7773 94.873C84.1636 94.873 84.5723 94.7692 84.9884 94.5614C85.1072 94.5021 85.2187 94.4427 85.3302 94.376V94.6431H92.359V93.5302H91.9355C91.512 93.5302 91.3188 93.5153 91.2594 93.5153C91.2594 93.4782 91.2891 93.3521 91.4006 93.0999C91.5194 92.855 91.6235 92.6621 91.7275 92.4989L92.7083 90.8148L94.5509 93.5302H93.7931V94.6431H98.1248V93.5302H97.471C97.0772 93.5302 96.728 93.3892 96.4159 93.0999M93.481 86.89C93.4736 86.9345 93.4438 87.031 93.3547 87.209L92.8569 87.9806L92.0916 86.8677H92.9906C93.2804 86.8677 93.4067 86.9048 93.4736 86.89" fill="black"/>
<path d="M112.055 89.3462V84.9763H110.866V85.5624C110.866 85.5624 110.866 85.5624 110.851 85.5624C110.316 85.4066 109.796 85.4363 109.284 85.644L108.518 84.7314L105.94 87.8846L106.757 88.7155L106.958 88.4707V93.4935H105.71C105.242 93.4935 105.086 93.449 105.086 93.4416C105.071 93.4193 105.026 93.3154 105.026 93.0409V85.7182H102.166V86.8682H102.589C103.132 86.8682 103.258 86.9424 103.243 86.9349C103.258 86.9572 103.302 87.0685 103.302 87.3207V91.9058C103.302 92.3584 103.169 92.7664 102.901 93.1225C102.448 93.7383 101.527 93.7458 101.133 93.1225C100.895 92.7516 100.769 92.1432 100.769 91.3345V85.7182H97.9453V86.8682H98.3688C98.7998 86.8682 98.9632 86.9201 98.9855 86.9201C98.9855 86.9201 99.0301 87.0537 99.0301 87.3207V91.6016C99.0301 92.529 99.2233 93.2783 99.6022 93.8348C100.078 94.5248 100.798 94.8735 101.735 94.8735C102.128 94.8735 102.537 94.7696 102.953 94.5619C103.065 94.5025 103.184 94.4432 103.295 94.3764V94.6435H109.796V93.4935H109.373C108.868 93.4935 108.734 93.4342 108.734 93.4342C108.719 93.4193 108.652 93.3229 108.652 93.0409L108.615 87.8772C108.741 87.6027 108.949 87.343 109.232 87.0833C109.477 86.8682 109.707 86.7569 109.9 86.7569H109.99C110.361 86.8014 110.584 87.0017 110.71 87.3875C110.77 87.5359 110.799 87.6694 110.814 87.7956C110.837 87.9365 110.844 88.1146 110.844 88.3446V89.3388H112.033" fill="black"/>
<path d="M116.744 85.7402V86.8383L117.115 86.8902C117.569 86.9496 117.695 86.9792 117.688 86.9718C117.688 86.9867 117.732 87.046 117.732 87.2241C117.732 87.5134 117.635 88.1515 117.182 89.5314C117.093 89.7911 116.937 90.2363 116.714 90.8446L115.332 86.8902H115.956V85.7402H112.301V86.8902H112.91C113.2 86.8902 113.415 86.9941 113.571 87.2167C113.683 87.3725 113.824 87.7286 113.995 88.2702L115.748 93.2336C115.57 93.7381 115.354 94.2278 115.117 94.6878C114.842 95.2145 114.537 95.719 114.225 96.1939C113.965 96.5871 113.69 96.9506 113.408 97.2845C112.955 97.8038 112.732 97.9077 112.702 97.9448L112.568 97.7519H111.691V99.9999L112.189 99.9109C112.702 99.8218 113.237 99.5399 113.764 99.0725C114.329 98.5754 114.909 97.8187 115.488 96.8245C115.904 96.09 116.305 95.259 116.684 94.3613C116.833 94.0052 117.167 93.1668 117.68 91.8462L119.545 86.8902H120.474V85.7402H116.744Z" fill="black"/>
</g>
<defs>
<clipPath id="clip0_1380_1211">
<rect width="111.481" height="70" fill="white" transform="translate(9 30)"/>
</clipPath>
</defs>
</svg>
