<svg width="126" height="21" viewBox="0 0 126 21" fill="none" xmlns="http://www.w3.org/2000/svg">
<g clipPath="url(#clip0_88_199)">
<path d="M125.593 12.9842C125.322 12.3403 124.946 11.7471 124.467 11.2046C124.361 11.0915 124.248 10.9744 124.122 10.8534C123.997 10.7324 123.863 10.6232 123.714 10.5295C123.173 10.1002 122.561 9.75677 121.887 9.507C121.209 9.25333 120.487 9.12064 119.715 9.10113H117.809C117.37 9.08162 116.954 8.98796 116.558 8.82014C116.162 8.65233 115.817 8.43378 115.527 8.1606C115.236 7.89132 115.005 7.57521 114.84 7.22007C114.672 6.86493 114.589 6.48247 114.589 6.0688V5.84635C114.589 5.7722 114.601 5.69805 114.621 5.6239C114.683 5.26876 114.813 4.93313 115.013 4.61312C115.213 4.2931 115.456 4.01992 115.746 3.78576C116.036 3.55161 116.378 3.36818 116.762 3.2394C117.146 3.10671 117.55 3.04427 117.966 3.04427H119.217C120.009 3.04427 120.707 3.26671 121.311 3.71552C121.914 4.16432 122.31 4.72629 122.499 5.39754L125.342 3.40721C125.279 3.31355 125.212 3.21208 125.138 3.0989C125.063 2.98573 124.997 2.88426 124.934 2.79059C124.35 2.00617 123.597 1.38565 122.667 0.925142C121.738 0.468536 120.714 0.238281 119.589 0.238281H117.558C116.432 0.238281 115.413 0.468536 114.495 0.925142C113.578 1.38175 112.829 2.00617 112.244 2.79059C111.621 3.61405 111.256 4.55848 111.15 5.6239V6.01806C111.15 6.72834 111.288 7.40739 111.558 8.05133C111.829 8.69526 112.205 9.28846 112.684 9.83092C112.891 10.0924 113.142 10.3187 113.433 10.5022C113.974 10.9315 114.585 11.2749 115.26 11.5247C115.938 11.7783 116.66 11.911 117.432 11.9305H119.338C119.777 11.95 120.193 12.0437 120.589 12.2115C120.985 12.3793 121.33 12.5979 121.62 12.8711C121.91 13.1403 122.142 13.4565 122.307 13.8116C122.475 14.1667 122.558 14.5492 122.558 14.9629C122.558 15.037 122.554 15.1112 122.542 15.1853C122.53 15.2595 122.526 15.3336 122.526 15.4078C122.401 16.1376 122.024 16.7503 121.401 17.2459C120.777 17.7415 120.036 17.9874 119.181 17.9874H117.93C117.515 17.9874 117.119 17.9211 116.742 17.7923C116.366 17.6635 116.032 17.4801 115.742 17.2459C115.452 17.0117 115.205 16.7425 115.009 16.4342C114.813 16.1258 114.68 15.7941 114.617 15.439L111.711 17.4566C111.876 17.7571 112.044 18.0186 112.213 18.2411C112.797 19.0255 113.546 19.646 114.464 20.1065C115.381 20.5631 116.401 20.7934 117.526 20.7934H119.589C120.714 20.7934 121.734 20.5631 122.652 20.1065C123.569 19.6499 124.318 19.0255 124.902 18.2411C125.549 17.3981 125.902 16.4576 125.965 15.4078C125.985 15.3141 125.997 15.1853 125.997 15.0136C125.997 14.3033 125.859 13.6243 125.589 12.9803L125.593 12.9842Z" fill="#D8997E"/>
<path d="M53.0488 20.5668H56.4565L57.1741 18.9433L62.3973 6.88424L66.4911 16.3052L67.6479 18.9433L68.3381 20.5668H71.7457L62.3973 0.015625L53.0488 20.5668Z" fill="#D8997E"/>
<path d="M104.575 16.3052L105.732 18.9433L106.418 20.5668H109.826L100.477 0.015625L91.1289 20.5668H94.5365L95.2581 18.9433L100.477 6.88424L104.575 16.3052Z" fill="#D8997E"/>
<path d="M43.6997 9.21413L45.9192 20.6254H49.3268L45.0722 0.0429688L37.5393 14.2017L30.0378 0.0429688L25.7832 20.6254H29.1908L31.4103 9.21413L37.5393 20.9883L43.6997 9.21413Z" fill="#D8997E"/>
<path d="M90.8813 9.04627C90.9009 8.97212 90.9244 8.88627 90.944 8.7926C90.944 8.73797 90.9558 8.69894 90.9754 8.67943L91.0695 8.00818V7.98086C91.0891 7.86768 91.1048 7.75841 91.1165 7.64523C91.1283 7.53206 91.1322 7.41108 91.1322 7.28229V7.22765C91.1322 7.09496 91.1283 6.97398 91.1165 6.86471C91.1048 6.75153 91.0891 6.64226 91.0695 6.52908V6.47445C91.0499 6.38078 91.0342 6.27932 91.0224 6.16614C91.0107 6.05296 90.995 5.94369 90.9754 5.83051C90.9558 5.811 90.944 5.77588 90.944 5.71734C90.9244 5.56904 90.8695 5.38952 90.7871 5.18658C90.497 4.34362 90.0617 3.58651 89.4892 2.91526C88.9167 2.24401 88.2226 1.67032 87.4109 1.20591C85.9953 0.40197 84.3483 0 82.47 0H75.0273L77.7958 2.63427H82.8778C83.5641 2.63427 84.1954 2.76305 84.7679 3.02843C85.3404 3.28991 85.8424 3.63724 86.2698 4.06653C86.6972 4.49582 87.0305 4.98755 87.2697 5.53782C87.5089 6.08809 87.6305 6.66567 87.6305 7.26278C87.6305 7.85988 87.5089 8.43746 87.2697 8.98773C87.0305 9.538 86.6972 10.0297 86.2698 10.459C85.8424 10.8883 85.3443 11.2356 84.7679 11.4971C84.1954 11.7586 83.5641 11.8913 82.8778 11.8913H75.0313V20.6097H78.3762V14.5256H82.47C83.4072 14.5256 84.2934 14.4202 85.1287 14.2016C85.9639 13.987 86.7247 13.6943 87.4109 13.3196C88.2226 12.8513 88.9167 12.2815 89.4892 11.6103C90.0617 10.939 90.493 10.1702 90.7871 9.31165C90.8303 9.21799 90.8616 9.13603 90.8813 9.05798V9.04627Z" fill="#D8997E"/>
<path d="M23.826 9.19071L23.8574 8.80825V8.80045C22.681 7.69601 21.9437 6.13106 21.9437 4.39049C21.9437 3.10262 22.3476 1.91232 23.0339 0.932766H23.03C21.83 0.932766 20.7438 1.40889 19.9478 2.1816C20.2811 1.63134 20.7399 1.15522 21.2967 0.792272L22.1829 0.214684L21.1281 0.101508C20.8105 0.0663845 20.4889 0.050774 20.1635 0.050774C18.1636 0.050774 16.2853 0.733733 14.7873 1.88891C13.8737 1.54548 12.9169 1.36986 11.9326 1.36986C10.9484 1.36986 9.98763 1.54548 9.07788 1.88891C7.57209 0.725927 5.69378 0.0429688 3.6939 0.0429688C3.37235 0.0429688 3.04688 0.0585792 2.72926 0.0937028L1.67442 0.206879L2.56064 0.784467C3.12139 1.14741 3.57626 1.62743 3.90958 2.1738C3.11355 1.40108 2.02734 0.924961 0.827415 0.924961H0.823493C1.50972 1.90452 1.91362 3.09872 1.91362 4.38268C1.91362 6.12325 1.17641 7.6882 -0.00390625 8.79264H1.50744e-05L0.0313857 9.18291C0.227452 11.6338 1.69795 13.7958 3.8586 14.9041C3.39196 14.8534 2.93709 14.7402 2.4979 14.5685L1.62344 14.2212L2.01165 15.0759C2.9018 17.0272 4.77227 18.3463 6.88586 18.5609C6.6349 18.6858 6.37609 18.7951 6.10552 18.8848L5.50163 19.0839L5.96435 19.517C6.77999 20.282 7.84659 20.6995 8.96809 20.6995C10.0896 20.6995 11.1209 20.2859 11.9248 19.56C12.7286 20.2898 13.7874 20.6995 14.8814 20.6995C15.9755 20.6995 17.0695 20.2781 17.8852 19.517L18.3479 19.0839L17.744 18.8848C17.4774 18.7951 17.2146 18.6858 16.9676 18.5609C19.0812 18.3463 20.9517 17.0272 21.8418 15.0759L22.23 14.2212L21.3555 14.5685C20.9164 14.7402 20.4615 14.8534 19.9949 14.9041C22.1555 13.7919 23.6299 11.6338 23.8221 9.18291L23.826 9.19071ZM4.36445 7.3838C5.17616 7.40331 5.96435 7.58673 6.69372 7.91846C6.60745 8.137 6.55647 8.37506 6.55647 8.62093C6.55647 9.66293 7.4074 10.5098 8.45439 10.5098C8.72496 10.5098 8.98377 10.4513 9.21905 10.3498C9.34845 10.7049 9.41904 11.0835 9.41904 11.4698C9.41904 12.3674 9.05435 13.1831 8.47008 13.7763C6.1565 12.6758 4.41151 10.5059 3.96055 7.88333C4.10564 7.72333 4.24289 7.55942 4.36837 7.3838H4.36445ZM14.4383 11.4698C14.4383 11.0835 14.5089 10.7049 14.6383 10.3498C14.8736 10.4513 15.1324 10.5098 15.403 10.5098C16.45 10.5098 17.3009 9.66293 17.3009 8.62093C17.3009 8.37116 17.2499 8.1331 17.1637 7.91846C17.893 7.58673 18.6773 7.40331 19.4929 7.3838C19.6184 7.55942 19.7556 7.72723 19.9007 7.88333C19.4459 10.5059 17.7048 12.6758 15.3912 13.7763C14.803 13.1792 14.4423 12.3674 14.4423 11.4698H14.4383ZM11.9287 2.12307C12.6777 2.12307 13.4109 2.23624 14.1168 2.45479C13.16 3.35629 12.4032 4.47244 11.9287 5.73299C11.4542 4.47244 10.6974 3.35629 9.74059 2.45479C10.4464 2.23624 11.1797 2.12307 11.9287 2.12307ZM11.5562 7.17306L11.9287 8.97607L12.3012 7.17306C13.058 3.5124 16.3206 0.843006 20.0733 0.80398C19.1047 1.75622 18.5518 3.05189 18.5518 4.43732C18.5518 5.22955 18.7322 5.98276 19.0577 6.65401C17.8773 6.75157 16.7558 7.15745 15.7794 7.8404C15.4343 8.08237 15.1089 8.35945 14.8148 8.65995C14.0815 9.41706 13.6776 10.4161 13.6776 11.4737C13.6776 11.8835 13.7403 12.2738 13.8541 12.6445C13.2345 12.7889 12.5914 12.867 11.9248 12.867C11.2581 12.867 10.615 12.7889 9.99547 12.6484C10.1092 12.2777 10.1719 11.8835 10.1719 11.4776C10.1719 10.42 9.76803 9.42097 9.03475 8.65995C8.74065 8.35945 8.41518 8.08237 8.0701 7.8404C7.09369 7.15745 5.97219 6.75157 4.79187 6.65401C5.11734 5.98276 5.29772 5.22955 5.29772 4.43732C5.29772 3.05579 4.7409 1.75622 3.77625 0.80398C7.53288 0.846908 10.7915 3.5124 11.5483 7.17306H11.5562ZM0.831336 9.50292C1.75677 9.38584 2.60377 9.0229 3.30177 8.48434C3.88605 11.0171 5.58006 13.1167 7.80737 14.2953C7.30936 14.5958 6.72509 14.7715 6.09767 14.7715C5.70554 14.7715 5.32125 14.7012 4.94873 14.5685C2.73318 13.7685 1.14896 11.8055 0.827415 9.50292H0.831336ZM14.8854 19.9541C13.8697 19.9541 12.8933 19.5248 12.2071 18.7794L11.9248 18.475L11.6424 18.7794C10.9562 19.5248 9.97979 19.9541 8.96809 19.9541C8.2544 19.9541 7.56425 19.7473 6.97997 19.3648C7.4623 19.1502 7.91717 18.8731 8.33675 18.5453C9.71706 18.3541 10.9797 17.6984 11.9248 16.6681C12.8737 17.6984 14.1364 18.3541 15.5128 18.5453C15.9324 18.8731 16.3872 19.1463 16.8696 19.3648C16.2814 19.7473 15.5951 19.9541 14.8814 19.9541H14.8854ZM20.7046 15.5637C19.736 16.9725 18.1126 17.8467 16.3637 17.8467C14.7403 17.8467 13.2345 17.1169 12.2306 15.8486L11.9326 15.47L11.6346 15.8486C10.6307 17.1208 9.12494 17.8467 7.50151 17.8467C5.74868 17.8467 4.12917 16.9725 3.1606 15.5637C4.05859 15.7588 5.01931 15.7432 5.91729 15.5208C5.98004 15.5208 6.04278 15.5286 6.10944 15.5286C7.05448 15.5286 7.92501 15.2046 8.61516 14.6661C9.64647 15.0876 10.768 15.3217 11.9326 15.3217C13.0972 15.3217 14.2187 15.0876 15.25 14.6661C15.9441 15.2046 16.8107 15.5286 17.7558 15.5286C17.8185 15.5286 17.8813 15.5247 17.9479 15.5208C18.8459 15.7432 19.8066 15.7588 20.7046 15.5637ZM18.9008 14.5685C18.5322 14.7051 18.1479 14.7715 17.7558 14.7715C17.1323 14.7715 16.548 14.5958 16.0461 14.2953C18.2773 13.1167 19.9674 11.0171 20.5517 8.48434C21.2536 9.0229 22.0967 9.38194 23.026 9.50292C22.7045 11.8055 21.1203 13.7685 18.9008 14.5685Z" fill="#D8997E"/>
</g>
<defs>
<clipPath id="clip0_88_199">
<rect width="126" height="21" fill="white"/>
</clipPath>
</defs>
</svg>
